{
.appVersion = "3131";
.formatVersion = 3;
DisplayStrings = (
"ABCDEFGHIJKLMNOPQRSTUVWXYZI/I.ss01/M.ss01 abcdefghıȷklmnŋopqrsßtuvwxyz/l.ss04/f_i 012345678/zero.osf/one.osf/two.osf ⁰¹²³⁴⁵⁶⁷⁸/.notdef .,‘’bam!•///backslash/period.ss02/comma.ss02/colon.ss02/semicolon.ss02/exclam.ss02 -–—_([’\"'/quoteright.ss02 @&$%̈̀́̋/caroncomb.alt ̧̨̛̂̌̆̊̃̄̉̏̒/commaaccentcomb.loclMAH ̇/dieresiscomb.ss02 ̇/dotaccentcomb.ss02/dotaccentcomb.ss03/_part.asterisk/_part.dollar/_question.part/_part.asterisk.base n!/_question.part ?

",
"nn/Placeholder nono/Placeholder oo
abcdef.,;/f_i fighijklmnopqrstuvwxyz
HH/Placeholder HOHO/Placeholder OO
ABCDEFGHIUJKLMNOPQRSTUVWXYZ
11/Placeholder 1010/Placeholder 00
0123456789
/dotaccentcomb.ss02/i.ss02/j.ss02/comma.ss02/colon.ss02/semicolon.ss02/period.ss02 !/exclam.ss02/ellipsis.ss02/_question.part/question.ss02/semicolon.ss02/quoteleft.ss02/exclamdown.ss02 ’/quoteright.ss02/questiondown.ss02/quotedblbase.ss02/quotedblleft.ss02/dieresiscomb.ss02/quotedblright.ss02/dotaccentcomb.ss02/periodcentered.ss02/quotesinglbase.ss02 
/i.ss03/j.ss03/dotaccentcomb.ss03/comma.ss03/period.ss03/colon.ss03/semicolon.ss03/exclam.ss03/ellipsis.ss03/question.ss03/exclamdown.ss03/quoteright.ss03/quoteleft.ss03/quotedblright.ss03/quotedblleft.ss03 
",

glyphs = (
{
glyphname = A;
lastChange = "2022-06-07 12:47:21 +0000";
layers = (
{
anchors = (
{
name = bottom;
pos = (300,0);
},
{
name = ogonek;
pos = (589,0);
},
{
name = top;
pos = (300,710);
}
);
layerId = m01;
shapes = (
{
closed = 1;
nodes = (
(109,0,l),
(320,648,l),
(272,648,l),
(483,0,l),
(589,0,l),
(350,710,l),
(249,710,l),
(11,0,l)
);
},
{
closed = 1;
nodes = (
(475,195,l),
(453,283,l),
(138,283,l),
(116,195,l)
);
}
);
width = 600;
},
{
anchors = (
{
name = bottom;
pos = (317,0);
},
{
name = ogonek;
pos = (615,0);
},
{
name = top;
pos = (317,710);
}
);
layerId = m002;
shapes = (
{
closed = 1;
nodes = (
(168,0,l),
(349,648,l),
(284,648,l),
(465,0,l),
(636,0,l),
(411,710,l),
(234,710,l),
(9,0,l)
);
},
{
closed = 1;
nodes = (
(505,150,l),
(483,278,l),
(169,278,l),
(147,150,l)
);
}
);
width = 645;
},
{
anchors = (
{
name = bottom;
pos = (208,0);
},
{
name = ogonek;
pos = (514,0);
},
{
name = top;
pos = (411,710);
}
);
layerId = m003;
shapes = (
{
closed = 1;
nodes = (
(41,0,l),
(437,648,l),
(389,648,l),
(415,0,l),
(514,0,l),
(478,710,l),
(377,710,l),
(-64,0,l)
);
},
{
closed = 1;
nodes = (
(456,195,l),
(459,283,l),
(143,283,l),
(96,195,l)
);
}
);
width = 600;
},
{
anchors = (
{
name = bottom;
pos = (259,0);
},
{
name = ogonek;
pos = (558,0);
},
{
name = top;
pos = (458,710);
}
);
layerId = m004;
shapes = (
{
closed = 1;
nodes = (
(92,0,l),
(469,648,l),
(391,648,l),
(406,0,l),
(558,0,l),
(535,710,l),
(357,710,l),
(-64,0,l)
);
},
{
closed = 1;
nodes = (
(472,150,l),
(487,278,l),
(179,278,l),
(121,150,l)
);
}
);
width = 646;
},
{
anchors = (
{
name = bottom;
pos = (342,0);
},
{
name = ogonek;
pos = (680,0);
},
{
name = top;
pos = (342,710);
}
);
layerId = m005;
shapes = (
{
closed = 1;
nodes = (
(236,0,l),
(368,638,l),
(301,638,l),
(434,0,l),
(680,0,l),
(467,710,l),
(216,710,l),
(3,0,l)
);
},
{
closed = 1;
nodes = (
(526,114,l),
(504,278,l),
(189,278,l),
(166,114,l)
);
}
);
width = 683;
}
);
unicode = 65;
},
{
glyphname = B;
lastChange = "2022-06-07 12:47:23 +0000";
layers = (
{
anchors = (
{
name = bottom;
pos = (316,0);
},
{
name = center;
pos = (316,355);
},
{
name = top;
pos = (316,710);
}
);
layerId = m01;
shapes = (
{
closed = 1;
nodes = (
(401,0,ls),
(511,0,o),
(589,78,o),
(589,203,cs),
(589,306,o),
(519,381,o),
(418,385,c),
(411,361,l),
(511,369,o),
(560,428,o),
(560,521,cs),
(560,631,o),
(487,710,o),
(378,710,cs),
(80,710,l),
(80,0,l)
);
},
{
closed = 1;
nodes = (
(180,671,l),
(127,629,l),
(370,629,ls),
(426,629,o),
(459,590,o),
(459,512,cs),
(459,438,o),
(427,399,o),
(370,399,cs),
(143,399,l),
(143,323,l),
(396,323,ls),
(452,323,o),
(488,286,o),
(488,203,cs),
(488,121,o),
(451,81,o),
(393,81,cs),
(127,81,l),
(180,39,l)
);
}
);
width = 632;
},
{
anchors = (
{
name = bottom;
pos = (334,0);
},
{
name = center;
pos = (334,355);
},
{
name = top;
pos = (334,710);
}
);
layerId = m002;
shapes = (
{
closed = 1;
nodes = (
(407,0,ls),
(522,0,o),
(605,78,o),
(605,203,cs),
(605,306,o),
(537,378,o),
(434,395,c),
(407,361,l),
(511,373,o),
(574,421,o),
(574,521,cs),
(574,631,o),
(510,710,o),
(389,710,cs),
(64,710,l),
(64,0,l)
);
},
{
closed = 1;
nodes = (
(226,671,l),
(136,587,l),
(348,587,ls),
(388,587,o),
(410,561,o),
(410,505,cs),
(410,449,o),
(388,422,o),
(348,422,cs),
(152,422,l),
(152,300,l),
(372,300,ls),
(412,300,o),
(438,275,o),
(438,212,cs),
(438,150,o),
(411,123,o),
(369,123,cs),
(136,123,l),
(226,39,l)
);
}
);
width = 638;
},
{
anchors = (
{
name = bottom;
pos = (266,4);
},
{
name = center;
pos = (343,358);
},
{
name = top;
pos = (419,711);
}
);
background = {
shapes = (
{
closed = 1;
nodes = (
(382,0,ls),
(512,0,o),
(628,78,o),
(663,203,cs),
(693,307,o),
(628,381,o),
(514,385,c),
(508,361,l),
(619,369,o),
(692,425,o),
(720,521,cs),
(751,631,o),
(688,710,o),
(559,710,cs),
(219,710,l),
(15,0,l)
);
},
{
closed = 1;
nodes = (
(308,671,l),
(251,629,l),
(536,629,ls),
(609,629,o),
(639,590,o),
(617,512,cs),
(596,438,o),
(544,399,o),
(470,399,cs),
(204,399,l),
(182,323,l),
(479,323,ls),
(552,323,o),
(587,286,o),
(563,203,cs),
(540,120,o),
(480,81,o),
(405,81,cs),
(93,81,l),
(126,39,l)
);
}
);
};
layerId = m003;
shapes = (
{
closed = 1;
nodes = (
(342,0,ls),
(470,0,o),
(577,107,o),
(577,235,cs),
(577,311,o),
(529,371,o),
(448,377,c),
(439,359,l),
(559,359,o),
(633,458,o),
(633,560,cs),
(633,645,o),
(571,710,o),
(476,710,cs),
(209,710,l),
(6,0,l)
);
},
{
closed = 1;
nodes = (
(298,671,l),
(233,629,l),
(463,629,ls),
(507,629,o),
(532,599,o),
(532,552,cs),
(532,478,o),
(486,399,o),
(409,399,cs),
(183,399,l),
(162,323,l),
(408,323,ls),
(452,323,o),
(477,295,o),
(477,246,cs),
(477,161,o),
(424,81,o),
(337,81,cs),
(76,81,l),
(117,39,l)
);
}
);
width = 634;
},
{
anchors = (
{
name = bottom;
pos = (375,0);
},
{
name = center;
pos = (348,355);
},
{
name = top;
pos = (322,710);
}
);
background = {
shapes = (
{
closed = 1;
nodes = (
(422,-3,ls),
(545,-20,o),
(654,44,o),
(689,168,cs),
(718,271,o),
(665,352,o),
(547,386,c),
(505,357,l),
(636,352,o),
(716,393,o),
(743,488,cs),
(774,597,o),
(715,687,o),
(594,704,cs),
(225,757,l),
(27,54,l)
);
},
{
closed = 1;
nodes = (
(373,695,l),
(244,627,l),
(526,587,ls),
(572,580,o),
(591,551,o),
(576,495,cs),
(560,440,o),
(526,417,o),
(480,424,cs),
(217,461,l),
(183,341,l),
(474,299,ls),
(521,292,o),
(544,263,o),
(526,201,cs),
(509,139,o),
(470,117,o),
(421,124,cs),
(115,168,l),
(197,70,l)
);
}
);
};
layerId = m004;
shapes = (
{
closed = 1;
nodes = (
(379,0,ls),
(500,0,o),
(594,121,o),
(594,228,cs),
(594,318,o),
(540,378,o),
(435,395,c),
(430,361,l),
(543,365,o),
(648,430,o),
(648,563,cs),
(648,651,o),
(584,710,o),
(462,710,cs),
(193,710,l),
(-6,0,l)
);
},
{
closed = 1;
nodes = (
(346,671,l),
(203,587,l),
(434,587,ls),
(466,587,o),
(480,568,o),
(480,530,cs),
(480,486,o),
(455,422,o),
(413,422,cs),
(174,422,l),
(140,300,l),
(366,300,ls),
(402,300,o),
(424,281,o),
(424,238,cs),
(424,186,o),
(396,123,o),
(352,123,cs),
(75,123,l),
(169,39,l)
);
}
);
width = 654;
},
{
anchors = (
{
name = bottom;
pos = (319,0);
},
{
name = center;
pos = (319,355);
},
{
name = top;
pos = (319,710);
}
);
background = {
shapes = (
{
closed = 1;
nodes = (
(75,0,l),
(454,0,l),
(470,0,o),
(503,3,o),
(552,10,c),
(589,15,o),
(617,22,o),
(635,33,c),
(665,50,o),
(688,73,o),
(706,103,c),
(723,132,o),
(731,165,o),
(731,202,c),
(731,247,o),
(719,285,o),
(695,315,c),
(671,344,o),
(634,365,o),
(583,378,c),
(616,389,o),
(642,405,o),
(659,425,c),
(685,455,o),
(698,491,o),
(698,533,c),
(698,583,o),
(680,625,o),
(643,659,c),
(607,693,o),
(554,710,o),
(486,710,c),
(75,710,l)
);
},
{
closed = 1;
nodes = (
(296,566,l),
(393,566,l),
(426,566,o),
(450,560,o),
(463,549,c),
(477,537,o),
(483,521,o),
(483,500,c),
(483,478,o),
(477,461,o),
(463,449,c),
(450,437,o),
(426,432,o),
(392,432,c),
(296,432,l)
);
},
{
closed = 1;
nodes = (
(296,296,l),
(408,296,l),
(446,296,o),
(473,290,o),
(488,277,c),
(504,265,o),
(511,248,o),
(511,227,c),
(511,204,o),
(504,186,o),
(488,173,c),
(473,159,o),
(446,153,o),
(408,153,c),
(296,153,l)
);
}
);
};
layerId = m005;
shapes = (
{
closed = 1;
nodes = (
(396,0,ls),
(527,0,o),
(624,65,o),
(624,203,cs),
(624,321,o),
(547,378,o),
(450,385,c),
(417,364,l),
(530,376,o),
(589,430,o),
(589,531,cs),
(589,635,o),
(539,710,o),
(385,710,cs),
(46,710,l),
(46,0,l)
);
},
{
closed = 1;
nodes = (
(269,671,l),
(170,565,l),
(316,565,ls),
(350,565,o),
(369,545,o),
(369,500,cs),
(369,455,o),
(350,434,o),
(316,434,cs),
(185,434,l),
(185,300,l),
(339,300,ls),
(373,300,o),
(395,280,o),
(395,230,cs),
(395,180,o),
(372,159,o),
(336,159,cs),
(170,159,l),
(269,39,l)
);
}
);
width = 637;
}
);
metricLeft = H;
unicode = 66;
},
{
glyphname = C;
lastChange = "2022-06-08 12:52:26 +0000";
layers = (
{
anchors = (
{
name = bottom;
pos = (339,0);
},
{
name = top;
pos = (339,710);
}
);
background = {
shapes = (
{
pos = (-10,0);
ref = O;
}
);
};
layerId = m01;
shapes = (
{
closed = 1;
nodes = (
(475,-12,o),
(570,66,o),
(597,215,c),
(496,239,l),
(481,124,o),
(418,77,o),
(344,77,cs),
(240,77,o),
(159,158,o),
(159,355,cs),
(159,552,o),
(239,633,o),
(339,633,cs),
(407,633,o),
(468,594,o),
(484,493,c),
(587,519,l),
(552,654,o),
(460,722,o),
(339,722,cs),
(183,722,o),
(55,594,o),
(55,355,cs),
(55,115,o),
(184,-12,o),
(344,-12,cs)
);
}
);
width = 632;
},
{
anchors = (
{
name = bottom;
pos = (329,0);
},
{
name = top;
pos = (329,710);
}
);
background = {
shapes = (
{
ref = O;
}
);
};
layerId = m002;
shapes = (
{
closed = 1;
nodes = (
(501,-12,o),
(587,76,o),
(613,214,c),
(456,254,l),
(445,168,o),
(405,131,o),
(339,131,cs),
(263,131,o),
(209,193,o),
(209,355,cs),
(209,520,o),
(265,582,o),
(335,582,cs),
(390,582,o),
(430,549,o),
(440,473,c),
(595,529,l),
(564,646,o),
(478,722,o),
(337,722,cs),
(156,722,o),
(39,576,o),
(39,355,cs),
(39,134,o),
(154,-12,o),
(344,-12,cs)
);
}
);
width = 631;
},
{
anchors = (
{
name = bottom;
pos = (271,3);
},
{
name = top;
pos = (446,709);
}
);
background = {
shapes = (
{
pos = (20,0);
ref = O;
}
);
};
layerId = m003;
shapes = (
{
closed = 1;
nodes = (
(430,-12,o),
(530,56,o),
(586,196,c),
(492,231,l),
(455,118,o),
(389,77,o),
(319,77,cs),
(240,77,o),
(174,126,o),
(174,244,cs),
(174,396,o),
(268,634,o),
(426,634,cs),
(501,634,o),
(552,593,o),
(547,492,c),
(652,518,l),
(641,658,o),
(549,722,o),
(436,722,cs),
(218,722,o),
(71,452,o),
(71,243,cs),
(71,75,o),
(176,-12,o),
(314,-12,cs)
);
}
);
width = 637;
},
{
anchors = (
{
name = bottom;
pos = (228,5);
},
{
name = top;
pos = (443,708);
}
);
background = {
shapes = (
{
pos = (29,0);
ref = O;
}
);
};
layerId = m004;
shapes = (
{
closed = 1;
nodes = (
(470,-12,o),
(556,68,o),
(621,198,c),
(460,253,l),
(429,168,o),
(386,132,o),
(331,132,cs),
(272,132,o),
(232,165,o),
(232,250,cs),
(232,369,o),
(302,581,o),
(411,581,cs),
(467,581,o),
(493,540,o),
(486,475,c),
(660,529,l),
(639,662,o),
(545,722,o),
(425,722,cs),
(212,722,o),
(61,470,o),
(61,259,cs),
(61,89,o),
(163,-12,o),
(332,-12,cs)
);
}
);
width = 653;
},
{
anchors = (
{
name = bottom;
pos = (343,0);
},
{
name = top;
pos = (333,710);
}
);
layerId = m005;
shapes = (
{
closed = 1;
nodes = (
(516,-12,o),
(603,78,o),
(618,224,c),
(415,284,l),
(408,200,o),
(383,166,o),
(336,166,cs),
(285,166,o),
(249,219,o),
(249,355,cs),
(249,495,o),
(289,547,o),
(337,547,cs),
(380,547,o),
(402,516,o),
(407,453,c),
(608,514,l),
(588,642,o),
(488,722,o),
(343,722,cs),
(121,722,o),
(18,586,o),
(18,355,cs),
(18,125,o),
(118,-12,o),
(350,-12,cs)
);
}
);
width = 625;
}
);
metricLeft = O;
unicode = 67;
},
{
glyphname = D;
lastChange = "2022-06-04 06:29:16 +0000";
layers = (
{
anchors = (
{
name = bottom;
pos = (335,0);
},
{
name = center;
pos = (151,355);
},
{
name = top;
pos = (335,710);
}
);
layerId = m01;
shapes = (
{
closed = 1;
nodes = (
(346,0,ls),
(503,0,o),
(615,142,o),
(615,354,cs),
(615,571,o),
(496,710,o),
(330,710,cs),
(80,710,l),
(80,0,l)
);
},
{
closed = 1;
nodes = (
(181,671,l),
(127,626,l),
(330,626,ls),
(440,626,o),
(511,533,o),
(511,354,cs),
(511,174,o),
(447,84,o),
(346,84,cs),
(127,84,l),
(181,39,l)
);
}
);
width = 670;
},
{
anchors = (
{
name = bottom;
pos = (315,0);
},
{
name = center;
pos = (150,355);
},
{
name = top;
pos = (315,710);
}
);
background = {
shapes = (
{
pos = (-59,0);
ref = O;
}
);
};
layerId = m002;
shapes = (
{
closed = 1;
nodes = (
(362,0,ls),
(506,0,o),
(609,135,o),
(609,354,cs),
(609,580,o),
(495,710,o),
(337,710,cs),
(64,710,l),
(64,0,l)
);
},
{
closed = 1;
nodes = (
(231,671,l),
(110,580,l),
(315,580,ls),
(390,580,o),
(439,518,o),
(439,354,cs),
(439,190,o),
(397,132,o),
(331,132,cs),
(110,132,l),
(231,39,l)
);
}
);
width = 648;
},
{
anchors = (
{
name = bottom;
pos = (268,7);
},
{
name = center;
pos = (181,360);
},
{
name = top;
pos = (420,713);
}
);
layerId = m003;
shapes = (
{
closed = 1;
nodes = (
(301,0,ls),
(511,0,o),
(655,257,o),
(655,456,cs),
(655,601,o),
(580,710,o),
(437,710,cs),
(209,710,l),
(6,0,l)
);
},
{
closed = 1;
nodes = (
(299,671,l),
(233,629,l),
(425,629,ls),
(505,629,o),
(553,562,o),
(553,459,cs),
(553,319,o),
(464,84,o),
(308,84,cs),
(77,84,l),
(118,39,l)
);
}
);
width = 673;
},
{
anchors = (
{
name = bottom;
pos = (386,0);
},
{
name = center;
pos = (191,355);
},
{
name = top;
pos = (333,710);
}
);
background = {
shapes = (
{
pos = (-49,0);
ref = O;
}
);
};
layerId = m004;
shapes = (
{
closed = 1;
nodes = (
(296,0,ls),
(500,0,o),
(641,264,o),
(641,465,cs),
(641,622,o),
(565,710,o),
(444,710,cs),
(193,710,l),
(-6,0,l)
);
},
{
closed = 1;
nodes = (
(353,671,l),
(201,580,l),
(414,580,ls),
(449,580,o),
(468,551,o),
(468,478,cs),
(468,376,o),
(412,132,o),
(316,132,cs),
(76,132,l),
(177,39,l)
);
}
);
width = 647;
},
{
anchors = (
{
name = bottom;
pos = (288,0);
},
{
name = center;
pos = (134,355);
},
{
name = top;
pos = (288,710);
}
);
layerId = m005;
shapes = (
{
closed = 1;
nodes = (
(391,0,ls),
(523,0,o),
(617,135,o),
(617,354,cs),
(617,579,o),
(505,710,o),
(349,710,cs),
(46,710,l),
(46,0,l)
);
},
{
closed = 1;
nodes = (
(275,671,l),
(90,550,l),
(283,550,ls),
(345,550,o),
(386,517,o),
(386,354,cs),
(386,190,o),
(352,164,o),
(298,164,cs),
(90,164,l),
(275,39,l)
);
}
);
width = 635;
}
);
metricLeft = H;
metricRight = O;
unicode = 68;
},
{
glyphname = E;
lastChange = "2022-06-07 12:47:11 +0000";
layers = (
{
anchors = (
{
name = bottom;
pos = (308,0);
},
{
name = ogonek;
pos = (561,0);
},
{
name = top;
pos = (308,710);
},
{
name = topleft;
pos = (24,710);
}
);
layerId = m01;
shapes = (
{
closed = 1;
nodes = (
(561,0,l),
(561,84,l),
(127,84,l),
(181,39,l),
(181,671,l),
(127,626,l),
(544,626,l),
(544,710,l),
(80,710,l),
(80,0,l)
);
},
{
closed = 1;
nodes = (
(535,335,l),
(535,419,l),
(133,419,l),
(133,335,l)
);
}
);
width = 617;
},
{
anchors = (
{
name = bottom;
pos = (282,0);
},
{
name = ogonek;
pos = (521,0);
},
{
name = top;
pos = (282,710);
},
{
name = topleft;
pos = (18,710);
}
);
layerId = m002;
shapes = (
{
closed = 1;
nodes = (
(543,0,l),
(543,130,l),
(110,130,l),
(228,39,l),
(228,671,l),
(110,580,l),
(531,580,l),
(531,710,l),
(64,710,l),
(64,0,l)
);
},
{
closed = 1;
nodes = (
(518,305,l),
(518,429,l),
(115,429,l),
(115,305,l)
);
}
);
width = 584;
},
{
anchors = (
{
name = bottom;
pos = (234,0);
},
{
name = ogonek;
pos = (487,0);
},
{
name = top;
pos = (437,710);
},
{
name = topleft;
pos = (153,710);
}
);
layerId = m003;
shapes = (
{
closed = 1;
nodes = (
(487,0,l),
(511,84,l),
(77,84,l),
(119,39,l),
(300,671,l),
(232,626,l),
(649,626,l),
(673,710,l),
(209,710,l),
(6,0,l)
);
},
{
closed = 1;
nodes = (
(557,335,l),
(581,419,l),
(178,419,l),
(154,335,l)
);
}
);
width = 620;
},
{
anchors = (
{
name = bottom;
pos = (209,0);
},
{
name = ogonek;
pos = (443,0);
},
{
name = top;
pos = (408,710);
},
{
name = topleft;
pos = (154,710);
}
);
layerId = m004;
shapes = (
{
closed = 1;
nodes = (
(443,0,l),
(480,130,l),
(77,130,l),
(174,39,l),
(351,671,l),
(202,580,l),
(588,580,l),
(625,710,l),
(193,710,l),
(-6,0,l)
);
},
{
closed = 1;
nodes = (
(503,305,l),
(538,429,l),
(166,429,l),
(131,305,l)
);
}
);
width = 578;
},
{
anchors = (
{
name = bottom;
pos = (285,0);
},
{
name = ogonek;
pos = (513,10);
},
{
name = top;
pos = (285,710);
},
{
name = topleft;
pos = (20,710);
}
);
layerId = m005;
shapes = (
{
closed = 1;
nodes = (
(550,0,l),
(550,160,l),
(90,160,l),
(271,39,l),
(271,671,l),
(90,550,l),
(547,550,l),
(547,710,l),
(46,710,l),
(46,0,l)
);
},
{
closed = 1;
nodes = (
(526,291,l),
(526,439,l),
(96,439,l),
(96,291,l)
);
}
);
width = 570;
}
);
metricLeft = H;
unicode = 69;
},
{
glyphname = F;
lastChange = "2022-06-08 04:31:08 +0000";
layers = (
{
anchors = (
{
name = bottom;
pos = (288,0);
},
{
name = top;
pos = (288,710);
}
);
layerId = m01;
shapes = (
{
closed = 1;
nodes = (
(181,0,l),
(181,671,l),
(127,624,l),
(548,624,l),
(548,710,l),
(80,710,l),
(80,0,l)
);
},
{
closed = 1;
nodes = (
(525,328,l),
(525,414,l),
(133,414,l),
(133,328,l)
);
}
);
width = 577;
},
{
anchors = (
{
name = bottom;
pos = (277,0);
},
{
name = top;
pos = (277,710);
}
);
layerId = m002;
shapes = (
{
closed = 1;
nodes = (
(231,0,l),
(231,671,l),
(114,580,l),
(526,580,l),
(526,710,l),
(64,710,l),
(64,0,l)
);
},
{
closed = 1;
nodes = (
(500,304,l),
(500,434,l),
(120,434,l),
(120,304,l)
);
}
);
width = 551;
},
{
anchors = (
{
name = bottom;
pos = (215,0);
},
{
name = top;
pos = (418,710);
}
);
layerId = m003;
shapes = (
{
closed = 1;
nodes = (
(109,0,l),
(301,671,l),
(232,624,l),
(653,624,l),
(678,710,l),
(209,710,l),
(6,0,l)
);
},
{
closed = 1;
nodes = (
(546,328,l),
(570,414,l),
(178,414,l),
(153,328,l)
);
}
);
width = 578;
},
{
anchors = (
{
name = bottom;
pos = (211,0);
},
{
name = top;
pos = (410,710);
}
);
layerId = m004;
shapes = (
{
closed = 1;
nodes = (
(170,0,l),
(358,671,l),
(207,580,l),
(618,580,l),
(655,710,l),
(193,710,l),
(-6,0,l)
);
},
{
closed = 1;
nodes = (
(530,304,l),
(565,434,l),
(172,434,l),
(136,304,l)
);
}
);
width = 559;
},
{
anchors = (
{
name = bottom;
pos = (177,0);
},
{
name = top;
pos = (262,710);
}
);
background = {
shapes = (
{
closed = 1;
nodes = (
(79,711,l),
(79,0,l),
(300,0,l),
(300,290,l),
(575,290,l),
(575,434,l),
(300,434,l),
(300,558,l),
(622,558,l),
(622,711,l)
);
}
);
};
layerId = m005;
shapes = (
{
closed = 1;
nodes = (
(275,0,l),
(275,671,l),
(103,540,l),
(510,540,l),
(510,710,l),
(46,710,l),
(46,0,l)
);
},
{
closed = 1;
nodes = (
(469,270,l),
(469,424,l),
(109,424,l),
(109,270,l)
);
}
);
width = 525;
}
);
metricLeft = H;
unicode = 70;
},
{
glyphname = G;
lastChange = "2022-06-04 06:29:16 +0000";
layers = (
{
anchors = (
{
name = bottom;
pos = (346,0);
},
{
name = top;
pos = (346,710);
}
);
background = {
shapes = (
{
ref = C;
}
);
};
layerId = m01;
shapes = (
{
closed = 1;
nodes = (
(446,-12,o),
(512,16,o),
(585,71,c),
(585,411,l),
(281,411,l),
(281,325,l),
(541,327,l),
(489,373,l),
(489,100,l),
(519,138,l),
(472,94,o),
(421,75,o),
(356,75,cs),
(239,75,o),
(159,152,o),
(159,354,cs),
(159,557,o),
(240,636,o),
(347,636,cs),
(420,636,o),
(471,600,o),
(485,534,c),
(584,570,l),
(558,660,o),
(471,722,o),
(347,722,cs),
(185,722,o),
(55,598,o),
(55,354,cs),
(55,110,o),
(184,-12,o),
(356,-12,cs)
);
}
);
width = 652;
},
{
anchors = (
{
name = bottom;
pos = (344,0);
},
{
name = top;
pos = (344,710);
}
);
background = {
shapes = (
{
ref = C;
}
);
};
layerId = m002;
shapes = (
{
closed = 1;
nodes = (
(436,-12,o),
(511,10,o),
(601,65,c),
(601,408,l),
(306,408,l),
(306,280,l),
(541,282,l),
(457,344,l),
(457,98,l),
(490,164,l),
(451,136,o),
(403,124,o),
(358,124,cs),
(257,124,o),
(206,191,o),
(206,358,cs),
(206,526,o),
(264,585,o),
(338,585,cs),
(390,585,o),
(428,566,o),
(440,518,c),
(602,564,l),
(573,663,o),
(485,722,o),
(336,722,cs),
(158,722,o),
(39,580,o),
(39,358,cs),
(39,136,o),
(149,-12,o),
(358,-12,cs)
);
}
);
width = 655;
},
{
anchors = (
{
name = bottom;
pos = (338,0);
},
{
name = top;
pos = (415,710);
}
);
background = {
shapes = (
{
pos = (30,0);
ref = C;
}
);
};
layerId = m003;
shapes = (
{
closed = 1;
nodes = (
(402,-12,o),
(467,15,o),
(542,65,c),
(647,432,l),
(340,432,l),
(315,346,l),
(580,348,l),
(540,394,l),
(450,79,l),
(487,129,l),
(439,92,o),
(394,74,o),
(343,74,cs),
(253,74,o),
(174,119,o),
(174,248,cs),
(174,389,o),
(265,637,o),
(444,637,cs),
(522,637,o),
(569,604,o),
(572,527,c),
(675,553,l),
(655,672,o),
(562,722,o),
(452,722,cs),
(218,722,o),
(71,451,o),
(71,246,cs),
(71,74,o),
(182,-12,o),
(330,-12,cs)
);
}
);
width = 665;
},
{
anchors = (
{
name = bottom;
pos = (234,-1);
},
{
name = top;
pos = (520,702);
}
);
background = {
shapes = (
{
pos = (29,0);
ref = C;
}
);
};
layerId = m004;
shapes = (
{
closed = 1;
nodes = (
(410,-12,o),
(475,8,o),
(559,49,c),
(669,450,l),
(361,450,l),
(326,325,l),
(593,325,l),
(492,356,l),
(415,85,l),
(477,163,l),
(444,135,o),
(404,124,o),
(373,124,cs),
(328,124,o),
(234,143,o),
(234,265,cs),
(234,370,o),
(306,584,o),
(445,584,cs),
(482,584,o),
(522,568,o),
(526,522,c),
(692,574,l),
(663,681,o),
(569,722,o),
(458,722,cs),
(221,722,o),
(62,476,o),
(62,271,cs),
(62,80,o),
(203,-12,o),
(356,-12,cs)
);
}
);
width = 688;
},
{
anchors = (
{
name = bottom;
pos = (334,0);
},
{
name = top;
pos = (334,710);
}
);
background = {
shapes = (
{
closed = 1;
nodes = (
(563,255,l),
(563,190,l),
(535,173,o),
(510,161,o),
(488,154,c),
(466,147,o),
(443,143,o),
(419,143,c),
(368,143,o),
(328,159,o),
(299,192,c),
(271,224,o),
(257,278,o),
(257,354,c),
(257,426,o),
(271,478,o),
(299,511,c),
(327,544,o),
(365,560,o),
(412,560,c),
(444,560,o),
(470,553,o),
(491,539,c),
(511,525,o),
(526,505,o),
(535,478,c),
(743,516,l),
(730,561,o),
(711,598,o),
(686,628,c),
(661,657,o),
(629,679,o),
(591,693,c),
(552,707,o),
(494,714,o),
(417,714,c),
(337,714,o),
(273,702,o),
(226,680,c),
(165,651,o),
(119,608,o),
(87,551,c),
(56,495,o),
(40,428,o),
(40,352,c),
(40,279,o),
(54,215,o),
(83,159,c),
(112,103,o),
(153,61,o),
(205,32,c),
(257,4,o),
(325,-10,o),
(408,-10,c),
(476,-10,o),
(534,-2,o),
(583,14,c),
(632,29,o),
(689,59,o),
(753,103,c),
(753,401,l),
(419,401,l),
(419,255,l)
);
}
);
};
layerId = m005;
shapes = (
{
closed = 1;
nodes = (
(430,-12,o),
(513,11,o),
(614,65,c),
(614,428,l),
(326,428,l),
(326,280,l),
(520,282,l),
(428,364,l),
(428,98,l),
(463,201,l),
(429,174,o),
(382,162,o),
(346,162,cs),
(271,162,o),
(240,218,o),
(240,358,cs),
(240,499,o),
(278,549,o),
(325,549,cs),
(361,549,o),
(390,527,o),
(399,473,c),
(615,542,l),
(589,655,o),
(502,722,o),
(321,722,cs),
(120,722,o),
(18,579,o),
(18,358,cs),
(18,136,o),
(109,-12,o),
(346,-12,cs)
);
}
);
width = 639;
}
);
metricLeft = O;
unicode = 71;
},
{
glyphname = H;
lastChange = "2022-06-07 12:47:43 +0000";
layers = (
{
anchors = (
{
name = bottom;
pos = (350,0);
},
{
name = center;
pos = (350,355);
},
{
name = top;
pos = (350,710);
},
{
name = topleft;
pos = (24,710);
}
);
layerId = m01;
shapes = (
{
closed = 1;
nodes = (
(620,0,l),
(620,710,l),
(519,710,l),
(519,0,l)
);
},
{
closed = 1;
nodes = (
(181,0,l),
(181,710,l),
(80,710,l),
(80,0,l)
);
},
{
closed = 1;
nodes = (
(570,331,l),
(570,419,l),
(133,419,l),
(133,331,l)
);
}
);
width = 700;
},
{
anchors = (
{
name = bottom;
pos = (334,0);
},
{
name = center;
pos = (334,355);
},
{
name = top;
pos = (334,710);
},
{
name = topleft;
pos = (14,710);
}
);
layerId = m002;
shapes = (
{
closed = 1;
nodes = (
(621,0,l),
(621,710,l),
(454,710,l),
(454,0,l)
);
},
{
closed = 1;
nodes = (
(231,0,l),
(231,710,l),
(64,710,l),
(64,0,l)
);
},
{
closed = 1;
nodes = (
(546,305,l),
(546,437,l),
(115,437,l),
(115,305,l)
);
}
);
width = 685;
},
{
anchors = (
{
name = bottom;
pos = (276,0);
},
{
name = center;
pos = (378,355);
},
{
name = top;
pos = (479,710);
},
{
name = topleft;
pos = (153,710);
}
);
layerId = m003;
shapes = (
{
closed = 1;
nodes = (
(548,0,l),
(751,710,l),
(648,710,l),
(445,0,l)
);
},
{
closed = 1;
nodes = (
(109,0,l),
(312,710,l),
(209,710,l),
(6,0,l)
);
},
{
closed = 1;
nodes = (
(591,331,l),
(616,419,l),
(178,419,l),
(153,331,l)
);
}
);
width = 703;
},
{
anchors = (
{
name = bottom;
pos = (268,0);
},
{
name = center;
pos = (368,355);
},
{
name = top;
pos = (467,710);
},
{
name = topleft;
pos = (154,710);
}
);
layerId = m004;
shapes = (
{
closed = 1;
nodes = (
(547,0,l),
(746,710,l),
(569,710,l),
(371,0,l)
);
},
{
closed = 1;
nodes = (
(170,0,l),
(369,710,l),
(193,710,l),
(-6,0,l)
);
},
{
closed = 1;
nodes = (
(579,305,l),
(616,437,l),
(168,437,l),
(131,305,l)
);
}
);
width = 688;
},
{
anchors = (
{
name = bottom;
pos = (335,0);
},
{
name = center;
pos = (335,355);
},
{
name = top;
pos = (335,710);
},
{
name = topleft;
pos = (46,710);
}
);
layerId = m005;
shapes = (
{
closed = 1;
nodes = (
(623,0,l),
(623,710,l),
(394,710,l),
(394,0,l)
);
},
{
closed = 1;
nodes = (
(275,0,l),
(275,710,l),
(46,710,l),
(46,0,l)
);
},
{
closed = 1;
nodes = (
(496,285,l),
(496,457,l),
(96,457,l),
(96,285,l)
);
}
);
width = 669;
}
);
unicode = 72;
},
{
glyphname = I;
lastChange = "2022-06-08 08:21:28 +0000";
layers = (
{
anchors = (
{
name = bottom;
pos = (131,0);
},
{
name = ogonek;
pos = (181,0);
},
{
name = top;
pos = (131,710);
},
{
name = topleft;
pos = (24,710);
}
);
layerId = m01;
shapes = (
{
closed = 1;
nodes = (
(181,0,l),
(181,710,l),
(80,710,l),
(80,0,l)
);
}
);
width = 261;
},
{
anchors = (
{
name = bottom;
pos = (148,0);
},
{
name = ogonek;
pos = (231,0);
},
{
name = top;
pos = (148,710);
},
{
name = topleft;
pos = (42,710);
}
);
layerId = m002;
shapes = (
{
closed = 1;
nodes = (
(231,0,l),
(231,710,l),
(64,710,l),
(64,0,l)
);
}
);
width = 295;
},
{
anchors = (
{
name = bottom;
pos = (57,0);
},
{
name = ogonek;
pos = (107,0);
},
{
name = top;
pos = (260,710);
},
{
name = topleft;
pos = (153,710);
}
);
layerId = m003;
shapes = (
{
closed = 1;
nodes = (
(108,0,l),
(311,710,l),
(209,710,l),
(6,0,l)
);
}
);
width = 263;
},
{
anchors = (
{
name = bottom;
pos = (80,0);
},
{
name = ogonek;
pos = (166,0);
},
{
name = top;
pos = (279,710);
},
{
name = topleft;
pos = (154,710);
}
);
layerId = m004;
shapes = (
{
closed = 1;
nodes = (
(165,0,l),
(364,710,l),
(193,710,l),
(-6,0,l)
);
}
);
width = 306;
},
{
anchors = (
{
name = bottom;
pos = (160,0);
},
{
name = ogonek;
pos = (275,0);
},
{
name = top;
pos = (160,710);
},
{
name = topleft;
pos = (46,710);
}
);
layerId = m005;
shapes = (
{
closed = 1;
nodes = (
(275,0,l),
(275,710,l),
(46,710,l),
(46,0,l)
);
}
);
width = 321;
}
);
metricLeft = H;
metricRight = H;
unicode = 73;
},
{
glyphname = J;
lastChange = "2022-06-07 12:47:49 +0000";
layers = (
{
anchors = (
{
name = bottom;
pos = (260,0);
},
{
name = top;
pos = (393,710);
}
);
layerId = m01;
shapes = (
{
closed = 1;
nodes = (
(373,-12,o),
(444,58,o),
(444,176,cs),
(444,710,l),
(342,710,l),
(342,178,ls),
(342,106,o),
(310,76,o),
(230,76,cs),
(160,76,o),
(137,98,o),
(137,142,cs),
(137,150,o),
(137,158,o),
(141,176,c),
(36,160,l),
(32,143,o),
(32,137,o),
(32,131,cs),
(32,44,o),
(89,-12,o),
(229,-12,cs)
);
}
);
width = 520;
},
{
associatedMasterId = m01;
layerId = "0540A522-87FD-412E-A1B1-A5659B623883";
name = "24 Oct 21, 11:14";
shapes = (
{
closed = 1;
nodes = (
(468,-12,o),
(576,69,o),
(576,206,cs),
(576,710,l),
(476,710,l),
(476,218,ls),
(476,118,o),
(409,76,o),
(298,76,cs),
(187,76,o),
(120,118,o),
(120,218,cs),
(120,320,l),
(20,240,l),
(20,206,ls),
(20,69,o),
(128,-12,o),
(298,-12,cs)
);
}
);
width = 661;
},
{
anchors = (
{
name = bottom;
pos = (269,0);
},
{
name = top;
pos = (394,710);
}
);
layerId = m002;
shapes = (
{
closed = 1;
nodes = (
(409,-12,o),
(477,59,o),
(477,175,cs),
(477,710,l),
(310,710,l),
(310,187,ls),
(310,141,o),
(292,118,o),
(242,118,cs),
(204,118,o),
(185,132,o),
(185,160,cs),
(185,164,o),
(186,171,o),
(188,183,c),
(22,167,l),
(20,160,o),
(19,151,o),
(19,143,cs),
(19,49,o),
(74,-12,o),
(240,-12,cs)
);
}
);
width = 536;
},
{
associatedMasterId = m002;
layerId = "0A05C5B7-2802-45E9-9ECB-CED55EB2598E";
name = "24 Oct 21, 11:14";
shapes = (
{
closed = 1;
nodes = (
(468,-12,o),
(576,69,o),
(576,206,cs),
(576,710,l),
(476,710,l),
(476,218,ls),
(476,118,o),
(409,76,o),
(298,76,cs),
(187,76,o),
(120,118,o),
(120,218,cs),
(120,320,l),
(20,240,l),
(20,206,ls),
(20,69,o),
(128,-12,o),
(298,-12,cs)
);
}
);
width = 661;
},
{
anchors = (
{
name = bottom;
pos = (193,0);
},
{
name = top;
pos = (520,710);
}
);
layerId = m003;
shapes = (
{
closed = 1;
nodes = (
(308,-11,o),
(390,44,o),
(419,147,cs),
(578,710,l),
(476,710,l),
(324,169,ls),
(306,104,o),
(261,77,o),
(204,77,cs),
(141,77,o),
(105,94,o),
(105,127,cs),
(105,137,o),
(110,153,o),
(116,166,c),
(25,196,l),
(10,172,o),
(2,145,o),
(2,118,cs),
(2,26,o),
(92,-11,o),
(199,-11,cs)
);
}
);
width = 522;
},
{
associatedMasterId = m003;
layerId = "F34D46EA-8374-4AE2-946E-6CBBD209188E";
name = "24 Oct 21, 11:14";
shapes = (
{
closed = 1;
nodes = (
(468,-12,o),
(576,69,o),
(576,206,cs),
(576,710,l),
(476,710,l),
(476,218,ls),
(476,118,o),
(409,76,o),
(298,76,cs),
(187,76,o),
(120,118,o),
(120,218,cs),
(120,320,l),
(20,240,l),
(20,206,ls),
(20,69,o),
(128,-12,o),
(298,-12,cs)
);
}
);
width = 661;
},
{
anchors = (
{
name = bottom;
pos = (199,0);
},
{
name = top;
pos = (520,682);
}
);
layerId = m004;
shapes = (
{
closed = 1;
nodes = (
(371,-13,o),
(420,44,o),
(447,140,cs),
(607,710,l),
(436,710,l),
(284,176,ls),
(273,138,o),
(275,118,o),
(246,118,cs),
(199,118,o),
(166,131,o),
(166,161,cs),
(166,173,o),
(171,181,o),
(180,196,c),
(23,229,l),
(-2,203,o),
(-13,170,o),
(-13,132,cs),
(-13,32,o),
(87,-13,o),
(259,-13,cs)
);
}
);
width = 515;
},
{
associatedMasterId = m004;
layerId = "44338541-2CAA-4849-A5DF-4217649DE200";
name = "24 Oct 21, 11:14";
shapes = (
{
closed = 1;
nodes = (
(468,-12,o),
(576,69,o),
(576,206,cs),
(576,710,l),
(476,710,l),
(476,218,ls),
(476,118,o),
(409,76,o),
(298,76,cs),
(187,76,o),
(120,118,o),
(120,218,cs),
(120,320,l),
(20,240,l),
(20,206,ls),
(20,69,o),
(128,-12,o),
(298,-12,cs)
);
}
);
width = 661;
},
{
anchors = (
{
name = bottom;
pos = (246,0);
},
{
name = top;
pos = (593,710);
}
);
associatedMasterId = m003;
layerId = "04F6ADA0-80C9-4EB3-99F5-3F5862434867";
name = "16 Feb 22, 15:04";
shapes = (
{
closed = 1;
nodes = (
(365,-11,o),
(461,54,o),
(494,172,cs),
(646,710,l),
(545,710,l),
(400,194,ls),
(377,112,o),
(322,77,o),
(248,77,cs),
(161,77,o),
(115,107,o),
(115,165,cs),
(115,187,o),
(131,218,o),
(148,233,c),
(60,271,l),
(31,239,o),
(13,190,o),
(13,150,cs),
(13,35,o),
(124,-11,o),
(239,-11,cs)
);
}
);
width = 612;
},
{
anchors = (
{
name = bottom;
pos = (315,0);
},
{
name = top;
pos = (465,710);
}
);
associatedMasterId = m002;
layerId = "F5FBA4F0-CF80-4034-9D2C-65E584F41E5F";
name = "16 Feb 22, 15:05";
shapes = (
{
closed = 1;
nodes = (
(453,-12,o),
(550,61,o),
(550,186,cs),
(550,710,l),
(380,710,l),
(380,198,ls),
(380,142,o),
(353,118,o),
(291,118,cs),
(231,118,o),
(198,148,o),
(198,210,cs),
(198,220,o),
(199,231,o),
(203,253,c),
(29,237,l),
(25,216,o),
(25,206,o),
(25,197,cs),
(25,68,o),
(127,-12,o),
(299,-12,cs)
);
}
);
width = 630;
},
{
anchors = (
{
name = bottom;
pos = (271,0);
},
{
name = top;
pos = (406,710);
}
);
layerId = m005;
shapes = (
{
closed = 1;
nodes = (
(450,-12,o),
(520,69,o),
(520,216,cs),
(520,710,l),
(292,710,l),
(292,225,ls),
(292,169,o),
(279,156,o),
(258,156,cs),
(237,156,o),
(230,167,o),
(230,193,cs),
(230,199,o),
(230,206,o),
(231,218,c),
(14,234,l),
(11,220,o),
(10,204,o),
(10,191,cs),
(10,56,o),
(78,-12,o),
(259,-12,cs)
);
}
);
width = 560;
},
{
associatedMasterId = m005;
layerId = "763E0B54-9B58-464F-800A-70285FD01A55";
name = "24 Oct 21, 11:14";
shapes = (
{
closed = 1;
nodes = (
(468,-12,o),
(576,69,o),
(576,206,cs),
(576,710,l),
(476,710,l),
(476,218,ls),
(476,118,o),
(409,76,o),
(298,76,cs),
(187,76,o),
(120,118,o),
(120,218,cs),
(120,320,l),
(20,240,l),
(20,206,ls),
(20,69,o),
(128,-12,o),
(298,-12,cs)
);
}
);
width = 661;
},
{
anchors = (
{
name = bottom;
pos = (315,0);
},
{
name = top;
pos = (465,710);
}
);
associatedMasterId = m005;
layerId = "EF8FE261-1FFC-4365-B50E-942363AF9F5A";
name = "16 Feb 22, 15:05";
shapes = (
{
closed = 1;
nodes = (
(453,-12,o),
(550,61,o),
(550,186,cs),
(550,710,l),
(380,710,l),
(380,198,ls),
(380,142,o),
(353,118,o),
(291,118,cs),
(231,118,o),
(198,148,o),
(198,210,cs),
(198,220,o),
(199,231,o),
(203,253,c),
(29,237,l),
(25,216,o),
(25,206,o),
(25,197,cs),
(25,68,o),
(127,-12,o),
(299,-12,cs)
);
}
);
width = 630;
}
);
metricRight = U;
unicode = 74;
},
{
glyphname = K;
lastChange = "2022-06-07 12:47:52 +0000";
layers = (
{
anchors = (
{
name = bottom;
pos = (293,0);
},
{
name = top;
pos = (293,710);
}
);
layerId = m01;
shapes = (
{
closed = 1;
nodes = (
(574,710,l),
(453,710,l),
(119,287,l),
(130,162,l)
);
},
{
closed = 1;
nodes = (
(181,0,l),
(181,710,l),
(80,710,l),
(80,0,l)
);
},
{
closed = 1;
nodes = (
(585,0,l),
(323,464,l),
(248,391,l),
(462,0,l)
);
}
);
width = 586;
},
{
anchors = (
{
name = bottom;
pos = (328,0);
},
{
name = top;
pos = (328,710);
}
);
layerId = m002;
shapes = (
{
closed = 1;
nodes = (
(644,710,l),
(437,710,l),
(128,307,l),
(198,182,l)
);
},
{
closed = 1;
nodes = (
(231,0,l),
(231,710,l),
(64,710,l),
(64,0,l)
);
},
{
closed = 1;
nodes = (
(653,0,l),
(411,504,l),
(271,411,l),
(448,0,l)
);
}
);
width = 660;
},
{
anchors = (
{
name = bottom;
pos = (220,0);
},
{
name = top;
pos = (423,710);
}
);
layerId = m003;
shapes = (
{
closed = 1;
nodes = (
(710,710,l),
(579,710,l),
(125,287,l),
(109,162,l)
);
},
{
closed = 1;
nodes = (
(108,0,l),
(311,710,l),
(209,710,l),
(6,0,l)
);
},
{
closed = 1;
nodes = (
(506,0,l),
(378,464,l),
(295,391,l),
(395,0,l)
);
}
);
width = 581;
},
{
anchors = (
{
name = bottom;
pos = (258,0);
},
{
name = top;
pos = (457,710);
}
);
layerId = m004;
shapes = (
{
closed = 1;
nodes = (
(783,710,l),
(565,710,l),
(126,307,l),
(181,182,l)
);
},
{
closed = 1;
nodes = (
(171,0,l),
(370,710,l),
(193,710,l),
(-6,0,l)
);
},
{
closed = 1;
nodes = (
(571,0,l),
(502,504,l),
(339,411,l),
(380,0,l)
);
}
);
width = 670;
},
{
anchors = (
{
name = bottom;
pos = (356,0);
},
{
name = top;
pos = (356,710);
}
);
background = {
shapes = (
{
closed = 1;
nodes = (
(816,710,l),
(529,710,l),
(176,297,l),
(279,162,l)
);
},
{
closed = 1;
nodes = (
(300,0,l),
(300,710,l),
(70,710,l),
(70,0,l)
);
},
{
closed = 1;
nodes = (
(836,0,l),
(531,504,l),
(338,411,l),
(552,0,l)
);
}
);
};
layerId = m005;
shapes = (
{
closed = 1;
nodes = (
(692,710,l),
(414,710,l),
(143,277,l),
(259,142,l)
);
},
{
closed = 1;
nodes = (
(275,0,l),
(275,710,l),
(46,710,l),
(46,0,l)
);
},
{
closed = 1;
nodes = (
(706,0,l),
(464,504,l),
(268,411,l),
(429,0,l)
);
}
);
width = 711;
}
);
metricLeft = H;
unicode = 75;
},
{
glyphname = L;
lastChange = "2022-06-08 11:56:02 +0000";
layers = (
{
anchors = (
{
name = bottom;
pos = (266,0);
},
{
name = center;
pos = (153,355);
},
{
name = top;
pos = (131,710);
},
{
name = topright;
pos = (181,710);
}
);
layerId = m01;
shapes = (
{
closed = 1;
nodes = (
(521,0,l),
(521,88,l),
(136,88,l),
(181,43,l),
(181,710,l),
(80,710,l),
(80,0,l)
);
}
);
width = 534;
},
{
anchors = (
{
name = bottom;
pos = (275,0);
},
{
name = center;
pos = (165,380);
},
{
name = top;
pos = (148,710);
},
{
name = topright;
pos = (231,710);
}
);
layerId = m002;
shapes = (
{
closed = 1;
nodes = (
(513,0,l),
(513,136,l),
(168,136,l),
(231,43,l),
(231,710,l),
(64,710,l),
(64,0,l)
);
}
);
width = 531;
},
{
anchors = (
{
name = bottom;
pos = (193,0);
},
{
name = center;
pos = (182,355);
},
{
name = top;
pos = (261,710);
},
{
name = topright;
pos = (311,710);
}
);
layerId = m003;
shapes = (
{
closed = 1;
nodes = (
(447,0,l),
(472,88,l),
(88,88,l),
(122,43,l),
(312,710,l),
(209,710,l),
(6,0,l)
);
}
);
width = 535;
},
{
anchors = (
{
name = bottom;
pos = (186,0);
},
{
name = center;
pos = (205,380);
},
{
name = top;
pos = (284,710);
},
{
name = topright;
pos = (370,710);
}
);
layerId = m004;
shapes = (
{
closed = 1;
nodes = (
(419,0,l),
(457,136,l),
(132,136,l),
(182,43,l),
(369,710,l),
(193,710,l),
(-6,0,l)
);
}
);
width = 515;
},
{
anchors = (
{
name = bottom;
pos = (280,0);
},
{
name = center;
pos = (176,380);
},
{
name = top;
pos = (160,710);
},
{
name = topright;
pos = (275,710);
}
);
layerId = m005;
shapes = (
{
closed = 1;
nodes = (
(528,0,l),
(528,176,l),
(208,176,l),
(275,43,l),
(275,710,l),
(46,710,l),
(46,0,l)
);
}
);
width = 551;
}
);
metricLeft = H;
unicode = 76;
},
{
glyphname = M;
lastChange = "2022-06-07 12:47:58 +0000";
layers = (
{
anchors = (
{
name = bottom;
pos = (412,0);
},
{
name = top;
pos = (412,710);
}
);
guides = (
{
pos = (12,323);
showMeasurement = 1;
},
{
pos = (632,581);
}
);
layerId = m01;
shapes = (
{
closed = 1;
nodes = (
(131,0,l),
(224,657,l),
(188,657,l),
(354,0,l),
(464,0,l),
(629,657,l),
(593,657,l),
(685,0,l),
(788,0,l),
(680,710,l),
(555,710,l),
(395,82,l),
(430,82,l),
(270,710,l),
(144,710,l),
(36,0,l)
);
}
);
width = 824;
},
{
anchors = (
{
name = bottom;
pos = (409,0);
},
{
name = top;
pos = (409,710);
}
);
guides = (
{
pos = (46,323);
showMeasurement = 1;
}
);
layerId = m002;
shapes = (
{
closed = 1;
nodes = (
(189,0,l),
(245,630,l),
(192,627,l),
(338,0,l),
(495,0,l),
(640,627,l),
(590,630,l),
(646,0,l),
(804,0,l),
(727,710,l),
(527,710,l),
(393,82,l),
(448,82,l),
(314,710,l),
(112,710,l),
(35,0,l)
);
}
);
width = 839;
},
{
associatedMasterId = m002;
guides = (
{
pos = (-159,323);
showMeasurement = 1;
}
);
layerId = "A8D1D7E6-D840-4C3D-B98A-753C64AEC996";
name = "13 Dec 21, 12:36";
shapes = (
{
closed = 1;
nodes = (
(146,0,l),
(281,630,l),
(206,627,l),
(365,0,l),
(531,0,l),
(689,627,l),
(615,630,l),
(750,0,l),
(897,0,l),
(744,710,l),
(580,710,l),
(422,82,l),
(486,82,l),
(327,710,l),
(159,710,l),
(6,0,l)
);
}
);
width = 903;
},
{
associatedMasterId = m01;
guides = (
{
pos = (-106,323);
showMeasurement = 1;
}
);
layerId = "6CDA736A-4AA9-4883-858B-629E57D89FB4";
name = "13 Dec 21, 12:38";
shapes = (
{
closed = 1;
nodes = (
(101,0,l),
(261,630,l),
(224,627,l),
(419,0,l),
(520,0,l),
(715,627,l),
(678,630,l),
(838,0,l),
(934,0,l),
(754,710,l),
(655,710,l),
(460,82,l),
(486,82,l),
(290,710,l),
(187,710,l),
(7,0,l)
);
}
);
width = 941;
},
{
anchors = (
{
name = bottom;
pos = (336,0);
},
{
name = top;
pos = (539,710);
}
);
background = {
shapes = (
{
angle = 180;
pos = (1089,710);
ref = W;
}
);
};
guides = (
{
pos = (-95,323);
showMeasurement = 1;
}
);
layerId = m003;
shapes = (
{
closed = 1;
nodes = (
(62,0,l),
(342,657,l),
(305,657,l),
(283,0,l),
(395,0,l),
(748,657,l),
(711,657,l),
(615,0,l),
(714,0,l),
(809,710,l),
(680,710,l),
(341,82,l),
(377,82,l),
(397,710,l),
(271,710,l),
(-40,0,l)
);
}
);
width = 825;
},
{
associatedMasterId = m003;
guides = (
{
pos = (-106,323);
showMeasurement = 1;
}
);
layerId = "4958AEF1-8718-4A27-8D47-E42B84AE5002";
name = "13 Dec 21, 12:38";
shapes = (
{
closed = 1;
nodes = (
(101,0,l),
(261,630,l),
(224,627,l),
(419,0,l),
(520,0,l),
(715,627,l),
(678,630,l),
(838,0,l),
(934,0,l),
(754,710,l),
(655,710,l),
(460,82,l),
(486,82,l),
(290,710,l),
(187,710,l),
(7,0,l)
);
}
);
width = 941;
},
{
anchors = (
{
name = bottom;
pos = (338,0);
},
{
name = top;
pos = (536,710);
}
);
guides = (
{
pos = (69,323);
showMeasurement = 1;
}
);
layerId = m004;
shapes = (
{
closed = 1;
nodes = (
(124,0,l),
(353,630,l),
(309,627,l),
(254,0,l),
(443,0,l),
(736,627,l),
(699,630,l),
(577,0,l),
(719,0,l),
(847,710,l),
(628,710,l),
(329,82,l),
(395,82,l),
(448,710,l),
(231,710,l),
(-39,0,l)
);
}
);
width = 833;
},
{
associatedMasterId = m004;
guides = (
{
pos = (-159,323);
showMeasurement = 1;
}
);
layerId = "AA979236-A442-4DEA-92F6-338E75FAA509";
name = "13 Dec 21, 12:36";
shapes = (
{
closed = 1;
nodes = (
(146,0,l),
(281,630,l),
(206,627,l),
(365,0,l),
(531,0,l),
(689,627,l),
(615,630,l),
(750,0,l),
(897,0,l),
(744,710,l),
(580,710,l),
(422,82,l),
(486,82,l),
(327,710,l),
(159,710,l),
(6,0,l)
);
}
);
width = 903;
},
{
anchors = (
{
name = bottom;
pos = (425,0);
},
{
name = top;
pos = (425,710);
}
);
guides = (
{
pos = (42,323);
showMeasurement = 1;
}
);
layerId = m005;
shapes = (
{
closed = 1;
nodes = (
(244,0,l),
(264,630,l),
(184,627,l),
(335,0,l),
(510,0,l),
(661,627,l),
(584,630,l),
(604,0,l),
(820,0,l),
(771,710,l),
(512,710,l),
(395,122,l),
(454,122,l),
(337,710,l),
(80,710,l),
(30,0,l)
);
}
);
width = 850;
},
{
associatedMasterId = m005;
guides = (
{
pos = (-159,323);
showMeasurement = 1;
}
);
layerId = "47B6D606-1775-431E-83B1-D20905E8D0BF";
name = "13 Dec 21, 12:36";
shapes = (
{
closed = 1;
nodes = (
(146,0,l),
(281,630,l),
(206,627,l),
(365,0,l),
(531,0,l),
(689,627,l),
(615,630,l),
(750,0,l),
(897,0,l),
(744,710,l),
(580,710,l),
(422,82,l),
(486,82,l),
(327,710,l),
(159,710,l),
(6,0,l)
);
}
);
width = 903;
}
);
unicode = 77;
},
{
glyphname = N;
lastChange = "2022-06-04 06:29:16 +0000";
layers = (
{
anchors = (
{
name = bottom;
pos = (344,0);
},
{
name = top;
pos = (344,710);
}
);
layerId = m01;
shapes = (
{
closed = 1;
nodes = (
(608,0,l),
(608,710,l),
(514,710,l),
(514,53,l),
(580,53,l),
(191,710,l),
(80,710,l),
(80,0,l),
(174,0,l),
(174,677,l),
(115,647,l),
(499,0,l)
);
}
);
width = 688;
},
{
anchors = (
{
name = bottom;
pos = (341,0);
},
{
name = top;
pos = (341,710);
}
);
layerId = m002;
shapes = (
{
closed = 1;
nodes = (
(618,0,l),
(618,710,l),
(466,710,l),
(466,53,l),
(566,53,l),
(241,710,l),
(64,710,l),
(64,0,l),
(216,0,l),
(216,677,l),
(124,647,l),
(444,0,l)
);
}
);
width = 682;
},
{
anchors = (
{
name = bottom;
pos = (253,0);
},
{
name = top;
pos = (456,710);
}
);
layerId = m003;
shapes = (
{
closed = 1;
nodes = (
(517,0,l),
(720,710,l),
(624,710,l),
(436,53,l),
(491,53,l),
(306,710,l),
(192,710,l),
(-11,0,l),
(86,0,l),
(279,677,l),
(220,647,l),
(403,0,l)
);
}
);
width = 689;
},
{
anchors = (
{
name = bottom;
pos = (273,0);
},
{
name = top;
pos = (472,710);
}
);
layerId = m004;
shapes = (
{
closed = 1;
nodes = (
(542,0,l),
(740,710,l),
(583,710,l),
(399,53,l),
(509,53,l),
(395,710,l),
(204,710,l),
(5,0,l),
(163,0,l),
(353,677,l),
(243,647,l),
(355,0,l)
);
}
);
width = 671;
},
{
anchors = (
{
name = bottom;
pos = (342,0);
},
{
name = top;
pos = (342,710);
}
);
background = {
shapes = (
{
closed = 1;
nodes = (
(547,710,l),
(547,317,l),
(280,710,l),
(75,710,l),
(75,0,l),
(281,0,l),
(281,390,l),
(547,0,l),
(754,0,l),
(754,710,l)
);
}
);
};
layerId = m005;
shapes = (
{
closed = 1;
nodes = (
(638,0,l),
(638,710,l),
(430,710,l),
(430,53,l),
(557,123,l),
(260,710,l),
(46,710,l),
(46,0,l),
(255,0,l),
(255,677,l),
(134,587,l),
(427,0,l)
);
}
);
width = 684;
}
);
metricLeft = H;
metricRight = H;
unicode = 78;
},
{
glyphname = O;
lastChange = "2022-06-07 12:48:10 +0000";
layers = (
{
anchors = (
{
name = bottom;
pos = (347,0);
},
{
name = center;
pos = (347,355);
},
{
name = ogonek;
pos = (541,70);
},
{
name = top;
pos = (347,710);
},
{
name = topleft;
pos = (24,710);
},
{
name = topright;
pos = (532,710);
}
);
layerId = m01;
shapes = (
{
closed = 1;
nodes = (
(516,-12,o),
(640,113,o),
(640,355,cs),
(640,597,o),
(516,722,o),
(347,722,cs),
(178,722,o),
(55,597,o),
(55,355,cs),
(55,113,o),
(178,-12,o),
(347,-12,cs)
);
},
{
closed = 1;
nodes = (
(237,76,o),
(159,158,o),
(159,355,cs),
(159,552,o),
(237,634,o),
(347,634,cs),
(457,634,o),
(536,552,o),
(536,355,cs),
(536,158,o),
(457,76,o),
(347,76,cs)
);
}
);
width = 695;
},
{
anchors = (
{
name = bottom;
pos = (342,0);
},
{
name = center;
pos = (342,355);
},
{
name = ogonek;
pos = (537,70);
},
{
name = top;
pos = (342,710);
},
{
name = topleft;
pos = (24,710);
},
{
name = topright;
pos = (518,710);
}
);
layerId = m002;
shapes = (
{
closed = 1;
nodes = (
(529,-12,o),
(644,134,o),
(644,355,cs),
(644,576,o),
(529,722,o),
(342,722,cs),
(154,722,o),
(39,576,o),
(39,355,cs),
(39,134,o),
(154,-12,o),
(342,-12,cs)
);
},
{
closed = 1;
nodes = (
(262,126,o),
(209,189,o),
(209,355,cs),
(209,521,o),
(262,584,o),
(342,584,cs),
(421,584,o),
(474,521,o),
(474,355,cs),
(474,189,o),
(421,126,o),
(342,126,cs)
);
}
);
width = 683;
},
{
anchors = (
{
name = bottom;
pos = (281,2);
},
{
name = center;
pos = (380,355);
},
{
name = ogonek;
pos = (500,59);
},
{
name = top;
pos = (479,708);
},
{
name = topleft;
pos = (165,748);
},
{
name = topright;
pos = (644,710);
}
);
layerId = m003;
shapes = (
{
closed = 1;
nodes = (
(537,-12,o),
(688,248,o),
(688,461,cs),
(688,630,o),
(579,722,o),
(442,722,cs),
(223,722,o),
(72,461,o),
(72,248,cs),
(72,79,o),
(181,-12,o),
(318,-12,cs)
);
},
{
closed = 1;
nodes = (
(243,76,o),
(177,130,o),
(177,249,cs),
(177,396,o),
(269,634,o),
(432,634,cs),
(517,634,o),
(583,580,o),
(583,461,cs),
(583,314,o),
(491,76,o),
(328,76,cs)
);
}
);
width = 706;
},
{
anchors = (
{
name = bottom;
pos = (278,3);
},
{
name = center;
pos = (377,355);
},
{
name = ogonek;
pos = (484,40);
},
{
name = top;
pos = (477,707);
},
{
name = topleft;
pos = (170,760);
},
{
name = topright;
pos = (659,677);
}
);
layerId = m004;
shapes = (
{
closed = 1;
nodes = (
(542,-12,o),
(693,239,o),
(693,444,cs),
(693,623,o),
(572,722,o),
(425,722,cs),
(213,722,o),
(61,472,o),
(61,266,cs),
(61,87,o),
(182,-12,o),
(329,-12,cs)
);
},
{
closed = 1;
nodes = (
(287,126,o),
(236,160,o),
(236,255,cs),
(236,370,o),
(303,584,o),
(413,584,cs),
(467,584,o),
(518,550,o),
(518,455,cs),
(518,340,o),
(451,126,o),
(341,126,cs)
);
}
);
width = 705;
},
{
anchors = (
{
name = bottom;
pos = (330,0);
},
{
name = center;
pos = (330,355);
},
{
name = ogonek;
pos = (545,65);
},
{
name = top;
pos = (330,710);
},
{
name = topleft;
pos = (24,710);
},
{
name = topright;
pos = (499,710);
}
);
background = {
shapes = (
{
closed = 1;
nodes = (
(124,92,o),
(167,51,o),
(219,26,c),
(271,1,o),
(337,-12,o),
(418,-12,c),
(496,-12,o),
(562,2,o),
(614,32,c),
(667,61,o),
(708,103,o),
(735,156,c),
(763,209,o),
(777,277,o),
(777,360,c),
(777,474,o),
(745,562,o),
(681,625,c),
(617,688,o),
(526,721,o),
(408,721,c),
(293,721,o),
(204,688,o),
(140,624,c),
(76,559,o),
(43,470,o),
(43,354,c),
(43,271,o),
(59,202,o),
(92,147,c)
);
},
{
closed = 1;
nodes = (
(329,539,o),
(364,555,o),
(408,555,c),
(454,555,o),
(491,540,o),
(517,508,c),
(545,478,o),
(558,429,o),
(558,363,c),
(558,283,o),
(545,228,o),
(519,198,c),
(494,167,o),
(457,152,o),
(410,152,c),
(365,152,o),
(328,167,o),
(302,199,c),
(275,230,o),
(262,281,o),
(262,353,c),
(262,425,o),
(275,477,o),
(302,508,c)
);
}
);
};
layerId = m005;
shapes = (
{
closed = 1;
nodes = (
(548,-12,o),
(643,134,o),
(643,355,cs),
(643,576,o),
(548,722,o),
(330,722,cs),
(113,722,o),
(18,576,o),
(18,355,cs),
(18,134,o),
(113,-12,o),
(330,-12,cs)
);
},
{
closed = 1;
nodes = (
(276,162,o),
(249,218,o),
(249,355,cs),
(249,492,o),
(276,548,o),
(330,548,cs),
(385,548,o),
(412,492,o),
(412,355,cs),
(412,218,o),
(385,162,o),
(330,162,cs)
);
}
);
width = 661;
}
);
unicode = 79;
},
{
glyphname = P;
lastChange = "2022-06-07 12:48:13 +0000";
layers = (
{
anchors = (
{
name = bottom;
pos = (312,0);
},
{
name = top;
pos = (312,710);
}
);
layerId = m01;
shapes = (
{
closed = 1;
nodes = (
(181,0,l),
(181,686,l),
(129,626,l),
(385,626,ls),
(450,626,o),
(485,590,o),
(485,497,cs),
(485,404,o),
(452,364,o),
(388,364,cs),
(140,364,l),
(140,280,l),
(396,280,ls),
(509,280,o),
(588,367,o),
(588,497,cs),
(588,625,o),
(510,710,o),
(396,710,cs),
(80,710,l),
(80,0,l)
);
}
);
width = 625;
},
{
anchors = (
{
name = bottom;
pos = (339,0);
},
{
name = top;
pos = (339,710);
}
);
layerId = m002;
shapes = (
{
closed = 1;
nodes = (
(231,0,l),
(231,686,l),
(162,582,l),
(359,582,ls),
(402,582,o),
(425,556,o),
(425,493,cs),
(425,428,o),
(401,400,o),
(358,400,cs),
(177,400,l),
(177,272,l),
(377,272,ls),
(504,272,o),
(593,367,o),
(593,497,cs),
(593,625,o),
(516,710,o),
(402,710,cs),
(64,710,l),
(64,0,l)
);
}
);
width = 616;
},
{
anchors = (
{
name = bottom;
pos = (201,5);
},
{
name = top;
pos = (477,711);
}
);
background = {
shapes = (
{
closed = 0;
nodes = (
(551,627,ls),
(635,618,o),
(669,578,o),
(643,485,cs),
(617,393,o),
(563,358,o),
(481,366,cs)
);
},
{
closed = 0;
nodes = (
(459,283,ls),
(590,269,o),
(706,346,o),
(742,475,cs),
(778,602,o),
(712,696,o),
(579,710,cs)
);
}
);
};
layerId = m003;
shapes = (
{
closed = 1;
nodes = (
(109,0,l),
(305,686,l),
(235,626,l),
(482,626,ls),
(531,626,o),
(562,603,o),
(562,549,cs),
(562,468,o),
(516,364,o),
(431,364,cs),
(172,364,l),
(147,280,l),
(427,280,ls),
(573,280,o),
(666,428,o),
(666,549,cs),
(666,647,o),
(601,710,o),
(492,710,cs),
(209,710,l),
(6,0,l)
);
}
);
width = 632;
},
{
anchors = (
{
name = bottom;
pos = (410,0);
},
{
name = top;
pos = (269,710);
}
);
background = {
shapes = (
{
closed = 1;
nodes = (
(188,23,l),
(379,702,l),
(269,611,l),
(540,572,ls),
(592,565,o),
(613,536,o),
(595,472,cs),
(577,408,o),
(543,384,o),
(493,391,cs),
(236,428,l),
(200,301,l),
(488,260,ls),
(613,242,o),
(726,324,o),
(762,453,cs),
(798,579,o),
(736,676,o),
(610,694,cs),
(220,750,l),
(23,47,l)
);
}
);
};
layerId = m004;
shapes = (
{
closed = 1;
nodes = (
(170,0,l),
(362,686,l),
(252,582,l),
(473,582,ls),
(495,582,o),
(505,569,o),
(505,539,cs),
(505,475,o),
(469,400,o),
(438,400,cs),
(219,400,l),
(184,272,l),
(445,272,ls),
(585,272,o),
(679,410,o),
(679,531,cs),
(679,641,o),
(609,710,o),
(487,710,cs),
(193,710,l),
(-6,0,l)
);
}
);
width = 642;
},
{
anchors = (
{
name = bottom;
pos = (304,0);
},
{
name = top;
pos = (304,710);
}
);
background = {
shapes = (
{
closed = 1;
nodes = (
(78,0,l),
(298,0,l),
(298,263,l),
(418,263,l),
(506,263,o),
(572,283,o),
(615,323,c),
(658,364,o),
(679,420,o),
(679,491,c),
(679,561,o),
(660,614,o),
(620,652,c),
(581,690,o),
(521,709,o),
(442,709,c),
(78,709,l)
);
},
{
closed = 1;
nodes = (
(298,565,l),
(360,565,l),
(401,565,o),
(429,557,o),
(444,541,c),
(459,526,o),
(466,507,o),
(466,485,c),
(466,462,o),
(458,443,o),
(440,428,c),
(423,414,o),
(394,406,o),
(352,406,c),
(298,406,l)
);
}
);
};
layerId = m005;
shapes = (
{
closed = 1;
nodes = (
(275,0,l),
(275,686,l),
(203,548,l),
(314,548,ls),
(346,548,o),
(364,526,o),
(364,485,cs),
(364,440,o),
(342,414,o),
(304,414,cs),
(218,414,l),
(218,252,l),
(314,252,ls),
(478,252,o),
(593,341,o),
(593,497,cs),
(593,640,o),
(513,710,o),
(389,710,cs),
(46,710,l),
(46,0,l)
);
}
);
width = 607;
}
);
metricLeft = H;
unicode = 80;
},
{
glyphname = Q;
lastChange = "2022-06-07 13:11:00 +0000";
layers = (
{
anchors = (
{
name = bottom;
pos = (348,0);
},
{
name = top;
pos = (348,710);
}
);
layerId = m01;
shapes = (
{
ref = O;
},
{
closed = 1;
nodes = (
(583,-127,l),
(387,231,l),
(290,221,l),
(487,-136,l)
);
}
);
width = 695;
},
{
anchors = (
{
name = bottom;
pos = (342,0);
},
{
name = top;
pos = (342,710);
}
);
layerId = m002;
shapes = (
{
ref = O;
},
{
closed = 1;
nodes = (
(744,-110,l),
(494,248,l),
(334,248,l),
(574,-110,l)
);
}
);
width = 824;
},
{
anchors = (
{
name = bottom;
pos = (319,0);
},
{
name = top;
pos = (397,710);
}
);
layerId = m003;
shapes = (
{
ref = O;
},
{
closed = 1;
nodes = (
(605,-111,l),
(515,-98,o),
(514,-25,o),
(513,52,cs),
(511,141,o),
(511,235,o),
(378,254,c),
(345,176,l),
(431,164,o),
(433,93,o),
(434,16,cs),
(436,-73,o),
(438,-169,o),
(573,-188,c)
);
}
);
width = 825;
},
{
anchors = (
{
name = bottom;
pos = (235,0);
},
{
name = top;
pos = (527,710);
}
);
layerId = m004;
shapes = (
{
ref = O;
},
{
closed = 1;
nodes = (
(666,-78,l),
(571,-65,o),
(559,3,o),
(558,80,cs),
(556,177,o),
(550,281,o),
(416,302,c),
(338,196,l),
(425,183,o),
(433,101,o),
(434,16,cs),
(436,-73,o),
(449,-164,o),
(589,-183,c)
);
}
);
width = 841;
},
{
anchors = (
{
name = bottom;
pos = (408,0);
},
{
name = top;
pos = (408,710);
}
);
associatedMasterId = m01;
layerId = "A35B458F-8146-4D09-AA8D-BC2D756CD25A";
name = "16 Feb 22, 12:50";
shapes = (
{
ref = O;
},
{
closed = 1;
nodes = (
(752,-120,l),
(482,238,l),
(372,238,l),
(642,-120,l)
);
}
);
width = 816;
},
{
anchors = (
{
name = bottom;
pos = (408,0);
},
{
name = top;
pos = (408,710);
}
);
associatedMasterId = m003;
layerId = "D1889E09-64E9-4A41-AE4E-754A5D372F55";
name = "16 Feb 22, 14:37";
shapes = (
{
ref = O;
},
{
closed = 1;
nodes = (
(661,-120,l),
(493,238,l),
(393,238,l),
(561,-120,l)
);
}
);
width = 816;
},
{
anchors = (
{
name = bottom;
pos = (330,0);
},
{
name = top;
pos = (330,710);
}
);
associatedMasterId = m005;
layerId = "54AFD913-0DBB-4B37-8D26-928B36FB2896";
name = "7 Jun 22, 23:11";
shapes = (
{
ref = O;
},
{
closed = 1;
nodes = (
(564,-66,l),
(328,26,l),
(161,-71,l),
(394,-212,l)
);
}
);
width = 661;
},
{
anchors = (
{
name = bottom;
pos = (330,0);
},
{
name = top;
pos = (330,710);
}
);
layerId = m005;
name = Black;
shapes = (
{
ref = O;
},
{
closed = 1;
nodes = (
(581,-118,l),
(491,-73,o),
(430,-6,o),
(423,80,c),
(230,80,l),
(236,-19,o),
(278,-107,o),
(361,-159,c)
);
}
);
width = 661;
}
);
metricLeft = O;
metricRight = O;
unicode = 81;
},
{
glyphname = R;
lastChange = "2022-06-06 11:53:42 +0000";
layers = (
{
anchors = (
{
name = bottom;
pos = (314,0);
},
{
name = top;
pos = (314,710);
}
);
background = {
shapes = (
{
ref = P;
}
);
};
layerId = m01;
shapes = (
{
closed = 1;
nodes = (
(181,0,l),
(181,686,l),
(119,626,l),
(374,626,ls),
(439,626,o),
(474,592,o),
(474,507,cs),
(474,424,o),
(441,386,o),
(377,386,cs),
(129,386,l),
(129,304,l),
(364,304,l),
(387,317,l),
(501,317,o),
(577,390,o),
(577,518,cs),
(577,639,o),
(506,710,o),
(394,710,cs),
(80,710,l),
(80,0,l)
);
},
{
closed = 1;
nodes = (
(603,0,l),
(523,168,ls),
(466,282,o),
(381,354,o),
(261,355,c),
(235,304,l),
(316,304,o),
(362,268,o),
(398,184,cs),
(478,0,l)
);
}
);
width = 628;
},
{
anchors = (
{
name = bottom;
pos = (311,0);
},
{
name = top;
pos = (311,710);
}
);
background = {
shapes = (
{
ref = P;
}
);
};
layerId = m002;
shapes = (
{
closed = 1;
nodes = (
(231,0,l),
(231,686,l),
(111,582,l),
(358,582,ls),
(400,582,o),
(424,556,o),
(424,489,cs),
(424,423,o),
(402,394,o),
(361,394,cs),
(121,394,l),
(121,269,l),
(335,269,l),
(391,295,l),
(510,295,o),
(592,374,o),
(592,509,cs),
(592,623,o),
(523,710,o),
(408,710,cs),
(64,710,l),
(64,0,l)
);
},
{
closed = 1;
nodes = (
(627,0,l),
(578,143,ls),
(509,292,o),
(406,331,o),
(254,331,c),
(254,269,l),
(311,269,o),
(348,255,o),
(382,192,cs),
(428,0,l)
);
}
);
width = 632;
},
{
anchors = (
{
name = bottom;
pos = (272,0);
},
{
name = top;
pos = (428,710);
}
);
background = {
shapes = (
{
closed = 1;
nodes = (
(129,28,l),
(321,710,l),
(252,656,l),
(540,626,ls),
(624,617,o),
(659,578,o),
(635,493,cs),
(612,410,o),
(559,378,o),
(477,386,cs),
(197,416,l),
(174,335,l),
(450,305,l),
(464,317,l),
(595,303,o),
(701,366,o),
(737,494,cs),
(771,614,o),
(708,694,o),
(578,708,cs),
(231,745,l),
(32,39,l)
);
},
{
closed = 1;
nodes = (
(623,-25,l),
(572,154,ls),
(537,273,o),
(470,354,o),
(336,370,c),
(282,323,l),
(385,312,o),
(432,270,o),
(454,182,cs),
(502,-12,l)
);
}
);
};
layerId = m003;
shapes = (
{
closed = 1;
nodes = (
(109,0,l),
(305,686,l),
(225,626,l),
(472,626,ls),
(524,626,o),
(555,602,o),
(555,546,cs),
(555,479,o),
(516,386,o),
(429,386,cs),
(166,386,l),
(143,304,l),
(377,304,l),
(418,318,l),
(575,318,o),
(659,431,o),
(659,554,cs),
(659,654,o),
(599,710,o),
(487,710,cs),
(209,710,l),
(6,0,l)
);
},
{
closed = 1;
nodes = (
(500,0,l),
(509,19,l),
(486,33,o),
(522,55,o),
(525,107,cs),
(527,147,ls),
(540,294,o),
(498,356,o),
(405,356,c),
(389,304,l),
(414,304,o),
(384,268,o),
(388,172,cs),
(391,103,ls),
(397,54,o),
(400,21,o),
(423,0,c)
);
}
);
width = 642;
},
{
anchors = (
{
name = bottom;
pos = (299,0);
},
{
name = top;
pos = (503,710);
}
);
associatedMasterId = m003;
background = {
shapes = (
{
closed = 1;
nodes = (
(129,28,l),
(321,710,l),
(252,656,l),
(540,626,ls),
(624,617,o),
(659,578,o),
(635,493,cs),
(612,410,o),
(559,378,o),
(477,386,cs),
(197,416,l),
(174,335,l),
(450,305,l),
(464,317,l),
(595,303,o),
(701,366,o),
(737,494,cs),
(771,614,o),
(708,694,o),
(578,708,cs),
(231,745,l),
(32,39,l)
);
},
{
closed = 1;
nodes = (
(623,-25,l),
(572,154,ls),
(537,273,o),
(470,354,o),
(336,370,c),
(282,323,l),
(385,312,o),
(432,270,o),
(454,182,cs),
(502,-12,l)
);
}
);
};
layerId = "3CE550FB-0400-41CC-862E-79EA8877C4A4";
name = "20 Dec 21, 21:33";
shapes = (
{
closed = 1;
nodes = (
(116,0,l),
(313,686,l),
(241,626,l),
(524,626,ls),
(598,626,o),
(642,599,o),
(642,538,cs),
(642,481,o),
(608,386,o),
(490,386,cs),
(184,386,l),
(160,304,l),
(443,304,l),
(470,309,l),
(663,309,o),
(746,434,o),
(746,544,cs),
(746,650,o),
(671,710,o),
(531,710,cs),
(219,710,l),
(15,0,l)
);
},
{
closed = 1;
nodes = (
(621,0,l),
(569,169,ls),
(534,282,o),
(464,354,o),
(327,355,c),
(271,304,l),
(377,304,o),
(426,268,o),
(448,184,cs),
(497,0,l)
);
}
);
width = 748;
},
{
anchors = (
{
name = bottom;
pos = (364,0);
},
{
name = top;
pos = (310,710);
}
);
background = {
shapes = (
{
pos = (31,0);
ref = P;
},
{
closed = 1;
nodes = (
(192,24,l),
(383,704,l),
(233,618,l),
(537,574,ls),
(588,567,o),
(608,537,o),
(590,471,cs),
(571,406,o),
(537,381,o),
(489,388,cs),
(193,430,l),
(158,306,l),
(408,270,l),
(481,287,l),
(612,268,o),
(725,333,o),
(762,467,cs),
(794,580,o),
(743,677,o),
(616,695,cs),
(224,751,l),
(27,48,l)
);
},
{
closed = 1;
nodes = (
(649,-41,l),
(620,113,ls),
(590,268,o),
(483,324,o),
(331,345,c),
(314,284,l),
(380,274,o),
(419,255,o),
(426,190,cs),
(447,-12,l)
);
}
);
};
layerId = m004;
shapes = (
{
closed = 1;
nodes = (
(169,0,l),
(361,686,l),
(199,582,l),
(468,582,ls),
(485,582,o),
(493,569,o),
(493,537,cs),
(493,480,o),
(466,394,o),
(425,394,cs),
(156,394,l),
(122,269,l),
(325,269,l),
(430,295,l),
(556,295,o),
(675,413,o),
(675,540,cs),
(675,641,o),
(623,710,o),
(521,710,cs),
(193,710,l),
(-6,0,l)
);
},
{
closed = 1;
nodes = (
(295,50,o),
(304,16,o),
(354,-1,c),
(609,0,l),
(621,27,l),
(580,35,o),
(586,58,o),
(621,107,cs),
(659,160,ls),
(673,252,o),
(485,331,o),
(279,331,c),
(228,269,l),
(326,269,o),
(426,202,o),
(370,129,cs),
(347,99,ls)
);
}
);
width = 648;
},
{
anchors = (
{
name = bottom;
pos = (305,0);
},
{
name = top;
pos = (305,710);
}
);
background = {
shapes = (
{
ref = P;
}
);
};
layerId = m005;
shapes = (
{
closed = 1;
nodes = (
(275,0,l),
(275,686,l),
(110,552,l),
(323,552,ls),
(357,552,o),
(376,531,o),
(376,486,cs),
(376,442,o),
(359,418,o),
(326,418,cs),
(119,418,l),
(119,269,l),
(321,269,l),
(386,302,l),
(514,302,o),
(604,378,o),
(604,509,cs),
(604,623,o),
(530,710,o),
(404,710,cs),
(46,710,l),
(46,0,l)
);
},
{
closed = 1;
nodes = (
(640,0,l),
(626,61,ls),
(568,314,o),
(436,331,o),
(250,331,c),
(257,269,l),
(296,269,o),
(345,251,o),
(369,73,cs),
(379,0,l)
);
}
);
width = 640;
}
);
metricLeft = H;
unicode = 82;
},
{
glyphname = S;
lastChange = "2022-06-07 12:24:48 +0000";
layers = (
{
anchors = (
{
name = bottom;
pos = (295,0);
},
{
name = top;
pos = (295,710);
}
);
layerId = m01;
shapes = (
{
closed = 1;
nodes = (
(443,-12,o),
(543,77,o),
(543,220,cs),
(543,334,o),
(470,393,o),
(375,411,cs),
(249,435,ls),
(189,447,o),
(156,472,o),
(156,533,cs),
(156,595,o),
(200,637,o),
(289,637,cs),
(363,637,o),
(415,596,o),
(424,519,c),
(525,549,l),
(499,664,o),
(414,722,o),
(291,722,cs),
(134,722,o),
(55,629,o),
(55,525,cs),
(55,437,o),
(111,366,o),
(218,346,cs),
(352,321,ls),
(417,308,o),
(442,269,o),
(442,209,cs),
(442,130,o),
(389,73,o),
(303,73,cs),
(214,73,o),
(155,102,o),
(143,223,c),
(41,193,l),
(60,42,o),
(179,-12,o),
(302,-12,cs)
);
}
);
width = 590;
},
{
anchors = (
{
name = bottom;
pos = (294,0);
},
{
name = top;
pos = (294,710);
}
);
layerId = m002;
shapes = (
{
closed = 1;
nodes = (
(450,-12,o),
(551,81,o),
(551,233,cs),
(551,338,o),
(486,397,o),
(362,435,cs),
(265,465,ls),
(223,478,o),
(201,499,o),
(201,533,cs),
(201,571,o),
(229,597,o),
(285,597,cs),
(336,597,o),
(369,569,o),
(377,513,c),
(538,549,l),
(509,664,o),
(418,722,o),
(287,722,cs),
(113,722,o),
(40,624,o),
(40,513,cs),
(40,430,o),
(94,360,o),
(219,322,cs),
(318,292,ls),
(363,279,o),
(387,258,o),
(387,209,cs),
(387,152,o),
(355,113,o),
(296,113,cs),
(235,113,o),
(196,138,o),
(192,235,c),
(25,193,l),
(45,42,o),
(167,-12,o),
(294,-12,cs)
);
}
);
width = 581;
},
{
anchors = (
{
name = bottom;
pos = (231,2);
},
{
name = top;
pos = (400,708);
}
);
layerId = m003;
shapes = (
{
closed = 1;
nodes = (
(409,-12,o),
(531,107,o),
(531,248,cs),
(531,321,o),
(489,372,o),
(411,399,cs),
(296,439,ls),
(248,456,o),
(229,481,o),
(229,515,cs),
(229,586,o),
(284,637,o),
(362,637,cs),
(439,637,o),
(484,601,o),
(487,535,c),
(594,556,l),
(566,683,o),
(482,722,o),
(371,722,cs),
(235,722,o),
(126,625,o),
(126,503,cs),
(126,437,o),
(167,385,o),
(244,358,cs),
(366,315,ls),
(406,300,o),
(427,275,o),
(427,234,cs),
(427,148,o),
(353,73,o),
(269,73,cs),
(173,73,o),
(119,118,o),
(129,222,c),
(22,193,l),
(21,40,o),
(146,-12,o),
(264,-12,cs)
);
}
);
width = 575;
},
{
anchors = (
{
name = bottom;
pos = (232,0);
},
{
name = top;
pos = (459,710);
}
);
layerId = m004;
shapes = (
{
closed = 1;
nodes = (
(430,-12,o),
(518,134,o),
(518,261,cs),
(518,332,o),
(481,387,o),
(422,416,cs),
(319,467,ls),
(298,480,o),
(286,496,o),
(286,520,cs),
(286,564,o),
(309,596,o),
(340,596,cs),
(387,596,o),
(432,572,o),
(435,524,c),
(594,570,l),
(577,668,o),
(483,722,o),
(344,722,cs),
(228,722,o),
(110,630,o),
(110,492,cs),
(110,431,o),
(138,373,o),
(208,338,cs),
(314,285,ls),
(332,273,o),
(342,254,o),
(342,230,cs),
(342,168,o),
(303,113,o),
(259,113,cs),
(183,113,o),
(166,158,o),
(171,235,c),
(-4,194,l),
(13,55,o),
(101,-12,o),
(260,-12,cs)
);
}
);
width = 550;
},
{
anchors = (
{
name = bottom;
pos = (308,0);
},
{
name = top;
pos = (308,710);
}
);
layerId = m005;
shapes = (
{
closed = 1;
nodes = (
(481,-12,o),
(581,81,o),
(581,233,cs),
(581,349,o),
(521,410,o),
(330,466,cs),
(289,478,ls),
(258,487,o),
(239,501,o),
(239,532,cs),
(239,561,o),
(259,580,o),
(293,580,cs),
(333,580,o),
(359,558,o),
(365,513,c),
(577,559,l),
(545,667,o),
(442,722,o),
(295,722,cs),
(104,722,o),
(26,623,o),
(26,509,cs),
(26,402,o),
(89,343,o),
(254,289,cs),
(294,276,ls),
(344,260,o),
(363,241,o),
(363,208,cs),
(363,168,o),
(345,141,o),
(307,141,cs),
(259,141,o),
(236,172,o),
(236,252,c),
(11,213,l),
(32,47,o),
(149,-12,o),
(300,-12,cs)
);
}
);
width = 595;
}
);
unicode = 83;
},
{
glyphname = T;
lastChange = "2022-06-04 06:29:16 +0000";
layers = (
{
anchors = (
{
name = bottom;
pos = (276,0);
},
{
name = center;
pos = (276,355);
},
{
name = top;
pos = (276,710);
}
);
layerId = m01;
shapes = (
{
closed = 1;
nodes = (
(327,0,l),
(327,663,l),
(226,663,l),
(226,0,l)
);
},
{
closed = 1;
nodes = (
(540,621,l),
(540,710,l),
(13,710,l),
(13,621,l)
);
}
);
width = 553;
},
{
anchors = (
{
name = bottom;
pos = (283,0);
},
{
name = center;
pos = (283,355);
},
{
name = top;
pos = (283,710);
}
);
layerId = m002;
shapes = (
{
closed = 1;
nodes = (
(367,0,l),
(367,663,l),
(199,663,l),
(199,0,l)
);
},
{
closed = 1;
nodes = (
(549,576,l),
(549,710,l),
(17,710,l),
(17,576,l)
);
}
);
width = 566;
},
{
anchors = (
{
name = bottom;
pos = (205,0);
},
{
name = center;
pos = (307,355);
},
{
name = top;
pos = (408,710);
}
);
layerId = m003;
shapes = (
{
closed = 1;
nodes = (
(255,0,l),
(444,663,l),
(341,663,l),
(152,0,l)
);
},
{
closed = 1;
nodes = (
(644,621,l),
(669,710,l),
(142,710,l),
(116,621,l)
);
}
);
width = 553;
},
{
anchors = (
{
name = bottom;
pos = (203,0);
},
{
name = center;
pos = (302,355);
},
{
name = top;
pos = (402,710);
}
);
layerId = m004;
shapes = (
{
closed = 1;
nodes = (
(293,0,l),
(479,663,l),
(303,663,l),
(116,0,l)
);
},
{
closed = 1;
nodes = (
(623,576,l),
(661,710,l),
(147,710,l),
(109,576,l)
);
}
);
width = 555;
},
{
anchors = (
{
name = bottom;
pos = (292,0);
},
{
name = center;
pos = (292,355);
},
{
name = top;
pos = (292,710);
}
);
layerId = m005;
shapes = (
{
closed = 1;
nodes = (
(406,0,l),
(406,663,l),
(177,663,l),
(177,0,l)
);
},
{
closed = 1;
nodes = (
(566,528,l),
(566,710,l),
(17,710,l),
(17,528,l)
);
}
);
width = 583;
}
);
unicode = 84;
},
{
glyphname = U;
lastChange = "2022-06-04 06:29:16 +0000";
layers = (
{
anchors = (
{
name = bottom;
pos = (334,0);
},
{
name = ogonek;
pos = (529,62);
},
{
name = top;
pos = (334,710);
},
{
name = topright;
pos = (591,710);
}
);
layerId = m01;
shapes = (
{
closed = 1;
nodes = (
(490,-12,o),
(591,71,o),
(591,210,cs),
(591,710,l),
(490,710,l),
(490,214,ls),
(490,125,o),
(434,75,o),
(334,75,cs),
(233,75,o),
(177,125,o),
(177,214,cs),
(177,710,l),
(76,710,l),
(76,210,ls),
(76,71,o),
(177,-12,o),
(334,-12,cs)
);
}
);
width = 667;
},
{
anchors = (
{
name = bottom;
pos = (334,0);
},
{
name = ogonek;
pos = (538,61);
},
{
name = top;
pos = (334,710);
},
{
name = topright;
pos = (610,710);
}
);
layerId = m002;
shapes = (
{
closed = 1;
nodes = (
(512,-12,o),
(610,67,o),
(610,200,cs),
(610,710,l),
(442,710,l),
(442,219,ls),
(442,156,o),
(403,126,o),
(334,126,cs),
(266,126,o),
(226,156,o),
(226,219,cs),
(226,710,l),
(59,710,l),
(59,200,ls),
(59,67,o),
(157,-12,o),
(334,-12,cs)
);
}
);
width = 669;
},
{
anchors = (
{
name = bottom;
pos = (264,2);
},
{
name = ogonek;
pos = (472,40);
},
{
name = top;
pos = (464,708);
},
{
name = topright;
pos = (723,710);
}
);
layerId = m003;
shapes = (
{
closed = 1;
nodes = (
(436,-12,o),
(541,64,o),
(581,207,cs),
(723,710,l),
(621,710,l),
(482,221,ls),
(455,127,o),
(396,76,o),
(311,76,cs),
(217,76,o),
(143,129,o),
(179,256,cs),
(307,710,l),
(205,710,l),
(78,263,ls),
(28,86,o),
(148,-12,o),
(305,-12,cs)
);
}
);
width = 672;
},
{
anchors = (
{
name = bottom;
pos = (263,3);
},
{
name = ogonek;
pos = (485,30);
},
{
name = top;
pos = (461,706);
},
{
name = topright;
pos = (723,663);
}
);
layerId = m004;
shapes = (
{
closed = 1;
nodes = (
(461,-12,o),
(551,60,o),
(591,202,cs),
(736,710,l),
(562,710,l),
(425,230,ls),
(405,158,o),
(368,127,o),
(314,127,cs),
(269,127,o),
(207,162,o),
(235,262,cs),
(362,710,l),
(188,710,l),
(68,283,ls),
(10,75,o),
(149,-12,o),
(314,-12,cs)
);
}
);
width = 671;
},
{
anchors = (
{
name = bottom;
pos = (336,0);
},
{
name = ogonek;
pos = (536,61);
},
{
name = top;
pos = (336,710);
},
{
name = topright;
pos = (632,710);
}
);
layerId = m005;
shapes = (
{
closed = 1;
nodes = (
(537,-12,o),
(632,88,o),
(632,240,cs),
(632,710,l),
(404,710,l),
(404,253,ls),
(404,197,o),
(378,170,o),
(336,170,cs),
(294,170,o),
(269,197,o),
(269,253,cs),
(269,710,l),
(40,710,l),
(40,240,ls),
(40,88,o),
(135,-12,o),
(336,-12,cs)
);
}
);
width = 672;
}
);
unicode = 85;
},
{
glyphname = V;
lastChange = "2022-06-07 12:48:24 +0000";
layers = (
{
anchors = (
{
name = bottom;
pos = (289,0);
},
{
name = top;
pos = (289,710);
}
);
guides = (
{
pos = (-68,412);
showMeasurement = 1;
}
);
layerId = m01;
shapes = (
{
closed = 1;
nodes = (
(340,0,l),
(572,710,l),
(468,710,l),
(264,62,l),
(320,62,l),
(116,710,l),
(6,710,l),
(237,0,l)
);
}
);
width = 578;
},
{
anchors = (
{
name = bottom;
pos = (299,0);
},
{
name = top;
pos = (299,710);
}
);
layerId = m002;
shapes = (
{
closed = 1;
nodes = (
(394,0,l),
(619,710,l),
(451,710,l),
(278,62,l),
(357,62,l),
(184,710,l),
(4,710,l),
(229,0,l)
);
}
);
width = 623;
},
{
anchors = (
{
name = bottom;
pos = (199,0);
},
{
name = top;
pos = (402,710);
}
);
guides = (
{
pos = (-16,400);
showMeasurement = 1;
}
);
layerId = m003;
shapes = (
{
closed = 1;
nodes = (
(266,0,l),
(701,710,l),
(591,710,l),
(203,62,l),
(256,62,l),
(235,710,l),
(135,710,l),
(163,0,l)
);
}
);
width = 578;
},
{
anchors = (
{
name = bottom;
pos = (251,0);
},
{
name = top;
pos = (450,710);
}
);
layerId = m004;
shapes = (
{
closed = 1;
nodes = (
(330,0,l),
(745,710,l),
(571,710,l),
(200,62,l),
(299,62,l),
(292,710,l),
(130,710,l),
(147,0,l)
);
}
);
width = 620;
},
{
anchors = (
{
name = bottom;
pos = (332,0);
},
{
name = top;
pos = (332,710);
}
);
layerId = m005;
shapes = (
{
closed = 1;
nodes = (
(436,0,l),
(661,710,l),
(421,710,l),
(298,102,l),
(380,102,l),
(256,710,l),
(3,710,l),
(228,0,l)
);
}
);
width = 664;
}
);
unicode = 86;
},
{
glyphname = W;
lastChange = "2022-06-04 06:29:16 +0000";
layers = (
{
anchors = (
{
name = bottom;
pos = (395,0);
},
{
name = top;
pos = (395,710);
}
);
guides = (
{
pos = (-121,513);
showMeasurement = 1;
},
{
angle = 180;
pos = (0,310);
showMeasurement = 1;
}
);
layerId = m01;
shapes = (
{
closed = 1;
nodes = (
(279,0,l),
(413,601,l),
(381,601,l),
(515,0,l),
(633,0,l),
(784,710,l),
(690,710,l),
(557,42,l),
(597,42,l),
(450,710,l),
(349,710,l),
(202,42,l),
(241,42,l),
(110,710,l),
(10,710,l),
(161,0,l)
);
}
);
width = 794;
},
{
anchors = (
{
name = bottom;
pos = (401,0);
},
{
name = top;
pos = (401,710);
}
);
guides = (
{
pos = (-77,513);
showMeasurement = 1;
},
{
angle = 180;
pos = (44,310);
showMeasurement = 1;
}
);
layerId = m002;
shapes = (
{
closed = 1;
nodes = (
(309,0,l),
(432,601,l),
(373,601,l),
(493,0,l),
(667,0,l),
(795,710,l),
(646,710,l),
(545,75,l),
(609,75,l),
(481,710,l),
(326,710,l),
(195,75,l),
(264,75,l),
(166,710,l),
(7,710,l),
(135,0,l)
);
}
);
width = 802;
},
{
anchors = (
{
name = bottom;
pos = (330,0);
},
{
name = top;
pos = (533,710);
}
);
guides = (
{
pos = (-179,513);
showMeasurement = 1;
},
{
angle = 180;
pos = (-58,310);
showMeasurement = 1;
}
);
layerId = m003;
shapes = (
{
closed = 1;
nodes = (
(228,0,l),
(540,601,l),
(501,601,l),
(469,0,l),
(589,0,l),
(964,710,l),
(858,710,l),
(530,75,l),
(563,75,l),
(597,710,l),
(496,710,l),
(168,75,l),
(201,75,l),
(237,710,l),
(139,710,l),
(108,0,l)
);
}
);
width = 845;
},
{
anchors = (
{
name = bottom;
pos = (310,0);
},
{
name = top;
pos = (509,710);
}
);
guides = (
{
pos = (-49,513);
showMeasurement = 1;
},
{
angle = 180;
pos = (72,310);
showMeasurement = 1;
}
);
layerId = m004;
shapes = (
{
closed = 1;
nodes = (
(233,0,l),
(501,601,l),
(428,601,l),
(360,0,l),
(555,0,l),
(856,710,l),
(701,710,l),
(441,75,l),
(496,75,l),
(566,710,l),
(404,710,l),
(120,75,l),
(184,75,l),
(283,710,l),
(135,710,l),
(39,0,l)
);
}
);
width = 736;
},
{
anchors = (
{
name = bottom;
pos = (419,0);
},
{
name = top;
pos = (419,710);
}
);
guides = (
{
pos = (-63,513);
showMeasurement = 1;
},
{
angle = 180;
pos = (58,310);
showMeasurement = 1;
}
);
layerId = m005;
shapes = (
{
closed = 1;
nodes = (
(326,0,l),
(454,581,l),
(387,581,l),
(510,0,l),
(717,0,l),
(831,710,l),
(626,710,l),
(549,75,l),
(652,75,l),
(526,710,l),
(323,710,l),
(185,75,l),
(294,75,l),
(222,710,l),
(5,710,l),
(119,0,l)
);
}
);
width = 836;
}
);
unicode = 87;
},
{
glyphname = X;
lastChange = "2022-06-04 06:29:16 +0000";
layers = (
{
anchors = (
{
name = bottom;
pos = (292,0);
},
{
name = top;
pos = (292,710);
}
);
layerId = m01;
shapes = (
{
closed = 1;
nodes = (
(120,0,l),
(311,341,l),
(347,341,l),
(564,710,l),
(448,710,l),
(279,410,l),
(241,406,l),
(4,0,l)
);
},
{
closed = 1;
nodes = (
(579,0,l),
(344,409,l),
(317,436,l),
(164,710,l),
(46,710,l),
(252,353,l),
(275,332,l),
(459,0,l)
);
}
);
width = 591;
},
{
associatedMasterId = m01;
layerId = "ECCD70BB-EEDE-4C27-8285-7589353F4F38";
name = "24 Oct 21, 17:29";
shapes = (
{
closed = 1;
nodes = (
(116,0,l),
(369,338,l),
(327,338,l),
(580,0,l),
(698,0,l),
(370,433,l),
(328,433,l),
(0,0,l)
);
},
{
closed = 1;
nodes = (
(378,317,l),
(676,710,l),
(560,710,l),
(337,412,l),
(379,412,l),
(156,710,l),
(38,710,l),
(336,317,l)
);
}
);
width = 698;
},
{
anchors = (
{
name = bottom;
pos = (314,0);
},
{
name = top;
pos = (314,710);
}
);
layerId = m002;
shapes = (
{
closed = 1;
nodes = (
(190,0,l),
(363,341,l),
(411,341,l),
(622,710,l),
(438,710,l),
(282,410,l),
(231,406,l),
(2,0,l)
);
},
{
closed = 1;
nodes = (
(630,0,l),
(403,409,l),
(356,436,l),
(216,710,l),
(26,710,l),
(227,353,l),
(269,332,l),
(440,0,l)
);
}
);
width = 634;
},
{
associatedMasterId = m002;
layerId = "CFB1095A-143C-416E-B837-3AC3CED03EBE";
name = "24 Oct 21, 17:29";
shapes = (
{
closed = 1;
nodes = (
(116,0,l),
(369,338,l),
(327,338,l),
(580,0,l),
(698,0,l),
(370,433,l),
(328,433,l),
(0,0,l)
);
},
{
closed = 1;
nodes = (
(378,317,l),
(676,710,l),
(560,710,l),
(337,412,l),
(379,412,l),
(156,710,l),
(38,710,l),
(336,317,l)
);
}
);
width = 698;
},
{
anchors = (
{
name = bottom;
pos = (216,0);
},
{
name = top;
pos = (419,710);
}
);
layerId = m003;
shapes = (
{
closed = 1;
nodes = (
(53,0,l),
(341,341,l),
(376,341,l),
(701,710,l),
(575,710,l),
(321,410,l),
(284,406,l),
(-72,0,l)
);
},
{
closed = 1;
nodes = (
(500,0,l),
(378,409,l),
(367,436,l),
(289,710,l),
(182,710,l),
(288,353,l),
(298,332,l),
(393,0,l)
);
}
);
width = 590;
},
{
associatedMasterId = m003;
layerId = "5B1EBBCA-2F58-4946-9142-7387D4179783";
name = "24 Oct 21, 17:29";
shapes = (
{
closed = 1;
nodes = (
(116,0,l),
(369,338,l),
(327,338,l),
(580,0,l),
(698,0,l),
(370,433,l),
(328,433,l),
(0,0,l)
);
},
{
closed = 1;
nodes = (
(378,317,l),
(676,710,l),
(560,710,l),
(337,412,l),
(379,412,l),
(156,710,l),
(38,710,l),
(336,317,l)
);
}
);
width = 698;
},
{
anchors = (
{
name = bottom;
pos = (240,0);
},
{
name = top;
pos = (438,710);
}
);
layerId = m004;
shapes = (
{
closed = 1;
nodes = (
(117,0,l),
(372,324,l),
(427,324,l),
(764,710,l),
(560,710,l),
(326,423,l),
(266,419,l),
(-88,0,l)
);
},
{
closed = 1;
nodes = (
(543,0,l),
(423,409,l),
(408,436,l),
(321,710,l),
(145,710,l),
(256,353,l),
(272,332,l),
(368,0,l)
);
}
);
width = 624;
},
{
associatedMasterId = m004;
layerId = "BF5AF505-1F1C-4C8F-A53E-497BF4FA635A";
name = "24 Oct 21, 17:29";
shapes = (
{
closed = 1;
nodes = (
(116,0,l),
(369,338,l),
(327,338,l),
(580,0,l),
(698,0,l),
(370,433,l),
(328,433,l),
(0,0,l)
);
},
{
closed = 1;
nodes = (
(378,317,l),
(676,710,l),
(560,710,l),
(337,412,l),
(379,412,l),
(156,710,l),
(38,710,l),
(336,317,l)
);
}
);
width = 698;
},
{
anchors = (
{
name = bottom;
pos = (332,0);
},
{
name = top;
pos = (332,710);
}
);
layerId = m005;
shapes = (
{
closed = 1;
nodes = (
(265,0,l),
(407,341,l),
(462,341,l),
(662,710,l),
(423,710,l),
(292,410,l),
(234,406,l),
(14,0,l)
);
},
{
closed = 1;
nodes = (
(671,0,l),
(452,409,l),
(385,436,l),
(269,710,l),
(16,710,l),
(211,353,l),
(269,332,l),
(418,0,l)
);
}
);
width = 681;
},
{
associatedMasterId = m005;
layerId = "53CFA4C0-B559-4291-AFF0-C75478E02809";
name = "24 Oct 21, 17:29";
shapes = (
{
closed = 1;
nodes = (
(116,0,l),
(369,338,l),
(327,338,l),
(580,0,l),
(698,0,l),
(370,433,l),
(328,433,l),
(0,0,l)
);
},
{
closed = 1;
nodes = (
(378,317,l),
(676,710,l),
(560,710,l),
(337,412,l),
(379,412,l),
(156,710,l),
(38,710,l),
(336,317,l)
);
}
);
width = 698;
}
);
unicode = 88;
},
{
glyphname = Y;
lastChange = "2022-06-07 12:48:31 +0000";
layers = (
{
anchors = (
{
name = bottom;
pos = (281,0);
},
{
name = top;
pos = (281,710);
},
{
name = topleft;
pos = (25,710);
}
);
guides = (
{
angle = 180;
pos = (-12,675);
showMeasurement = 1;
},
{
pos = (110,451);
showMeasurement = 1;
}
);
layerId = m01;
shapes = (
{
closed = 1;
nodes = (
(311,217,l),
(566,710,l),
(456,710,l),
(261,316,l),
(304,316,l),
(108,710,l),
(-4,710,l),
(250,217,l)
);
},
{
closed = 1;
nodes = (
(332,0,l),
(332,291,l),
(230,291,l),
(230,0,l)
);
}
);
width = 562;
},
{
anchors = (
{
name = bottom;
pos = (321,0);
},
{
name = top;
pos = (321,710);
},
{
name = topleft;
pos = (56,710);
}
);
guides = (
{
angle = 180;
pos = (89,675);
showMeasurement = 1;
},
{
pos = (211,451);
showMeasurement = 1;
}
);
layerId = m002;
shapes = (
{
closed = 1;
nodes = (
(387,287,l),
(626,710,l),
(444,710,l),
(274,382,l),
(352,382,l),
(182,710,l),
(-4,710,l),
(236,287,l)
);
},
{
closed = 1;
nodes = (
(395,0,l),
(395,361,l),
(228,361,l),
(228,0,l)
);
}
);
width = 622;
},
{
anchors = (
{
name = bottom;
pos = (190,0);
},
{
name = top;
pos = (393,710);
},
{
name = topleft;
pos = (137,710);
}
);
guides = (
{
angle = 180;
pos = (-112,675);
showMeasurement = 1;
},
{
pos = (10,451);
showMeasurement = 1;
}
);
layerId = m003;
shapes = (
{
closed = 1;
nodes = (
(299,217,l),
(695,710,l),
(576,710,l),
(267,316,l),
(312,316,l),
(225,710,l),
(125,710,l),
(238,217,l)
);
},
{
closed = 1;
nodes = (
(258,0,l),
(341,291,l),
(238,291,l),
(155,0,l)
);
}
);
width = 563;
},
{
anchors = (
{
name = bottom;
pos = (248,0);
},
{
name = top;
pos = (447,710);
},
{
name = topleft;
pos = (172,710);
}
);
guides = (
{
angle = 180;
pos = (117,675);
showMeasurement = 1;
},
{
pos = (239,451);
showMeasurement = 1;
}
);
layerId = m004;
shapes = (
{
closed = 1;
nodes = (
(403,287,l),
(755,710,l),
(561,710,l),
(303,382,l),
(369,382,l),
(290,710,l),
(116,710,l),
(232,287,l)
);
},
{
closed = 1;
nodes = (
(325,0,l),
(426,361,l),
(250,361,l),
(149,0,l)
);
}
);
width = 616;
},
{
anchors = (
{
name = bottom;
pos = (343,0);
},
{
name = top;
pos = (343,710);
},
{
name = topleft;
pos = (20,710);
}
);
guides = (
{
angle = 180;
pos = (151,675);
showMeasurement = 1;
},
{
pos = (273,451);
showMeasurement = 1;
}
);
layerId = m005;
shapes = (
{
closed = 1;
nodes = (
(452,287,l),
(681,710,l),
(427,710,l),
(285,382,l),
(402,382,l),
(259,710,l),
(4,710,l),
(233,287,l)
);
},
{
closed = 1;
nodes = (
(457,0,l),
(457,361,l),
(228,361,l),
(228,0,l)
);
}
);
width = 685;
}
);
unicode = 89;
},
{
glyphname = Z;
lastChange = "2022-06-07 06:23:22 +0000";
layers = (
{
anchors = (
{
name = bottom;
pos = (288,0);
},
{
name = center;
pos = (288,355);
},
{
name = top;
pos = (288,710);
}
);
layerId = m01;
shapes = (
{
closed = 1;
nodes = (
(540,0,l),
(540,90,l),
(102,90,l),
(113,42,l),
(518,613,l),
(518,710,l),
(56,710,l),
(56,620,l),
(448,620,l),
(432,666,l),
(35,102,l),
(35,0,l)
);
}
);
width = 575;
},
{
anchors = (
{
name = bottom;
pos = (295,0);
},
{
name = center;
pos = (295,355);
},
{
name = top;
pos = (295,710);
}
);
layerId = m002;
shapes = (
{
closed = 1;
nodes = (
(557,0,l),
(557,132,l),
(144,132,l),
(172,69,l),
(541,593,l),
(541,710,l),
(53,710,l),
(53,578,l),
(447,578,l),
(393,632,l),
(28,114,l),
(28,0,l)
);
}
);
width = 585;
},
{
anchors = (
{
name = bottom;
pos = (196,0);
},
{
name = center;
pos = (298,355);
},
{
name = top;
pos = (399,710);
}
);
layerId = m003;
shapes = (
{
closed = 1;
nodes = (
(463,0,l),
(489,90,l),
(55,90,l),
(61,27,l),
(612,598,l),
(645,710,l),
(186,710,l),
(161,620,l),
(548,620,l),
(528,651,l),
(-13,87,l),
(-38,0,l)
);
}
);
width = 574;
},
{
anchors = (
{
name = bottom;
pos = (223,0);
},
{
name = center;
pos = (323,355);
},
{
name = top;
pos = (422,710);
}
);
layerId = m004;
shapes = (
{
closed = 1;
nodes = (
(464,0,l),
(501,132,l),
(117,132,l),
(163,80,l),
(606,583,l),
(642,710,l),
(178,710,l),
(141,578,l),
(494,578,l),
(433,622,l),
(-9,125,l),
(-42,0,l)
);
}
);
width = 570;
},
{
anchors = (
{
name = bottom;
pos = (307,0);
},
{
name = center;
pos = (307,355);
},
{
name = top;
pos = (307,710);
}
);
background = {
shapes = (
{
closed = 1;
nodes = (
(70,710,l),
(70,558,l),
(426,558,l),
(32,147,l),
(32,0,l),
(706,0,l),
(706,153,l),
(293,153,l),
(691,568,l),
(691,710,l)
);
}
);
};
layerId = m005;
shapes = (
{
closed = 1;
nodes = (
(585,0,l),
(585,161,l),
(177,161,l),
(202,69,l),
(578,543,l),
(578,710,l),
(52,710,l),
(52,548,l),
(481,548,l),
(393,632,l),
(19,163,l),
(19,0,l)
);
}
);
width = 605;
}
);
unicode = 90;
},
{
glyphname = I.ss01;
lastChange = "2022-06-07 12:48:37 +0000";
layers = (
{
anchors = (
{
name = bottom;
pos = (189,0);
},
{
name = ogonek;
pos = (298,10);
},
{
name = top;
pos = (189,710);
},
{
name = topleft;
pos = (71,710);
}
);
layerId = m01;
shapes = (
{
closed = 1;
nodes = (
(240,20,l),
(240,693,l),
(139,693,l),
(139,20,l)
);
},
{
closed = 1;
nodes = (
(351,636,l),
(351,710,l),
(27,710,l),
(27,636,l)
);
},
{
closed = 1;
nodes = (
(357,0,l),
(357,74,l),
(22,74,l),
(22,0,l)
);
}
);
width = 379;
},
{
anchors = (
{
name = bottom;
pos = (204,0);
},
{
name = ogonek;
pos = (335,10);
},
{
name = top;
pos = (204,710);
},
{
name = topleft;
pos = (56,710);
}
);
layerId = m002;
shapes = (
{
closed = 1;
nodes = (
(274,0,l),
(274,683,l),
(133,683,l),
(133,0,l)
);
},
{
closed = 1;
nodes = (
(382,601,l),
(382,710,l),
(25,710,l),
(25,601,l)
);
},
{
closed = 1;
nodes = (
(391,0,l),
(391,104,l),
(17,104,l),
(17,0,l)
);
}
);
width = 408;
},
{
anchors = (
{
name = bottom;
pos = (132,0);
},
{
name = ogonek;
pos = (243,10);
},
{
name = top;
pos = (288,710);
},
{
name = topleft;
pos = (170,710);
}
);
layerId = m003;
shapes = (
{
closed = 1;
nodes = (
(189,20,l),
(336,693,l),
(234,693,l),
(87,20,l)
);
},
{
closed = 1;
nodes = (
(436,636,l),
(450,710,l),
(126,710,l),
(113,636,l)
);
},
{
closed = 1;
nodes = (
(300,0,l),
(314,74,l),
(-21,74,l),
(-35,0,l)
);
}
);
width = 379;
},
{
anchors = (
{
name = bottom;
pos = (237,0);
},
{
name = ogonek;
pos = (385,10);
},
{
name = top;
pos = (182,710);
},
{
name = topleft;
pos = (11,710);
}
);
layerId = m004;
shapes = (
{
closed = 1;
nodes = (
(322,0,l),
(270,683,l),
(99,683,l),
(151,0,l)
);
},
{
closed = 1;
nodes = (
(384,601,l),
(376,710,l),
(-11,710,l),
(-3,601,l)
);
},
{
closed = 1;
nodes = (
(440,0,l),
(433,104,l),
(25,104,l),
(33,0,l)
);
}
);
width = 433;
},
{
anchors = (
{
name = bottom;
pos = (202,0);
},
{
name = ogonek;
pos = (389,0);
},
{
name = top;
pos = (202,710);
},
{
name = topleft;
pos = (50,710);
}
);
layerId = m005;
shapes = (
{
closed = 1;
nodes = (
(317,30,l),
(317,683,l),
(88,683,l),
(88,30,l)
);
},
{
closed = 1;
nodes = (
(380,550,l),
(380,710,l),
(24,710,l),
(24,550,l)
);
},
{
closed = 1;
nodes = (
(389,0,l),
(389,160,l),
(15,160,l),
(15,0,l)
);
}
);
width = 404;
}
);
},
{
glyphname = M.ss01;
lastChange = "2022-06-07 12:48:40 +0000";
layers = (
{
anchors = (
{
name = bottom;
pos = (394,0);
},
{
name = top;
pos = (394,710);
}
);
guides = (
{
angle = 90;
pos = (1180,497);
showMeasurement = 1;
},
{
pos = (-184,201);
showMeasurement = 1;
},
{
pos = (584,571);
}
);
layerId = m01;
shapes = (
{
closed = 1;
nodes = (
(168,0,l),
(168,640,l),
(145,637,l),
(350,0,l),
(431,0,l),
(641,637,l),
(617,640,l),
(617,0,l),
(707,0,l),
(707,710,l),
(581,710,l),
(376,84,l),
(415,84,l),
(215,710,l),
(80,710,l),
(80,0,l)
);
}
);
width = 787;
},
{
anchors = (
{
name = bottom;
pos = (375,0);
},
{
name = top;
pos = (375,710);
}
);
guides = (
{
angle = 90;
pos = (1187,497);
showMeasurement = 1;
},
{
pos = (-177,201);
showMeasurement = 1;
},
{
pos = (632,513);
}
);
layerId = m002;
shapes = (
{
closed = 1;
nodes = (
(201,0,l),
(201,640,l),
(154,637,l),
(324,0,l),
(435,0,l),
(611,637,l),
(563,640,l),
(563,0,l),
(712,0,l),
(712,710,l),
(509,710,l),
(348,84,l),
(434,84,l),
(277,710,l),
(64,710,l),
(64,0,l)
);
}
);
width = 776;
},
{
anchors = (
{
name = bottom;
pos = (320,0);
},
{
name = top;
pos = (523,710);
}
);
guides = (
{
angle = 90;
pos = (1108,497);
showMeasurement = 1;
},
{
pos = (-256,201);
showMeasurement = 1;
},
{
pos = (512,571);
}
);
layerId = m003;
shapes = (
{
closed = 1;
nodes = (
(96,0,l),
(279,640,l),
(254,637,l),
(276,0,l),
(359,0,l),
(751,637,l),
(731,640,l),
(548,0,l),
(639,0,l),
(842,710,l),
(705,710,l),
(321,84,l),
(361,84,l),
(339,710,l),
(209,710,l),
(6,0,l)
);
}
);
width = 794;
},
{
anchors = (
{
name = bottom;
pos = (308,0);
},
{
name = top;
pos = (507,710);
}
);
guides = (
{
angle = 90;
pos = (1115,497);
showMeasurement = 1;
},
{
pos = (-249,201);
showMeasurement = 1;
},
{
pos = (560,513);
}
);
layerId = m004;
shapes = (
{
closed = 1;
nodes = (
(143,0,l),
(321,640,l),
(265,637,l),
(244,0,l),
(361,0,l),
(701,637,l),
(650,640,l),
(471,0,l),
(624,0,l),
(823,710,l),
(610,710,l),
(268,84,l),
(381,84,l),
(393,710,l),
(193,710,l),
(-6,0,l)
);
}
);
width = 765;
},
{
anchors = (
{
name = bottom;
pos = (387,0);
},
{
name = top;
pos = (387,710);
}
);
guides = (
{
angle = 90;
pos = (1172,497);
showMeasurement = 1;
},
{
pos = (-192,201);
showMeasurement = 1;
},
{
pos = (600,428);
}
);
layerId = m005;
shapes = (
{
closed = 1;
nodes = (
(225,0,l),
(225,640,l),
(156,637,l),
(303,0,l),
(435,0,l),
(591,637,l),
(519,640,l),
(519,0,l),
(728,0,l),
(728,710,l),
(447,710,l),
(338,186,l),
(442,186,l),
(338,710,l),
(46,710,l),
(46,0,l)
);
}
);
width = 774;
}
);
metricLeft = H;
metricRight = H;
},
{
glyphname = a;
lastChange = "2022-06-07 12:40:22 +0000";
layers = (
{
anchors = (
{
name = bottom;
pos = (247,0);
},
{
name = ogonek;
pos = (488,0);
},
{
name = top;
pos = (237,520);
}
);
background = {
shapes = (
{
pos = (7,0);
ref = a.ss01;
}
);
};
layerId = m01;
shapes = (
{
closed = 1;
nodes = (
(470,0,l),
(435,78,o),
(429,108,o),
(429,292,cs),
(429,370,ls),
(429,471,o),
(365,532,o),
(236,532,cs),
(123,532,o),
(64,484,o),
(43,410,c),
(142,384,l),
(151,430,o),
(184,450,o),
(235,450,cs),
(300,450,o),
(336,425,o),
(336,360,cs),
(336,280,ls),
(336,88,o),
(345,54,o),
(365,0,c)
);
},
{
closed = 1;
nodes = (
(278,-10,o),
(334,45,o),
(367,150,c),
(342,186,l),
(319,101,o),
(278,70,o),
(227,70,cs),
(166,70,o),
(136,106,o),
(136,160,cs),
(136,207,o),
(157,235,o),
(209,248,cs),
(388,292,l),
(374,354,l),
(185,313,ls),
(90,292,o),
(43,244,o),
(43,157,cs),
(43,46,o),
(117,-10,o),
(199,-10,cs)
);
}
);
width = 492;
},
{
associatedMasterId = m01;
background = {
shapes = (
{
ref = a.ss01;
}
);
};
layerId = "D1D7D62B-C4D7-41F5-8A68-9F6EE276A2D6";
name = "8 Dec 21, 17:57";
shapes = (
{
closed = 1;
nodes = (
(527,0,l),
(496,54,o),
(486,83,o),
(486,133,cs),
(486,360,ls),
(486,467,o),
(415,532,o),
(274,532,cs),
(148,532,o),
(72,472,o),
(46,380,c),
(136,354,l),
(150,420,o),
(196,452,o),
(274,452,cs),
(350,452,o),
(394,422,o),
(394,350,cs),
(394,121,ls),
(394,65,o),
(402,34,o),
(421,0,c)
);
},
{
closed = 1;
nodes = (
(323,-10,o),
(387,43,o),
(417,147,c),
(411,168,l),
(362,97,o),
(314,68,o),
(253,68,cs),
(170,68,o),
(140,103,o),
(140,154,cs),
(140,191,o),
(163,219,o),
(232,234,cs),
(441,280,l),
(425,336,l),
(213,295,ls),
(98,273,o),
(47,228,o),
(47,151,cs),
(47,44,o),
(132,-10,o),
(240,-10,cs)
);
}
);
width = 551;
},
{
associatedMasterId = m01;
background = {
shapes = (
{
ref = a.ss01;
}
);
};
layerId = "0166F734-0AAF-45DE-A0CC-BB4FFDDF146F";
name = "8 Dec 21, 18:12";
shapes = (
{
closed = 1;
nodes = (
(527,0,l),
(496,54,o),
(486,83,o),
(486,133,cs),
(486,360,ls),
(486,467,o),
(415,532,o),
(274,532,cs),
(148,532,o),
(72,480,o),
(46,400,c),
(136,374,l),
(150,427,o),
(196,452,o),
(274,452,cs),
(350,452,o),
(394,422,o),
(394,350,cs),
(394,121,ls),
(394,65,o),
(402,34,o),
(421,0,c)
);
},
{
closed = 1;
nodes = (
(323,-10,o),
(391,43,o),
(417,147,c),
(411,168,l),
(373,93,o),
(314,68,o),
(253,68,cs),
(170,68,o),
(140,103,o),
(140,154,cs),
(140,196,o),
(163,229,o),
(232,244,cs),
(441,290,l),
(425,346,l),
(213,305,ls),
(98,283,o),
(47,233,o),
(47,151,cs),
(47,44,o),
(132,-10,o),
(240,-10,cs)
);
}
);
width = 551;
},
{
associatedMasterId = m01;
background = {
shapes = (
{
ref = a.ss01;
}
);
};
layerId = "733CB027-206E-41A2-A518-CE6E52BB3746";
name = "8 Dec 21, 18:13";
shapes = (
{
closed = 1;
nodes = (
(547,0,l),
(500,58,o),
(486,89,o),
(486,143,cs),
(486,360,ls),
(486,467,o),
(415,532,o),
(274,532,cs),
(148,532,o),
(72,480,o),
(46,400,c),
(136,374,l),
(150,427,o),
(196,452,o),
(274,452,cs),
(350,452,o),
(394,422,o),
(394,350,cs),
(394,131,ls),
(394,70,o),
(405,37,o),
(435,0,c)
);
},
{
closed = 1;
nodes = (
(323,-10,o),
(391,43,o),
(417,147,c),
(411,168,l),
(373,93,o),
(314,68,o),
(253,68,cs),
(170,68,o),
(140,103,o),
(140,154,cs),
(140,196,o),
(163,229,o),
(232,244,cs),
(441,290,l),
(425,346,l),
(213,305,ls),
(98,283,o),
(47,233,o),
(47,151,cs),
(47,44,o),
(132,-10,o),
(240,-10,cs)
);
}
);
width = 551;
},
{
anchors = (
{
name = bottom;
pos = (194,0);
},
{
name = ogonek;
pos = (433,23);
},
{
name = top;
pos = (339,520);
}
);
background = {
anchors = (
{
name = bottom;
pos = (283,0);
},
{
name = ogonek;
pos = (512,10);
},
{
name = top;
pos = (283,520);
}
);
};
layerId = m003;
shapes = (
{
closed = 1;
nodes = (
(402,-4,o),
(437,14,o),
(462,52,c),
(467,70,l),
(453,65,o),
(442,64,o),
(428,64,cs),
(385,64,o),
(368,94,o),
(387,150,cs),
(449,334,ls),
(492,462,o),
(407,532,o),
(297,532,cs),
(204,532,o),
(136,505,o),
(85,462,c),
(161,404,l),
(202,439,o),
(238,450,o),
(288,450,cs),
(349,450,o),
(386,412,o),
(358,334,cs),
(304,186,ls),
(254,48,o),
(307,-4,o),
(362,-4,cs)
);
},
{
closed = 1;
nodes = (
(211,-8,o),
(276,59,o),
(331,183,c),
(315,211,l),
(260,100,o),
(217,70,o),
(171,70,cs),
(138,70,o),
(113,87,o),
(113,129,cs),
(113,217,o),
(195,275,o),
(356,299,cs),
(398,305,l),
(400,373,l),
(350,365,ls),
(118,327,o),
(19,241,o),
(19,119,cs),
(19,39,o),
(74,-8,o),
(137,-8,cs)
);
}
);
width = 509;
},
{
anchors = (
{
name = bottom;
pos = (245,0);
},
{
name = ogonek;
pos = (504,10);
},
{
name = top;
pos = (395,520);
}
);
associatedMasterId = m003;
background = {
shapes = (
{
pos = (7,0);
ref = a.ss01;
}
);
};
layerId = "16D96DBD-DDB7-4F39-B6D8-98D2404E3FD0";
metricLeft = "=d";
metricRight = "=d";
name = "20 Dec 21, 12:05";
shapes = (
{
closed = 1;
nodes = (
(412,-12,o),
(504,216,o),
(504,355,cs),
(504,466,o),
(450,532,o),
(345,532,cs),
(155,532,o),
(43,339,o),
(43,186,cs),
(43,65,o),
(127,-12,o),
(229,-12,cs)
);
},
{
closed = 1;
nodes = (
(191,66,o),
(137,109,o),
(137,195,cs),
(137,291,o),
(208,453,o),
(347,453,cs),
(412,453,o),
(466,416,o),
(466,326,cs),
(466,224,o),
(399,66,o),
(258,66,cs)
);
},
{
closed = 1;
nodes = (
(544,520,l),
(496,386,l),
(440,187,ls),
(418,109,o),
(418,65,o),
(439,0,c),
(541,0,l),
(510,72,o),
(513,112,o),
(530,173,cs),
(627,520,l)
);
}
);
width = 640;
},
{
anchors = (
{
name = bottom;
pos = (245,0);
},
{
name = ogonek;
pos = (504,10);
},
{
name = top;
pos = (395,520);
}
);
associatedMasterId = m003;
background = {
shapes = (
{
pos = (7,0);
ref = a.ss01;
}
);
};
layerId = "DAA134AC-DF1B-49F8-A982-2B5CC8DE81DE";
name = "20 Dec 21, 12:23";
shapes = (
{
closed = 1;
nodes = (
(488,0,l),
(457,71,o),
(454,105,o),
(473,172,cs),
(518,334,ls),
(554,465,o),
(452,532,o),
(324,532,cs),
(224,532,o),
(152,505,o),
(93,462,c),
(175,404,l),
(222,439,o),
(260,450,o),
(313,450,cs),
(392,450,o),
(453,415,o),
(428,334,cs),
(381,179,ls),
(361,112,o),
(363,65,o),
(388,0,c)
);
},
{
closed = 1;
nodes = (
(279,-8,o),
(345,45,o),
(415,176,c),
(394,210,l),
(328,100,o),
(273,70,o),
(208,70,cs),
(160,70,o),
(126,89,o),
(126,136,cs),
(126,191,o),
(163,264,o),
(420,299,cs),
(464,305,l),
(465,373,l),
(409,365,ls),
(97,320,o),
(30,223,o),
(30,129,cs),
(30,43,o),
(101,-8,o),
(190,-8,cs)
);
}
);
width = 583;
},
{
anchors = (
{
name = bottom;
pos = (184,0);
},
{
name = ogonek;
pos = (414,20);
},
{
name = top;
pos = (310,530);
}
);
layerId = m004;
shapes = (
{
closed = 1;
nodes = (
(388,-5,o),
(435,23,o),
(484,74,c),
(490,105,l),
(477,102,o),
(468,100,o),
(450,100,cs),
(403,100,o),
(399,121,o),
(435,236,cs),
(470,348,ls),
(512,478,o),
(414,542,o),
(300,542,cs),
(198,542,o),
(131,511,o),
(91,465,c),
(196,374,l),
(220,413,o),
(260,434,o),
(298,434,cs),
(335,434,o),
(333,409,o),
(319,362,cs),
(269,198,ls),
(230,71,o),
(252,-5,o),
(333,-5,cs)
);
},
{
closed = 1;
nodes = (
(180,-9,o),
(241,48,o),
(304,180,c),
(284,220,l),
(241,136,o),
(200,106,o),
(185,106,cs),
(168,106,o),
(157,119,o),
(157,145,cs),
(157,209,o),
(225,251,o),
(375,279,cs),
(423,288,l),
(435,366,l),
(375,360,ls),
(131,334,o),
(3,247,o),
(3,111,cs),
(3,44,o),
(46,-9,o),
(118,-9,cs)
);
}
);
width = 541;
},
{
associatedMasterId = m004;
background = {
shapes = (
{
ref = a.ss01;
}
);
};
layerId = "94B48638-D24F-41F4-9B13-8BEAE151CB2B";
name = "8 Dec 21, 17:57";
shapes = (
{
closed = 1;
nodes = (
(527,0,l),
(496,54,o),
(486,83,o),
(486,133,cs),
(486,360,ls),
(486,467,o),
(415,532,o),
(274,532,cs),
(148,532,o),
(72,472,o),
(46,380,c),
(136,354,l),
(150,420,o),
(196,452,o),
(274,452,cs),
(350,452,o),
(394,422,o),
(394,350,cs),
(394,121,ls),
(394,65,o),
(402,34,o),
(421,0,c)
);
},
{
closed = 1;
nodes = (
(323,-10,o),
(387,43,o),
(417,147,c),
(411,168,l),
(362,97,o),
(314,68,o),
(253,68,cs),
(170,68,o),
(140,103,o),
(140,154,cs),
(140,191,o),
(163,219,o),
(232,234,cs),
(441,280,l),
(425,336,l),
(213,295,ls),
(98,273,o),
(47,228,o),
(47,151,cs),
(47,44,o),
(132,-10,o),
(240,-10,cs)
);
}
);
width = 551;
},
{
associatedMasterId = m004;
background = {
shapes = (
{
ref = a.ss01;
}
);
};
layerId = "A090C489-6F27-4A91-B838-D8BE67739EE9";
name = "8 Dec 21, 18:12";
shapes = (
{
closed = 1;
nodes = (
(527,0,l),
(496,54,o),
(486,83,o),
(486,133,cs),
(486,360,ls),
(486,467,o),
(415,532,o),
(274,532,cs),
(148,532,o),
(72,480,o),
(46,400,c),
(136,374,l),
(150,427,o),
(196,452,o),
(274,452,cs),
(350,452,o),
(394,422,o),
(394,350,cs),
(394,121,ls),
(394,65,o),
(402,34,o),
(421,0,c)
);
},
{
closed = 1;
nodes = (
(323,-10,o),
(391,43,o),
(417,147,c),
(411,168,l),
(373,93,o),
(314,68,o),
(253,68,cs),
(170,68,o),
(140,103,o),
(140,154,cs),
(140,196,o),
(163,229,o),
(232,244,cs),
(441,290,l),
(425,346,l),
(213,305,ls),
(98,283,o),
(47,233,o),
(47,151,cs),
(47,44,o),
(132,-10,o),
(240,-10,cs)
);
}
);
width = 551;
},
{
associatedMasterId = m004;
background = {
shapes = (
{
ref = a.ss01;
}
);
};
layerId = "0131F275-49A3-4BC9-840C-E0372B3EF713";
name = "8 Dec 21, 18:13";
shapes = (
{
closed = 1;
nodes = (
(547,0,l),
(500,58,o),
(486,89,o),
(486,143,cs),
(486,360,ls),
(486,467,o),
(415,532,o),
(274,532,cs),
(148,532,o),
(72,480,o),
(46,400,c),
(136,374,l),
(150,427,o),
(196,452,o),
(274,452,cs),
(350,452,o),
(394,422,o),
(394,350,cs),
(394,131,ls),
(394,70,o),
(405,37,o),
(435,0,c)
);
},
{
closed = 1;
nodes = (
(323,-10,o),
(391,43,o),
(417,147,c),
(411,168,l),
(373,93,o),
(314,68,o),
(253,68,cs),
(170,68,o),
(140,103,o),
(140,154,cs),
(140,196,o),
(163,229,o),
(232,244,cs),
(441,290,l),
(425,346,l),
(213,305,ls),
(98,283,o),
(47,233,o),
(47,151,cs),
(47,44,o),
(132,-10,o),
(240,-10,cs)
);
}
);
width = 551;
},
{
anchors = (
{
name = bottom;
pos = (290,0);
},
{
name = ogonek;
pos = (570,0);
},
{
name = top;
pos = (280,530);
}
);
associatedMasterId = m002;
background = {
shapes = (
{
pos = (6,0);
ref = a.ss01;
}
);
};
layerId = "8AB8EAAA-4DAD-467A-B84D-E5B4167F5CA6";
name = "15 Feb 22, 14:23";
shapes = (
{
closed = 1;
nodes = (
(512,0,l),
(512,391,ls),
(512,485,o),
(434,542,o),
(280,542,cs),
(120,542,o),
(55,481,o),
(35,427,c),
(198,380,l),
(208,415,o),
(233,432,o),
(277,432,cs),
(328,432,o),
(360,415,o),
(360,375,cs),
(360,129,l),
(408,0,l)
);
},
{
closed = 1;
nodes = (
(296,-10,o),
(344,25,o),
(391,93,c),
(369,151,l),
(343,113,o),
(313,99,o),
(275,99,cs),
(221,99,o),
(192,127,o),
(192,171,cs),
(192,212,o),
(208,239,o),
(258,251,cs),
(457,297,l),
(441,373,l),
(209,332,ls),
(91,311,o),
(39,253,o),
(39,159,cs),
(39,47,o),
(126,-10,o),
(222,-10,cs)
);
}
);
width = 580;
},
{
anchors = (
{
name = bottom;
pos = (255,0);
},
{
name = ogonek;
pos = (494,0);
},
{
name = top;
pos = (253,530);
}
);
layerId = m002;
name = Bold;
shapes = (
{
closed = 1;
nodes = (
(494,0,l),
(467,66,o),
(462,119,o),
(462,330,cs),
(462,391,ls),
(462,485,o),
(402,542,o),
(251,542,cs),
(106,542,o),
(48,481,o),
(30,427,c),
(183,380,l),
(191,415,o),
(212,432,o),
(248,432,cs),
(288,432,o),
(313,415,o),
(313,375,cs),
(313,323,ls),
(313,93,o),
(320,51,o),
(338,0,c)
);
},
{
closed = 1;
nodes = (
(263,-10,o),
(305,25,o),
(343,93,c),
(320,151,l),
(295,110,o),
(269,99,o),
(242,99,cs),
(204,99,o),
(183,126,o),
(183,168,cs),
(183,209,o),
(198,232,o),
(233,243,cs),
(393,289,l),
(380,365,l),
(179,324,ls),
(78,303,o),
(33,249,o),
(33,159,cs),
(33,47,o),
(99,-10,o),
(193,-10,cs)
);
}
);
width = 520;
},
{
anchors = (
{
name = bottom;
pos = (290,0);
},
{
name = ogonek;
pos = (570,0);
},
{
name = top;
pos = (280,530);
}
);
associatedMasterId = m005;
background = {
shapes = (
{
pos = (6,0);
ref = a.ss01;
}
);
};
layerId = "C4CCF857-4447-4037-A912-EB72CBED2E1C";
name = "15 Feb 22, 14:23";
shapes = (
{
closed = 1;
nodes = (
(512,0,l),
(512,391,ls),
(512,485,o),
(434,542,o),
(280,542,cs),
(120,542,o),
(55,481,o),
(35,427,c),
(198,380,l),
(208,415,o),
(233,432,o),
(277,432,cs),
(328,432,o),
(360,415,o),
(360,375,cs),
(360,129,l),
(408,0,l)
);
},
{
closed = 1;
nodes = (
(296,-10,o),
(344,25,o),
(391,93,c),
(369,151,l),
(343,113,o),
(313,99,o),
(275,99,cs),
(221,99,o),
(192,127,o),
(192,171,cs),
(192,212,o),
(208,239,o),
(258,251,cs),
(457,297,l),
(441,373,l),
(209,332,ls),
(91,311,o),
(39,253,o),
(39,159,cs),
(39,47,o),
(126,-10,o),
(222,-10,cs)
);
}
);
width = 580;
},
{
anchors = (
{
name = bottom;
pos = (276,0);
},
{
name = ogonek;
pos = (549,0);
},
{
name = top;
pos = (287,530);
}
);
layerId = m005;
name = Bold;
shapes = (
{
closed = 1;
nodes = (
(544,0,l),
(530,62,o),
(526,95,o),
(526,176,cs),
(526,376,ls),
(526,491,o),
(477,542,o),
(282,542,cs),
(112,542,o),
(48,498,o),
(28,427,c),
(223,380,l),
(231,409,o),
(248,423,o),
(279,423,cs),
(305,423,o),
(323,411,o),
(323,370,cs),
(323,132,ls),
(323,85,o),
(337,42,o),
(366,0,c)
);
},
{
closed = 1;
nodes = (
(282,-10,o),
(324,29,o),
(361,104,c),
(329,161,l),
(304,129,o),
(286,117,o),
(267,117,cs),
(246,117,o),
(236,135,o),
(236,169,cs),
(236,203,o),
(243,225,o),
(267,236,cs),
(410,301,l),
(397,382,l),
(218,333,ls),
(77,294,o),
(32,247,o),
(32,150,cs),
(32,49,o),
(81,-10,o),
(202,-10,cs)
);
}
);
width = 566;
}
);
unicode = 97;
},
{
glyphname = b;
lastChange = "2022-06-07 12:48:51 +0000";
layers = (
{
anchors = (
{
name = bottom;
pos = (265,0);
},
{
name = center;
pos = (160,629);
},
{
name = top;
pos = (109,736);
}
);
background = {
shapes = (
{
pos = (10,0);
ref = o;
}
);
};
layerId = m01;
shapes = (
{
closed = 1;
nodes = (
(411,-12,o),
(494,91,o),
(494,259,cs),
(494,431,o),
(411,532,o),
(301,532,cs),
(192,532,o),
(129,429,o),
(129,260,cs),
(129,91,o),
(192,-12,o),
(301,-12,cs)
);
},
{
closed = 1;
nodes = (
(144,0,l),
(158,133,l),
(158,141,l),
(158,736,l),
(64,736,l),
(64,0,l)
);
},
{
closed = 1;
nodes = (
(210,64,o),
(158,123,o),
(158,259,cs),
(158,393,o),
(210,450,o),
(278,450,cs),
(347,450,o),
(399,393,o),
(399,259,cs),
(399,123,o),
(347,64,o),
(278,64,cs)
);
}
);
width = 541;
},
{
anchors = (
{
name = bottom;
pos = (284,0);
},
{
name = center;
pos = (186,642);
},
{
name = top;
pos = (143,736);
}
);
background = {
shapes = (
{
pos = (18,0);
ref = o;
}
);
};
layerId = m002;
shapes = (
{
closed = 1;
nodes = (
(435,-12,o),
(517,95,o),
(517,264,cs),
(517,437,o),
(435,542,o),
(326,542,cs),
(218,542,o),
(165,435,o),
(165,264,cs),
(165,95,o),
(218,-12,o),
(326,-12,cs)
);
},
{
closed = 1;
nodes = (
(193,0,l),
(196,133,l),
(207,142,l),
(207,736,l),
(56,736,l),
(56,0,l)
);
},
{
closed = 1;
nodes = (
(241,98,o),
(207,142,o),
(207,264,cs),
(207,383,o),
(241,426,o),
(284,426,cs),
(328,426,o),
(362,383,o),
(362,264,cs),
(362,143,o),
(328,98,o),
(284,98,cs)
);
}
);
width = 551;
},
{
anchors = (
{
name = bottom;
pos = (230,4);
},
{
name = center;
pos = (256,631);
},
{
name = top;
pos = (234,736);
}
);
background = {
shapes = (
{
pos = (35,0);
ref = o;
}
);
};
layerId = m003;
shapes = (
{
closed = 1;
nodes = (
(409,-12,o),
(521,196,o),
(521,350,cs),
(521,470,o),
(446,532,o),
(373,532,cs),
(220,532,o),
(128,298,o),
(128,148,cs),
(128,47,o),
(172,-12,o),
(256,-12,cs)
);
},
{
closed = 1;
nodes = (
(59,0,l),
(134,134,l),
(136,140,l),
(306,736,l),
(211,736,l),
(1,0,l)
);
},
{
closed = 1;
nodes = (
(194,66,o),
(161,104,o),
(161,176,cs),
(161,286,o),
(229,453,o),
(336,453,cs),
(387,453,o),
(425,417,o),
(425,343,cs),
(425,239,o),
(350,66,o),
(248,66,cs)
);
}
);
width = 556;
},
{
anchors = (
{
name = bottom;
pos = (329,0);
},
{
name = center;
pos = (190,642);
},
{
name = top;
pos = (141,736);
}
);
layerId = m004;
shapes = (
{
closed = 1;
nodes = (
(439,-11,o),
(530,215,o),
(530,357,cs),
(530,487,o),
(455,542,o),
(386,542,cs),
(254,542,o),
(174,275,o),
(174,136,cs),
(174,42,o),
(214,-11,o),
(285,-11,cs)
);
},
{
closed = 1;
nodes = (
(73,0,l),
(176,133,l),
(178,138,l),
(347,736,l),
(188,736,l),
(-16,0,l)
);
},
{
closed = 1;
nodes = (
(228,105,o),
(207,131,o),
(207,182,cs),
(207,263,o),
(252,432,o),
(318,432,cs),
(351,432,o),
(370,409,o),
(370,358,cs),
(370,276,o),
(330,105,o),
(258,105,cs)
);
}
);
width = 548;
},
{
anchors = (
{
name = bottom;
pos = (282,0);
},
{
name = center;
pos = (199,624);
},
{
name = top;
pos = (136,710);
}
);
background = {
shapes = (
{
pos = (-3,0);
ref = o;
}
);
};
layerId = m005;
shapes = (
{
closed = 1;
nodes = (
(452,-12,o),
(536,95,o),
(536,264,cs),
(536,437,o),
(452,542,o),
(342,542,cs),
(227,542,o),
(173,435,o),
(173,264,cs),
(173,95,o),
(227,-12,o),
(342,-12,cs)
);
},
{
closed = 1;
nodes = (
(167,0,l),
(224,123,l),
(240,133,l),
(240,710,l),
(37,710,l),
(37,0,l)
);
},
{
closed = 1;
nodes = (
(255,131,o),
(240,158,o),
(240,261,cs),
(240,364,o),
(255,393,o),
(284,393,cs),
(313,393,o),
(328,364,o),
(328,261,cs),
(328,158,o),
(313,131,o),
(284,131,cs)
);
}
);
width = 564;
}
);
metricLeft = n;
metricRight = o;
unicode = 98;
},
{
glyphname = c;
lastChange = "2022-06-07 12:48:59 +0000";
layers = (
{
anchors = (
{
name = bottom;
pos = (256,0);
},
{
name = top;
pos = (256,520);
}
);
background = {
shapes = (
{
ref = o;
}
);
};
layerId = m01;
shapes = (
{
closed = 1;
nodes = (
(374,-12,o),
(437,50,o),
(455,159,c),
(365,180,l),
(355,102,o),
(325,68,o),
(266,68,cs),
(193,68,o),
(143,125,o),
(143,258,cs),
(143,393,o),
(192,451,o),
(263,451,cs),
(319,451,o),
(352,419,o),
(359,355,c),
(450,383,l),
(426,481,o),
(368,532,o),
(263,532,cs),
(139,532,o),
(47,429,o),
(47,258,cs),
(47,90,o),
(139,-12,o),
(268,-12,cs)
);
}
);
width = 485;
},
{
anchors = (
{
name = bottom;
pos = (251,0);
},
{
name = top;
pos = (251,530);
}
);
background = {
anchors = (
{
name = bottom;
pos = (304,0);
},
{
name = top;
pos = (304,530);
}
);
shapes = (
{
closed = 1;
nodes = (
(437,-12,o),
(525,47,o),
(542,145,c),
(402,196,l),
(390,129,o),
(360,104,o),
(302,104,cs),
(248,104,o),
(200,146,o),
(200,263,cs),
(200,382,o),
(248,425,o),
(302,425,cs),
(352,425,o),
(381,401,o),
(387,350,c),
(534,400,l),
(514,487,o),
(425,542,o),
(302,542,cs),
(155,542,o),
(42,434,o),
(42,263,cs),
(42,94,o),
(154,-12,o),
(308,-12,cs)
);
}
);
};
layerId = m002;
shapes = (
{
closed = 1;
nodes = (
(409,-12,o),
(472,49,o),
(498,160,c),
(355,197,l),
(347,137,o),
(321,113,o),
(281,113,cs),
(228,113,o),
(191,153,o),
(191,263,cs),
(191,377,o),
(228,420,o),
(278,420,cs),
(321,420,o),
(345,397,o),
(351,343,c),
(495,375,l),
(475,478,o),
(410,542,o),
(275,542,cs),
(130,542,o),
(34,434,o),
(34,263,cs),
(34,94,o),
(129,-12,o),
(282,-12,cs)
);
}
);
width = 518;
},
{
anchors = (
{
name = bottom;
pos = (178,0);
},
{
name = top;
pos = (325,518);
}
);
background = {
shapes = (
{
ref = o;
}
);
};
layerId = m003;
shapes = (
{
closed = 1;
nodes = (
(313,-14,o),
(376,33,o),
(416,135,c),
(336,177,l),
(308,100,o),
(269,66,o),
(222,66,cs),
(171,66,o),
(130,94,o),
(130,170,cs),
(130,264,o),
(189,450,o),
(304,450,cs),
(362,450,o),
(384,425,o),
(383,370,c),
(478,390,l),
(478,487,o),
(405,531,o),
(314,531,cs),
(142,531,o),
(35,321,o),
(35,174,cs),
(35,52,o),
(113,-14,o),
(221,-14,cs)
);
}
);
width = 479;
},
{
associatedMasterId = m003;
background = {
shapes = (
{
ref = o;
}
);
};
layerId = "38C151D6-66DD-4EB4-A66B-0441EB0173C2";
name = "8 Dec 21, 18:16";
shapes = (
{
closed = 1;
nodes = (
(414,-12,o),
(498,43,o),
(530,139,c),
(435,162,l),
(420,97,o),
(373,68,o),
(306,68,cs),
(207,68,o),
(148,125,o),
(148,258,cs),
(148,393,o),
(207,451,o),
(306,451,cs),
(373,451,o),
(421,420,o),
(436,352,c),
(531,377,l),
(499,476,o),
(419,532,o),
(306,532,cs),
(157,532,o),
(52,429,o),
(52,258,cs),
(52,89,o),
(157,-12,o),
(306,-12,cs)
);
}
);
width = 563;
},
{
anchors = (
{
name = bottom;
pos = (153,0);
},
{
name = top;
pos = (307,530);
}
);
background = {
shapes = (
{
pos = (4,0);
ref = o;
}
);
};
layerId = m004;
shapes = (
{
closed = 1;
nodes = (
(316,-12,o),
(375,41,o),
(428,140,c),
(305,196,l),
(277,140,o),
(256,116,o),
(232,116,cs),
(197,116,o),
(176,138,o),
(176,188,cs),
(176,273,o),
(232,420,o),
(287,420,cs),
(328,420,o),
(342,395,o),
(330,344,c),
(482,372,l),
(487,485,o),
(402,542,o),
(290,542,cs),
(137,542,o),
(21,354,o),
(21,200,cs),
(21,60,o),
(123,-12,o),
(235,-12,cs)
);
}
);
width = 478;
},
{
anchors = (
{
name = bottom;
pos = (227,0);
},
{
name = top;
pos = (373,518);
}
);
associatedMasterId = m003;
background = {
shapes = (
{
ref = o;
}
);
};
layerId = "B31B6FA3-0BE8-4626-86E7-0ABECF23BBE8";
name = "16 Feb 22, 14:26";
shapes = (
{
closed = 1;
nodes = (
(367,-14,o),
(442,35,o),
(485,134,c),
(397,165,l),
(375,96,o),
(327,66,o),
(270,66,cs),
(202,66,o),
(145,97,o),
(145,184,cs),
(145,271,o),
(198,450,o),
(337,450,cs),
(414,450,o),
(454,417,o),
(449,356,c),
(550,390,l),
(548,489,o),
(448,531,o),
(350,531,cs),
(155,531,o),
(50,328,o),
(50,184,cs),
(50,55,o),
(139,-14,o),
(268,-14,cs)
);
}
);
width = 554;
},
{
anchors = (
{
name = bottom;
pos = (286,0);
},
{
name = top;
pos = (286,530);
}
);
background = {
anchors = (
{
name = bottom;
pos = (302,0);
},
{
name = top;
pos = (302,530);
}
);
shapes = (
{
closed = 1;
nodes = (
(411,131,o),
(389,124,o),
(362,124,c),
(330,124,o),
(303,135,o),
(283,158,c),
(263,181,o),
(252,214,o),
(252,257,c),
(252,306,o),
(263,343,o),
(284,367,c),
(304,391,o),
(331,403,o),
(365,403,c),
(392,403,o),
(413,397,o),
(429,386,c),
(445,374,o),
(456,357,o),
(462,334,c),
(652,360,l),
(635,419,o),
(603,464,o),
(557,496,c),
(511,527,o),
(446,542,o),
(359,542,c),
(297,542,o),
(246,534,o),
(207,518,c),
(182,507,o),
(157,492,o),
(134,470,c),
(111,449,o),
(92,425,o),
(78,399,c),
(59,363,o),
(50,317,o),
(50,262,c),
(50,211,o),
(58,169,o),
(73,137,c),
(88,105,o),
(110,78,o),
(136,55,c),
(163,31,o),
(195,14,o),
(233,4,c),
(271,-7,o),
(317,-12,o),
(373,-12,c),
(432,-12,o),
(479,-4,o),
(517,13,c),
(555,29,o),
(586,52,o),
(611,81,c),
(635,110,o),
(652,145,o),
(662,186,c),
(469,208,l),
(461,179,o),
(448,158,o),
(429,145,c)
);
}
);
};
layerId = m005;
shapes = (
{
closed = 1;
nodes = (
(426,-12,o),
(503,55,o),
(515,174,c),
(320,196,l),
(320,160,o),
(311,133,o),
(291,133,cs),
(260,133,o),
(241,168,o),
(241,263,cs),
(241,363,o),
(260,400,o),
(289,400,cs),
(313,400,o),
(323,376,o),
(324,338,c),
(513,365,l),
(503,466,o),
(429,542,o),
(283,542,cs),
(118,542,o),
(28,434,o),
(28,263,cs),
(28,94,o),
(116,-12,o),
(291,-12,cs)
);
}
);
width = 535;
},
{
anchors = (
{
name = bottom;
pos = (256,0);
},
{
name = top;
pos = (256,520);
}
);
associatedMasterId = m01;
background = {
shapes = (
{
ref = o;
}
);
};
layerId = "3D8E3F23-551B-441B-879E-FA3139692C36";
name = "4 Jun 22, 16:33";
shapes = (
{
closed = 1;
nodes = (
(373,-12,o),
(428,46,o),
(445,149,c),
(355,180,l),
(346,102,o),
(315,68,o),
(262,68,cs),
(189,68,o),
(143,125,o),
(143,258,cs),
(143,393,o),
(188,451,o),
(259,451,cs),
(309,451,o),
(342,427,o),
(349,365,c),
(440,393,l),
(419,488,o),
(368,532,o),
(259,532,cs),
(135,532,o),
(47,429,o),
(47,258,cs),
(47,90,o),
(135,-12,o),
(264,-12,cs)
);
}
);
width = 475;
}
);
metricLeft = o;
unicode = 99;
},
{
glyphname = d;
lastChange = "2022-06-08 04:30:43 +0000";
layers = (
{
anchors = (
{
name = bottom;
pos = (276,0);
},
{
name = center;
pos = (409,635);
},
{
name = top;
pos = (430,736);
},
{
name = topright;
pos = (477,736);
}
);
background = {
shapes = (
{
pos = (635,0);
ref = b;
scale = (-1,1);
}
);
};
layerId = m01;
shapes = (
{
closed = 1;
nodes = (
(348,-12,o),
(412,90,o),
(412,260,cs),
(412,430,o),
(348,532,o),
(240,532,cs),
(130,532,o),
(47,432,o),
(47,259,cs),
(47,90,o),
(130,-12,o),
(240,-12,cs)
);
},
{
closed = 1;
nodes = (
(194,68,o),
(142,126,o),
(142,259,cs),
(142,396,o),
(194,454,o),
(262,454,cs),
(331,454,o),
(383,395,o),
(383,259,cs),
(383,127,o),
(331,68,o),
(262,68,cs)
);
},
{
closed = 1;
nodes = (
(521,0,l),
(485,75,o),
(477,113,o),
(477,304,cs),
(477,736,l),
(383,736,l),
(383,295,ls),
(383,104,o),
(389,69,o),
(416,0,c)
);
}
);
width = 548;
},
{
anchors = (
{
name = bottom;
pos = (266,0);
},
{
name = center;
pos = (392,651);
},
{
name = top;
pos = (399,736);
},
{
name = topright;
pos = (476,736);
}
);
background = {
shapes = (
{
closed = 1;
nodes = (
(558,736,l),
(404,736,l),
(404,133,l),
(412,0,l),
(558,0,l)
);
},
{
closed = 1;
nodes = (
(378,-12,o),
(438,95,o),
(438,264,cs),
(438,435,o),
(378,542,o),
(255,542,cs),
(126,542,o),
(32,437,o),
(32,264,cs),
(32,95,o),
(126,-12,o),
(255,-12,cs)
);
},
{
closed = 1;
nodes = (
(236,104,o),
(190,149,o),
(190,270,cs),
(190,389,o),
(236,432,o),
(297,432,cs),
(358,432,o),
(404,389,o),
(404,270,cs),
(404,148,o),
(358,104,o),
(297,104,cs)
);
}
);
};
layerId = m002;
shapes = (
{
closed = 1;
nodes = (
(309,-12,o),
(350,95,o),
(350,264,cs),
(350,435,o),
(309,542,o),
(209,542,cs),
(103,542,o),
(27,437,o),
(27,264,cs),
(27,95,o),
(103,-12,o),
(209,-12,cs)
);
},
{
closed = 1;
nodes = (
(215,104,o),
(186,150,o),
(186,270,cs),
(186,388,o),
(215,432,o),
(254,432,cs),
(293,432,o),
(322,388,o),
(322,270,cs),
(322,149,o),
(293,104,o),
(254,104,cs)
);
},
{
closed = 1;
nodes = (
(513,0,l),
(480,79,o),
(476,123,o),
(476,173,cs),
(476,736,l),
(322,736,l),
(322,141,ls),
(322,106,o),
(326,50,o),
(341,0,c)
);
}
);
width = 515;
},
{
anchors = (
{
name = bottom;
pos = (318,0);
},
{
name = center;
pos = (318,260);
},
{
name = top;
pos = (318,736);
},
{
name = topright;
pos = (550,736);
}
);
associatedMasterId = m01;
background = {
shapes = (
{
pos = (635,0);
ref = b;
scale = (-1,1);
}
);
};
layerId = "2973700A-FC85-4E32-9B44-B09A91306174";
name = "18 Dec 21, 16:25";
shapes = (
{
closed = 1;
nodes = (
(550,736,l),
(456,736,l),
(456,133,l),
(470,0,l),
(550,0,l)
);
},
{
closed = 1;
nodes = (
(410,-12,o),
(490,90,o),
(490,260,cs),
(490,430,o),
(410,532,o),
(281,532,cs),
(151,532,o),
(52,432,o),
(52,259,cs),
(52,90,o),
(151,-12,o),
(281,-12,cs)
);
},
{
closed = 1;
nodes = (
(213,68,o),
(146,126,o),
(146,259,cs),
(146,396,o),
(213,454,o),
(301,454,cs),
(389,454,o),
(456,396,o),
(456,259,cs),
(456,126,o),
(389,68,o),
(301,68,cs)
);
}
);
width = 635;
},
{
anchors = (
{
name = bottom;
pos = (312,0);
},
{
name = center;
pos = (312,265);
},
{
name = top;
pos = (312,736);
},
{
name = topright;
pos = (558,736);
}
);
associatedMasterId = m002;
background = {
shapes = (
{
closed = 1;
nodes = (
(558,736,l),
(404,736,l),
(404,133,l),
(412,0,l),
(558,0,l)
);
},
{
closed = 1;
nodes = (
(378,-12,o),
(438,95,o),
(438,264,cs),
(438,435,o),
(378,542,o),
(255,542,cs),
(126,542,o),
(32,437,o),
(32,264,cs),
(32,95,o),
(126,-12,o),
(255,-12,cs)
);
},
{
closed = 1;
nodes = (
(236,104,o),
(190,149,o),
(190,270,cs),
(190,389,o),
(236,432,o),
(297,432,cs),
(358,432,o),
(404,389,o),
(404,270,cs),
(404,148,o),
(358,104,o),
(297,104,cs)
);
}
);
};
layerId = "8054DD86-6B56-461E-A111-1C4B8C5D2599";
name = "18 Dec 21, 16:26";
shapes = (
{
closed = 1;
nodes = (
(558,736,l),
(404,736,l),
(404,133,l),
(412,0,l),
(558,0,l)
);
},
{
closed = 1;
nodes = (
(378,-12,o),
(438,95,o),
(438,264,cs),
(438,435,o),
(378,542,o),
(255,542,cs),
(126,542,o),
(32,437,o),
(32,264,cs),
(32,95,o),
(126,-12,o),
(255,-12,cs)
);
},
{
closed = 1;
nodes = (
(236,104,o),
(190,149,o),
(190,270,cs),
(190,389,o),
(236,432,o),
(297,432,cs),
(358,432,o),
(404,389,o),
(404,270,cs),
(404,148,o),
(358,104,o),
(297,104,cs)
);
}
);
width = 623;
},
{
anchors = (
{
name = bottom;
pos = (206,3);
},
{
name = center;
pos = (490,635);
},
{
name = top;
pos = (563,736);
},
{
name = topright;
pos = (615,736);
}
);
background = {
shapes = (
{
pos = (1,0);
ref = o;
}
);
};
layerId = m003;
shapes = (
{
closed = 1;
nodes = (
(231,-12,o),
(422,293,o),
(422,457,cs),
(422,505,o),
(395,532,o),
(349,532,cs),
(235,532,o),
(50,251,o),
(50,78,cs),
(50,22,o),
(81,-12,o),
(128,-12,cs)
);
},
{
closed = 1;
nodes = (
(169,66,o),
(131,104,o),
(131,180,cs),
(131,285,o),
(199,453,o),
(308,453,cs),
(357,453,o),
(395,420,o),
(395,343,cs),
(395,232,o),
(329,66,o),
(219,66,cs)
);
},
{
closed = 1;
nodes = (
(449,0,l),
(438,79,o),
(440,109,o),
(497,314,cs),
(615,736,l),
(520,736,l),
(404,321,ls),
(346,115,o),
(343,70,o),
(349,0,c)
);
}
);
width = 555;
},
{
anchors = (
{
name = bottom;
pos = (299,0);
},
{
name = center;
pos = (367,651);
},
{
name = top;
pos = (534,736);
},
{
name = topright;
pos = (620,736);
}
);
background = {
shapes = (
{
closed = 1;
nodes = (
(561,736,l),
(407,736,l),
(407,133,l),
(415,0,l),
(561,0,l)
);
},
{
closed = 1;
nodes = (
(381,-12,o),
(441,95,o),
(441,264,cs),
(441,435,o),
(381,542,o),
(258,542,cs),
(129,542,o),
(35,437,o),
(35,264,cs),
(35,95,o),
(129,-12,o),
(258,-12,cs)
);
},
{
closed = 1;
nodes = (
(239,104,o),
(193,149,o),
(193,270,cs),
(193,389,o),
(239,432,o),
(300,432,cs),
(361,432,o),
(407,389,o),
(407,270,cs),
(407,148,o),
(361,104,o),
(300,104,cs)
);
}
);
};
layerId = m004;
shapes = (
{
closed = 1;
nodes = (
(-109,27,o),
(-18,-11,o),
(84,-11,cs),
(249,-11,o),
(498,274,o),
(498,463,cs),
(498,514,o),
(444,542,o),
(346,542,cs),
(132,542,o),
(-109,313,o),
(-109,111,cs)
);
},
{
closed = 1;
nodes = (
(194,99,o),
(176,122,o),
(176,172,cs),
(176,259,o),
(220,426,o),
(287,426,cs),
(320,426,o),
(338,401,o),
(338,355,cs),
(338,274,o),
(293,99,o),
(227,99,cs)
);
},
{
closed = 1;
nodes = (
(442,0,l),
(443,86,o),
(449,132,o),
(501,317,cs),
(620,736,l),
(461,736,l),
(344,325,ls),
(285,117,o),
(281,81,o),
(276,0,c)
);
}
);
width = 536;
},
{
anchors = (
{
name = bottom;
pos = (312,0);
},
{
name = center;
pos = (312,265);
},
{
name = top;
pos = (312,736);
},
{
name = topright;
pos = (558,736);
}
);
associatedMasterId = m004;
background = {
shapes = (
{
closed = 1;
nodes = (
(558,736,l),
(404,736,l),
(404,133,l),
(412,0,l),
(558,0,l)
);
},
{
closed = 1;
nodes = (
(378,-12,o),
(438,95,o),
(438,264,cs),
(438,435,o),
(378,542,o),
(255,542,cs),
(126,542,o),
(32,437,o),
(32,264,cs),
(32,95,o),
(126,-12,o),
(255,-12,cs)
);
},
{
closed = 1;
nodes = (
(236,104,o),
(190,149,o),
(190,270,cs),
(190,389,o),
(236,432,o),
(297,432,cs),
(358,432,o),
(404,389,o),
(404,270,cs),
(404,148,o),
(358,104,o),
(297,104,cs)
);
}
);
};
layerId = "FC894FF5-B65A-4A3F-BC41-1FA31D79710F";
name = "18 Dec 21, 16:26";
shapes = (
{
closed = 1;
nodes = (
(558,736,l),
(404,736,l),
(404,133,l),
(412,0,l),
(558,0,l)
);
},
{
closed = 1;
nodes = (
(378,-12,o),
(438,95,o),
(438,264,cs),
(438,435,o),
(378,542,o),
(255,542,cs),
(126,542,o),
(32,437,o),
(32,264,cs),
(32,95,o),
(126,-12,o),
(255,-12,cs)
);
},
{
closed = 1;
nodes = (
(236,104,o),
(190,149,o),
(190,270,cs),
(190,389,o),
(236,432,o),
(297,432,cs),
(358,432,o),
(404,389,o),
(404,270,cs),
(404,148,o),
(358,104,o),
(297,104,cs)
);
}
);
width = 623;
},
{
anchors = (
{
name = bottom;
pos = (326,0);
},
{
name = center;
pos = (483,635);
},
{
name = top;
pos = (511,736);
},
{
name = topright;
pos = (558,736);
}
);
associatedMasterId = m01;
background = {
shapes = (
{
pos = (635,0);
ref = b;
scale = (-1,1);
}
);
};
layerId = "14B09F8C-E741-4FE8-8401-9747BC7CC85E";
name = "16 Feb 22, 11:55";
shapes = (
{
closed = 1;
nodes = (
(418,-12,o),
(498,90,o),
(498,260,cs),
(498,430,o),
(418,532,o),
(289,532,cs),
(159,532,o),
(60,432,o),
(60,259,cs),
(60,90,o),
(159,-12,o),
(289,-12,cs)
);
},
{
closed = 1;
nodes = (
(221,68,o),
(154,126,o),
(154,259,cs),
(154,396,o),
(221,454,o),
(309,454,cs),
(397,454,o),
(464,396,o),
(464,259,cs),
(464,126,o),
(397,68,o),
(309,68,cs)
);
},
{
closed = 1;
nodes = (
(619,0,l),
(565,78,o),
(558,110,o),
(558,173,cs),
(558,736,l),
(464,736,l),
(464,156,ls),
(464,87,o),
(476,54,o),
(506,0,c)
);
}
);
width = 651;
},
{
anchors = (
{
name = bottom;
pos = (215,0);
},
{
name = center;
pos = (421,631);
},
{
name = top;
pos = (215,710);
},
{
name = topright;
pos = (530,710);
}
);
background = {
anchors = (
{
name = bottom;
pos = (231,0);
},
{
name = center;
pos = (349,642);
},
{
name = top;
pos = (401,736);
}
);
};
layerId = m005;
shapes = (
{
closed = 1;
nodes = (
(337,-12,o),
(391,95,o),
(391,264,cs),
(391,435,o),
(337,542,o),
(222,542,cs),
(112,542,o),
(28,437,o),
(28,264,cs),
(28,95,o),
(112,-12,o),
(222,-12,cs)
);
},
{
closed = 1;
nodes = (
(251,131,o),
(236,158,o),
(236,261,cs),
(236,364,o),
(251,393,o),
(280,393,cs),
(309,393,o),
(324,364,o),
(324,261,cs),
(324,158,o),
(309,131,o),
(280,131,cs)
);
},
{
closed = 1;
nodes = (
(530,0,l),
(530,710,l),
(324,710,l),
(324,133,l),
(357,117,l),
(389,0,l)
);
}
);
width = 567;
},
{
anchors = (
{
name = bottom;
pos = (312,0);
},
{
name = center;
pos = (312,265);
},
{
name = top;
pos = (312,736);
},
{
name = topright;
pos = (558,736);
}
);
associatedMasterId = m005;
background = {
shapes = (
{
closed = 1;
nodes = (
(558,736,l),
(404,736,l),
(404,133,l),
(412,0,l),
(558,0,l)
);
},
{
closed = 1;
nodes = (
(378,-12,o),
(438,95,o),
(438,264,cs),
(438,435,o),
(378,542,o),
(255,542,cs),
(126,542,o),
(32,437,o),
(32,264,cs),
(32,95,o),
(126,-12,o),
(255,-12,cs)
);
},
{
closed = 1;
nodes = (
(236,104,o),
(190,149,o),
(190,270,cs),
(190,389,o),
(236,432,o),
(297,432,cs),
(358,432,o),
(404,389,o),
(404,270,cs),
(404,148,o),
(358,104,o),
(297,104,cs)
);
}
);
};
layerId = "BDEF2A66-FDE8-4243-835B-ED11BFA5140C";
name = "18 Dec 21, 16:26";
shapes = (
{
closed = 1;
nodes = (
(558,736,l),
(404,736,l),
(404,133,l),
(412,0,l),
(558,0,l)
);
},
{
closed = 1;
nodes = (
(378,-12,o),
(438,95,o),
(438,264,cs),
(438,435,o),
(378,542,o),
(255,542,cs),
(126,542,o),
(32,437,o),
(32,264,cs),
(32,95,o),
(126,-12,o),
(255,-12,cs)
);
},
{
closed = 1;
nodes = (
(236,104,o),
(190,149,o),
(190,270,cs),
(190,389,o),
(236,432,o),
(297,432,cs),
(358,432,o),
(404,389,o),
(404,270,cs),
(404,148,o),
(358,104,o),
(297,104,cs)
);
}
);
width = 623;
}
);
metricLeft = o;
unicode = 100;
},
{
glyphname = e;
lastChange = "2022-06-07 12:49:10 +0000";
layers = (
{
anchors = (
{
name = bottom;
pos = (259,0);
},
{
name = ogonek;
pos = (419,49);
},
{
name = top;
pos = (260,520);
}
);
layerId = m01;
shapes = (
{
closed = 1;
nodes = (
(372,-12,o),
(431,40,o),
(457,131,c),
(368,155,l),
(351,94,o),
(321,67,o),
(264,67,cs),
(187,67,o),
(139,119,o),
(139,250,cs),
(139,384,o),
(193,453,o),
(261,453,cs),
(326,453,o),
(365,404,o),
(365,309,cs),
(365,308,o),
(365,298,o),
(365,292,c),
(399,320,l),
(111,320,l),
(111,248,l),
(457,248,l),
(458,269,o),
(458,286,o),
(458,307,cs),
(458,445,o),
(376,532,o),
(262,532,cs),
(144,532,o),
(47,425,o),
(47,250,cs),
(47,85,o),
(132,-12,o),
(265,-12,cs)
);
}
);
width = 501;
},
{
anchors = (
{
name = bottom;
pos = (266,0);
},
{
name = ogonek;
pos = (439,40);
},
{
name = top;
pos = (272,530);
}
);
background = {
shapes = (
{
pos = (-3,0);
ref = o;
},
{
pos = (-3,0);
ref = c;
}
);
};
layerId = m002;
shapes = (
{
closed = 1;
nodes = (
(404,-12,o),
(464,40,o),
(486,125,c),
(350,160,l),
(338,116,o),
(311,98,o),
(274,98,cs),
(222,98,o),
(185,140,o),
(185,256,cs),
(185,387,o),
(220,435,o),
(269,435,cs),
(316,435,o),
(342,399,o),
(342,301,cs),
(342,300,o),
(342,270,o),
(342,256,c),
(383,316,l),
(129,316,l),
(129,218,l),
(496,218,l),
(496,234,o),
(496,251,o),
(496,269,cs),
(496,436,o),
(410,542,o),
(271,542,cs),
(132,542,o),
(34,431,o),
(34,256,cs),
(34,92,o),
(133,-12,o),
(275,-12,cs)
);
}
);
width = 526;
},
{
anchors = (
{
name = bottom;
pos = (200,1);
},
{
name = ogonek;
pos = (368,42);
},
{
name = top;
pos = (316,518);
}
);
background = {
shapes = (
{
ref = o;
},
{
ref = c;
}
);
};
layerId = m003;
shapes = (
{
closed = 1;
nodes = (
(307,-12,o),
(369,25,o),
(415,90,c),
(341,145,l),
(310,93,o),
(275,68,o),
(222,68,cs),
(171,68,o),
(128,103,o),
(128,183,cs),
(128,280,o),
(192,453,o),
(298,453,cs),
(345,453,o),
(375,422,o),
(375,367,cs),
(375,339,o),
(368,307,o),
(354,267,c),
(389,292,l),
(119,292,l),
(98,221,l),
(437,221,l),
(456,280,o),
(466,329,o),
(466,366,cs),
(466,466,o),
(401,532,o),
(307,532,cs),
(146,532,o),
(37,329,o),
(37,180,cs),
(37,53,o),
(116,-12,o),
(220,-12,cs)
);
}
);
width = 501;
},
{
anchors = (
{
name = bottom;
pos = (228,1);
},
{
name = ogonek;
pos = (428,29);
},
{
name = top;
pos = (374,518);
}
);
associatedMasterId = m003;
background = {
shapes = (
{
ref = o;
},
{
ref = c;
}
);
};
layerId = "39B67B69-64E6-4DA8-A983-87FC921310D4";
name = "20 Dec 21, 12:38";
shapes = (
{
closed = 1;
nodes = (
(361,-12,o),
(436,25,o),
(484,90,c),
(406,145,l),
(373,92,o),
(330,68,o),
(261,68,cs),
(195,68,o),
(135,107,o),
(135,197,cs),
(135,286,o),
(199,453,o),
(332,453,cs),
(398,453,o),
(436,419,o),
(436,359,cs),
(436,344,o),
(434,326,o),
(432,306,c),
(470,331,l),
(143,331,l),
(122,260,l),
(517,260,l),
(523,295,o),
(526,330,o),
(526,361,cs),
(526,464,o),
(453,532,o),
(342,532,cs),
(155,532,o),
(44,335,o),
(44,193,cs),
(44,57,o),
(137,-12,o),
(258,-12,cs)
);
}
);
width = 578;
},
{
anchors = (
{
name = bottom;
pos = (276,0);
},
{
name = ogonek;
pos = (350,28);
},
{
name = top;
pos = (302,530);
}
);
background = {
shapes = (
{
closed = 1;
nodes = (
(367,-12,o),
(452,40,o),
(501,125,c),
(379,160,l),
(351,116,o),
(313,98,o),
(266,98,cs),
(198,98,o),
(161,139,o),
(193,256,cs),
(231,388,o),
(289,435,o),
(351,435,cs),
(411,435,o),
(431,399,o),
(403,301,cs),
(399,287,o),
(394,270,o),
(390,256,c),
(449,316,l),
(154,316,l),
(127,218,l),
(535,218,l),
(540,234,o),
(545,251,o),
(550,269,cs),
(597,436,o),
(534,542,o),
(384,542,cs),
(231,542,o),
(93,431,o),
(43,256,cs),
(-3,91,o),
(78,-12,o),
(235,-12,cs)
);
}
);
};
layerId = m004;
shapes = (
{
closed = 1;
nodes = (
(314,-12,o),
(367,24,o),
(419,88,c),
(311,155,l),
(276,115,o),
(253,100,o),
(233,100,cs),
(191,100,o),
(168,123,o),
(168,177,cs),
(168,262,o),
(219,435,o),
(289,435,cs),
(307,435,o),
(334,419,o),
(334,368,cs),
(334,345,o),
(326,307,o),
(301,237,c),
(359,309,l),
(128,309,l),
(102,211,l),
(446,211,l),
(461,246,o),
(481,295,o),
(481,347,cs),
(481,479,o),
(390,542,o),
(294,542,cs),
(129,542,o),
(21,342,o),
(21,193,cs),
(21,58,o),
(115,-12,o),
(238,-12,cs)
);
}
);
width = 500;
},
{
anchors = (
{
name = bottom;
pos = (302,0);
},
{
name = ogonek;
pos = (501,54);
},
{
name = top;
pos = (305,530);
}
);
associatedMasterId = m002;
background = {
shapes = (
{
pos = (-3,0);
ref = o;
},
{
pos = (-3,0);
ref = c;
}
);
};
layerId = "156E31AB-89C7-4FE9-87E2-3C14D588A169";
name = "15 Feb 22, 16:26";
shapes = (
{
closed = 1;
nodes = (
(419,-12,o),
(507,34,o),
(544,110,c),
(406,166,l),
(385,115,o),
(350,96,o),
(309,96,cs),
(241,96,o),
(192,138,o),
(192,256,cs),
(192,388,o),
(237,435,o),
(299,435,cs),
(359,435,o),
(397,394,o),
(397,281,cs),
(397,273,o),
(397,264,o),
(397,256,c),
(439,316,l),
(136,316,l),
(136,218,l),
(552,218,l),
(553,234,o),
(553,251,o),
(553,269,cs),
(553,436,o),
(454,542,o),
(306,542,cs),
(151,542,o),
(42,431,o),
(42,256,cs),
(42,91,o),
(152,-12,o),
(309,-12,cs)
);
}
);
width = 593;
},
{
anchors = (
{
name = bottom;
pos = (292,0);
},
{
name = ogonek;
pos = (494,63);
},
{
name = top;
pos = (290,530);
}
);
background = {
shapes = (
{
ref = o;
}
);
};
layerId = m005;
shapes = (
{
closed = 1;
nodes = (
(431,-12,o),
(503,47,o),
(525,127,c),
(341,164,l),
(335,133,o),
(316,119,o),
(290,119,cs),
(256,119,o),
(238,150,o),
(238,258,cs),
(238,385,o),
(255,423,o),
(287,423,cs),
(320,423,o),
(333,394,o),
(333,300,cs),
(333,299,o),
(333,275,o),
(333,264,c),
(384,322,l),
(161,322,l),
(161,229,l),
(538,229,l),
(538,242,o),
(538,256,o),
(538,271,cs),
(538,437,o),
(444,542,o),
(290,542,cs),
(134,542,o),
(28,431,o),
(28,256,cs),
(28,91,o),
(139,-12,o),
(294,-12,cs)
);
}
);
width = 563;
},
{
anchors = (
{
name = bottom;
pos = (302,0);
},
{
name = ogonek;
pos = (501,54);
},
{
name = top;
pos = (305,530);
}
);
associatedMasterId = m005;
background = {
shapes = (
{
pos = (-3,0);
ref = o;
},
{
pos = (-3,0);
ref = c;
}
);
};
layerId = "D952AC08-07C6-4B14-81F6-BE9571AECFB1";
name = "15 Feb 22, 16:26";
shapes = (
{
closed = 1;
nodes = (
(419,-12,o),
(507,34,o),
(544,110,c),
(406,166,l),
(385,115,o),
(350,96,o),
(309,96,cs),
(241,96,o),
(192,138,o),
(192,256,cs),
(192,388,o),
(237,435,o),
(299,435,cs),
(359,435,o),
(397,394,o),
(397,281,cs),
(397,273,o),
(397,264,o),
(397,256,c),
(439,316,l),
(136,316,l),
(136,218,l),
(552,218,l),
(553,234,o),
(553,251,o),
(553,269,cs),
(553,436,o),
(454,542,o),
(306,542,cs),
(151,542,o),
(42,431,o),
(42,256,cs),
(42,91,o),
(152,-12,o),
(309,-12,cs)
);
}
);
width = 593;
},
{
anchors = (
{
name = bottom;
pos = (259,0);
},
{
name = ogonek;
pos = (419,49);
},
{
name = top;
pos = (260,520);
}
);
associatedMasterId = m01;
layerId = "37745143-77A6-4D6F-9021-6B97123B1058";
name = "4 Jun 22, 16:32";
shapes = (
{
closed = 1;
nodes = (
(373,-12,o),
(433,33,o),
(455,112,c),
(364,136,l),
(351,88,o),
(321,67,o),
(264,67,cs),
(187,67,o),
(139,119,o),
(139,250,cs),
(139,384,o),
(191,453,o),
(259,453,cs),
(324,453,o),
(363,397,o),
(363,289,cs),
(363,288,o),
(363,278,o),
(363,272,c),
(397,300,l),
(111,300,l),
(111,228,l),
(455,228,l),
(456,249,o),
(456,266,o),
(456,287,cs),
(456,437,o),
(374,532,o),
(260,532,cs),
(142,532,o),
(47,425,o),
(47,250,cs),
(47,85,o),
(132,-12,o),
(265,-12,cs)
);
}
);
width = 501;
}
);
metricLeft = o;
unicode = 101;
},
{
glyphname = f;
kernLeft = f;
lastChange = "2022-06-07 12:49:12 +0000";
layers = (
{
anchors = (
{
name = bottom;
pos = (138,0);
},
{
name = top;
pos = (138,736);
}
);
layerId = m01;
shapes = (
{
closed = 1;
nodes = (
(179,0,l),
(179,612,ls),
(179,651,o),
(193,662,o),
(232,662,cs),
(250,662,o),
(262,662,o),
(276,657,c),
(276,742,l),
(257,747,o),
(234,748,o),
(201,748,cs),
(110,748,o),
(86,715,o),
(86,659,cs),
(86,0,l)
);
},
{
closed = 1;
nodes = (
(259,443,l),
(259,520,l),
(13,520,l),
(13,443,l)
);
}
);
width = 276;
},
{
anchors = (
{
name = bottom;
pos = (149,0);
},
{
name = top;
pos = (149,736);
}
);
layerId = m002;
shapes = (
{
closed = 1;
nodes = (
(228,0,l),
(228,595,ls),
(228,623,o),
(238,633,o),
(271,633,cs),
(290,633,o),
(305,632,o),
(315,626,c),
(315,738,l),
(298,744,o),
(267,748,o),
(209,748,cs),
(99,748,o),
(74,723,o),
(74,648,cs),
(74,0,l)
);
},
{
closed = 1;
nodes = (
(296,423,l),
(296,530,l),
(8,530,l),
(8,423,l)
);
}
);
width = 311;
},
{
anchors = (
{
name = bottom;
pos = (61,0);
},
{
name = top;
pos = (290,736);
}
);
layerId = m003;
shapes = (
{
closed = 1;
nodes = (
(75,-113,l),
(253,516,l),
(257,617,o),
(299,665,o),
(346,665,cs),
(373,665,o),
(396,650,o),
(410,626,c),
(459,697,l),
(437,731,o),
(400,748,o),
(350,748,cs),
(244,748,o),
(165,657,o),
(158,515,c),
(-20,-113,l)
);
},
{
closed = 1;
nodes = (
(318,443,l),
(340,520,l),
(87,520,l),
(66,443,l)
);
}
);
width = 292;
},
{
anchors = (
{
name = bottom;
pos = (31,-116);
},
{
name = top;
pos = (370,736);
}
);
layerId = m004;
shapes = (
{
closed = 1;
nodes = (
(97,-200,l),
(303,531,l),
(302,619,o),
(337,642,o),
(371,642,cs),
(389,642,o),
(406,633,o),
(420,614,c),
(478,721,l),
(455,737,o),
(426,748,o),
(381,748,cs),
(241,748,o),
(150,674,o),
(143,532,c),
(-62,-200,l)
);
},
{
closed = 1;
nodes = (
(328,423,l),
(358,530,l),
(80,530,l),
(51,423,l)
);
}
);
width = 337;
},
{
anchors = (
{
name = bottom;
pos = (157,0);
},
{
name = top;
pos = (217,736);
}
);
background = {
shapes = (
{
closed = 1;
nodes = (
(295,589,o),
(301,599,o),
(309,605,c),
(317,612,o),
(330,615,o),
(348,615,c),
(363,615,o),
(383,613,o),
(407,609,c),
(430,731,l),
(362,740,o),
(310,744,o),
(274,744,c),
(230,744,o),
(196,739,o),
(173,729,c),
(150,718,o),
(132,705,o),
(119,689,c),
(106,672,o),
(97,651,o),
(93,625,c),
(88,599,o),
(86,575,o),
(86,554,c),
(86,530,l),
(10,530,l),
(10,381,l),
(86,381,l),
(86,0,l),
(289,0,l),
(289,381,l),
(386,381,l),
(386,530,l),
(289,530,l),
(289,553,o),
(290,569,o),
(292,576,c)
);
},
{
closed = 1;
nodes = (
(496,477,l),
(456,434,o),
(436,371,o),
(436,288,c),
(436,216,o),
(451,158,o),
(482,114,c)
);
}
);
};
layerId = m005;
shapes = (
{
closed = 1;
nodes = (
(284,0,l),
(284,568,ls),
(284,598,o),
(293,607,o),
(335,607,cs),
(346,607,o),
(358,605,o),
(364,601,c),
(364,736,l),
(341,743,o),
(288,748,o),
(234,748,cs),
(95,748,o),
(70,694,o),
(70,613,cs),
(70,0,l)
);
},
{
closed = 1;
nodes = (
(346,383,l),
(346,530,l),
(7,530,l),
(7,383,l)
);
}
);
width = 347;
}
);
unicode = 102;
},
{
glyphname = g;
lastChange = "2022-06-07 12:49:18 +0000";
layers = (
{
anchors = (
{
name = bottom;
pos = (271,-200);
},
{
name = top;
pos = (271,520);
}
);
layerId = m01;
metricLeft = "=o";
shapes = (
{
closed = 1;
nodes = (
(393,-200,o),
(467,-126,o),
(467,-21,cs),
(467,520,l),
(384,520,l),
(373,387,l),
(373,-4,ls),
(373,-82,o),
(340,-122,o),
(257,-122,cs),
(194,-122,o),
(161,-103,o),
(161,-54,cs),
(161,-46,o),
(161,-40,o),
(162,-33,c),
(59,-23,l),
(58,-31,o),
(57,-41,o),
(57,-47,cs),
(57,-153,o),
(145,-200,o),
(259,-200,cs)
);
},
{
closed = 1;
nodes = (
(342,10,o),
(404,109,o),
(404,271,cs),
(404,433,o),
(342,532,o),
(235,532,cs),
(128,532,o),
(47,436,o),
(47,270,cs),
(47,108,o),
(128,10,o),
(235,10,cs)
);
},
{
closed = 1;
nodes = (
(192,88,o),
(142,143,o),
(142,270,cs),
(142,399,o),
(192,454,o),
(258,454,cs),
(323,454,o),
(373,399,o),
(373,270,cs),
(373,143,o),
(323,88,o),
(258,88,cs)
);
}
);
width = 542;
},
{
anchors = (
{
name = bottom;
pos = (262,-200);
},
{
name = top;
pos = (262,530);
}
);
layerId = m002;
metricLeft = "=o";
shapes = (
{
closed = 1;
nodes = (
(392,-200,o),
(468,-134,o),
(468,-25,cs),
(468,530,l),
(318,530,l),
(314,397,l),
(314,-5,ls),
(314,-61,o),
(296,-89,o),
(256,-89,cs),
(218,-89,o),
(201,-79,o),
(201,-53,cs),
(201,-49,o),
(201,-45,o),
(203,-39,c),
(53,-16,l),
(49,-28,o),
(48,-44,o),
(48,-51,cs),
(48,-154,o),
(137,-200,o),
(260,-200,cs)
);
},
{
closed = 1;
nodes = (
(302,20,o),
(341,123,o),
(341,280,cs),
(341,437,o),
(302,542,o),
(206,542,cs),
(102,542,o),
(27,437,o),
(27,280,cs),
(27,123,o),
(102,20,o),
(206,20,cs)
);
},
{
closed = 1;
nodes = (
(214,136,o),
(186,177,o),
(186,286,cs),
(186,395,o),
(214,432,o),
(250,432,cs),
(287,432,o),
(314,395,o),
(314,286,cs),
(314,177,o),
(287,136,o),
(250,136,cs)
);
}
);
width = 522;
},
{
anchors = (
{
name = bottom;
pos = (165,-200);
},
{
name = top;
pos = (323,520);
}
);
layerId = m003;
shapes = (
{
closed = 1;
nodes = (
(268,-200,o),
(361,-124,o),
(399,11,cs),
(542,520,l),
(458,520,l),
(404,370,l),
(309,31,ls),
(281,-70,o),
(225,-118,o),
(153,-118,cs),
(94,-118,o),
(62,-93,o),
(61,-42,c),
(-51,-71,l),
(-32,-149,o),
(39,-200,o),
(146,-200,cs)
);
},
{
closed = 1;
nodes = (
(329,11,o),
(420,231,o),
(420,379,cs),
(420,476,o),
(377,532,o),
(294,532,cs),
(141,532,o),
(37,328,o),
(37,187,cs),
(37,79,o),
(97,11,o),
(180,11,cs)
);
},
{
closed = 1;
nodes = (
(167,86,o),
(132,121,o),
(132,191,cs),
(132,288,o),
(196,452,o),
(301,452,cs),
(351,452,o),
(385,418,o),
(385,348,cs),
(385,250,o),
(324,86,o),
(216,86,cs)
);
}
);
width = 545;
},
{
anchors = (
{
name = bottom;
pos = (269,-200);
},
{
name = top;
pos = (213,530);
}
);
background = {
shapes = (
{
closed = 1;
nodes = (
(343,-200,o),
(452,-134,o),
(483,-25,cs),
(639,530,l),
(493,530,l),
(447,397,l),
(334,-5,ls),
(318,-61,o),
(282,-89,o),
(213,-89,cs),
(155,-89,o),
(129,-79,o),
(137,-53,cs),
(138,-49,o),
(139,-45,o),
(143,-39,c),
(-7,-16,l),
(-13,-28,o),
(-18,-41,o),
(-21,-51,cs),
(-50,-154,o),
(42,-200,o),
(185,-200,cs)
);
}
);
};
layerId = m004;
metricLeft = "=o";
shapes = (
{
closed = 1;
nodes = (
(276,-203,o),
(365,-151,o),
(417,34,cs),
(556,530,l),
(401,530,l),
(354,380,l),
(263,53,ls),
(229,-66,o),
(199,-89,o),
(163,-89,cs),
(136,-89,o),
(99,-76,o),
(105,-34,c),
(-55,-68,l),
(-40,-170,o),
(90,-203,o),
(167,-203,cs)
);
},
{
closed = 1;
nodes = (
(292,21,o),
(366,267,o),
(366,404,cs),
(366,489,o),
(333,542,o),
(256,542,cs),
(123,542,o),
(25,346,o),
(25,205,cs),
(25,79,o),
(102,21,o),
(168,21,cs)
);
},
{
closed = 1;
nodes = (
(202,131,o),
(182,153,o),
(182,203,cs),
(182,278,o),
(220,426,o),
(282,426,cs),
(313,426,o),
(335,405,o),
(335,355,cs),
(335,286,o),
(292,131,o),
(233,131,cs)
);
}
);
width = 538;
},
{
anchors = (
{
name = bottom;
pos = (289,-185);
},
{
name = top;
pos = (310,530);
}
);
background = {
shapes = (
{
closed = 1;
nodes = (
(529,530,l),
(373,530,l),
(364,413,l),
(352,397,l),
(352,0,ls),
(352,-40,o),
(333,-60,o),
(286,-60,cs),
(245,-60,o),
(218,-50,o),
(218,-15,c),
(45,6,l),
(31,-131,o),
(129,-196,o),
(286,-196,cs),
(444,-196,o),
(529,-122,o),
(529,0,cs)
);
},
{
closed = 1;
nodes = (
(341,40,o),
(393,139,o),
(393,295,cs),
(393,447,o),
(341,542,o),
(235,542,cs),
(123,542,o),
(39,447,o),
(39,290,cs),
(39,137,o),
(123,40,o),
(235,40,cs)
);
},
{
closed = 1;
nodes = (
(242,172,o),
(214,206,o),
(214,286,cs),
(214,367,o),
(242,403,o),
(283,403,cs),
(324,403,o),
(352,367,o),
(352,286,cs),
(352,206,o),
(324,172,o),
(283,172,cs)
);
}
);
};
layerId = m005;
metricLeft = "=o";
shapes = (
{
closed = 1;
nodes = (
(337,20,o),
(391,121,o),
(391,280,cs),
(391,441,o),
(337,542,o),
(222,542,cs),
(112,542,o),
(28,443,o),
(28,280,cs),
(28,121,o),
(112,20,o),
(222,20,cs)
);
},
{
closed = 1;
nodes = (
(251,163,o),
(236,187,o),
(236,277,cs),
(236,367,o),
(251,393,o),
(280,393,cs),
(309,393,o),
(324,367,o),
(324,277,cs),
(324,187,o),
(309,163,o),
(280,163,cs)
);
},
{
closed = 1;
nodes = (
(530,530,l),
(373,530,l),
(358,407,l),
(324,397,l),
(324,86,l),
(338,72,l),
(338,-6,ls),
(338,-42,o),
(318,-60,o),
(280,-60,cs),
(243,-60,o),
(218,-54,o),
(218,-35,c),
(45,-27,l),
(31,-142,o),
(129,-196,o),
(286,-196,cs),
(445,-196,o),
(530,-128,o),
(530,-16,cs)
);
}
);
width = 567;
}
);
metricLeft = o;
metricRight = "=|n";
unicode = 103;
},
{
glyphname = h;
lastChange = "2022-06-07 12:49:25 +0000";
layers = (
{
anchors = (
{
name = bottom;
pos = (275,0);
},
{
name = center;
pos = (155,621);
},
{
name = top;
pos = (275,736);
}
);
layerId = m01;
shapes = (
{
closed = 1;
nodes = (
(478,0,l),
(478,336,ls),
(478,468,o),
(408,532,o),
(313,532,cs),
(227,532,o),
(167,474,o),
(156,345,c),
(167,300,l),
(180,405,o),
(231,446,o),
(290,446,cs),
(352,446,o),
(384,409,o),
(384,326,cs),
(384,0,l)
);
},
{
closed = 1;
nodes = (
(169,0,l),
(169,736,l),
(75,736,l),
(75,0,l)
);
}
);
width = 549;
},
{
associatedMasterId = m01;
layerId = "953AEB0F-3CFF-44B3-B340-42863E331271";
name = "23 Oct 21, 17:52";
shapes = (
{
closed = 1;
nodes = (
(594,0,l),
(594,331,ls),
(594,466,o),
(508,532,o),
(387,532,cs),
(270,532,o),
(192,471,o),
(160,335,c),
(170,290,l),
(202,401,o),
(279,444,o),
(370,444,cs),
(455,444,o),
(500,407,o),
(500,321,cs),
(500,0,l)
);
},
{
closed = 1;
nodes = (
(179,0,l),
(179,736,l),
(85,736,l),
(85,0,l)
);
}
);
width = 674;
},
{
anchors = (
{
name = bottom;
pos = (259,0);
},
{
name = center;
pos = (142,629);
},
{
name = top;
pos = (259,736);
}
);
layerId = m002;
shapes = (
{
closed = 1;
nodes = (
(469,0,l),
(469,366,ls),
(469,481,o),
(404,542,o),
(338,542,cs),
(248,542,o),
(202,481,o),
(185,345,c),
(206,296,l),
(213,386,o),
(242,421,o),
(273,421,cs),
(300,421,o),
(315,392,o),
(315,331,cs),
(315,0,l)
);
},
{
closed = 1;
nodes = (
(208,0,l),
(208,736,l),
(54,736,l),
(54,0,l)
);
}
);
width = 519;
},
{
associatedMasterId = m002;
layerId = "7DD20EE1-1BDE-4DDE-93B4-394ADDA82C90";
name = "23 Oct 21, 17:52";
shapes = (
{
closed = 1;
nodes = (
(594,0,l),
(594,331,ls),
(594,466,o),
(508,532,o),
(387,532,cs),
(270,532,o),
(192,471,o),
(160,335,c),
(170,290,l),
(202,401,o),
(279,444,o),
(370,444,cs),
(455,444,o),
(500,407,o),
(500,321,cs),
(500,0,l)
);
},
{
closed = 1;
nodes = (
(179,0,l),
(179,736,l),
(85,736,l),
(85,0,l)
);
}
);
width = 674;
},
{
anchors = (
{
name = bottom;
pos = (200,0);
},
{
name = center;
pos = (262,629);
},
{
name = top;
pos = (257,736);
}
);
layerId = m003;
shapes = (
{
closed = 1;
nodes = (
(407,0,l),
(506,350,ls),
(537,458,o),
(480,527,o),
(399,527,cs),
(294,527,o),
(210,456,o),
(149,282,c),
(155,235,l),
(210,389,o),
(296,445,o),
(360,445,cs),
(403,445,o),
(427,408,o),
(409,344,cs),
(313,0,l)
);
},
{
closed = 1;
nodes = (
(94,0,l),
(306,736,l),
(212,736,l),
(0,0,l)
);
}
);
width = 552;
},
{
associatedMasterId = m003;
layerId = "4AC70D3C-D70F-41D8-8D55-C61796821D44";
name = "23 Oct 21, 17:52";
shapes = (
{
closed = 1;
nodes = (
(594,0,l),
(594,331,ls),
(594,466,o),
(508,532,o),
(387,532,cs),
(270,532,o),
(192,471,o),
(160,335,c),
(170,290,l),
(202,401,o),
(279,444,o),
(370,444,cs),
(455,444,o),
(500,407,o),
(500,321,cs),
(500,0,l)
);
},
{
closed = 1;
nodes = (
(179,0,l),
(179,736,l),
(85,736,l),
(85,0,l)
);
}
);
width = 674;
},
{
anchors = (
{
name = bottom;
pos = (208,0);
},
{
name = center;
pos = (248,629);
},
{
name = top;
pos = (420,736);
}
);
layerId = m004;
shapes = (
{
closed = 1;
nodes = (
(157,0,l),
(369,736,l),
(211,736,l),
(-1,0,l)
);
},
{
closed = 1;
nodes = (
(494,0,l),
(591,344,ls),
(625,465,o),
(559,538,o),
(467,538,cs),
(370,538,o),
(290,469,o),
(220,308,c),
(227,258,l),
(281,380,o),
(333,424,o),
(387,424,cs),
(427,424,o),
(446,388,o),
(431,334,cs),
(336,0,l)
);
}
);
width = 640;
},
{
associatedMasterId = m004;
layerId = "AA885FC1-5503-423F-AE9B-22F5E8D03EAF";
name = "23 Oct 21, 17:52";
shapes = (
{
closed = 1;
nodes = (
(594,0,l),
(594,331,ls),
(594,466,o),
(508,532,o),
(387,532,cs),
(270,532,o),
(192,471,o),
(160,335,c),
(170,290,l),
(202,401,o),
(279,444,o),
(370,444,cs),
(455,444,o),
(500,407,o),
(500,321,cs),
(500,0,l)
);
},
{
closed = 1;
nodes = (
(179,0,l),
(179,736,l),
(85,736,l),
(85,0,l)
);
}
);
width = 674;
},
{
anchors = (
{
name = bottom;
pos = (317,0);
},
{
name = center;
pos = (198,629);
},
{
name = top;
pos = (145,710);
}
);
layerId = m005;
shapes = (
{
closed = 1;
nodes = (
(539,0,l),
(539,376,ls),
(539,484,o),
(466,542,o),
(390,542,cs),
(292,542,o),
(235,481,o),
(219,345,c),
(249,296,l),
(254,354,o),
(274,381,o),
(298,381,cs),
(316,381,o),
(325,360,o),
(325,321,cs),
(325,0,l)
);
},
{
closed = 1;
nodes = (
(251,0,l),
(251,380,l),
(246,399,l),
(246,710,l),
(37,710,l),
(37,0,l)
);
}
);
width = 572;
},
{
associatedMasterId = m005;
layerId = "8A6BE759-1555-49CA-8C61-8C08CB82CFB0";
name = "23 Oct 21, 17:52";
shapes = (
{
closed = 1;
nodes = (
(594,0,l),
(594,331,ls),
(594,466,o),
(508,532,o),
(387,532,cs),
(270,532,o),
(192,471,o),
(160,335,c),
(170,290,l),
(202,401,o),
(279,444,o),
(370,444,cs),
(455,444,o),
(500,407,o),
(500,321,cs),
(500,0,l)
);
},
{
closed = 1;
nodes = (
(179,0,l),
(179,736,l),
(85,736,l),
(85,0,l)
);
}
);
width = 674;
}
);
metricLeft = l;
metricRight = n;
unicode = 104;
},
{
glyphname = idotless;
lastChange = "2022-06-06 12:04:38 +0000";
layers = (
{
anchors = (
{
name = bottom;
pos = (116,0);
},
{
name = ogonek;
pos = (163,0);
},
{
name = top;
pos = (116,520);
}
);
layerId = m01;
shapes = (
{
closed = 1;
nodes = (
(163,0,l),
(163,520,l),
(69,520,l),
(69,0,l)
);
}
);
width = 232;
},
{
anchors = (
{
name = bottom;
pos = (133,0);
},
{
name = ogonek;
pos = (210,0);
},
{
name = top;
pos = (133,530);
}
);
layerId = m002;
shapes = (
{
closed = 1;
nodes = (
(210,0,l),
(210,530,l),
(56,530,l),
(56,0,l)
);
}
);
width = 266;
},
{
anchors = (
{
name = bottom;
pos = (41,0);
},
{
name = ogonek;
pos = (88,0);
},
{
name = top;
pos = (191,520);
}
);
layerId = m003;
shapes = (
{
closed = 1;
nodes = (
(89,0,l),
(238,520,l),
(144,520,l),
(-6,0,l)
);
}
);
width = 233;
},
{
anchors = (
{
name = bottom;
pos = (59,0);
},
{
name = ogonek;
pos = (136,0);
},
{
name = top;
pos = (211,530);
}
);
layerId = m004;
shapes = (
{
closed = 1;
nodes = (
(136,0,l),
(287,530,l),
(134,530,l),
(-18,0,l)
);
}
);
width = 270;
},
{
anchors = (
{
name = bottom;
pos = (144,0);
},
{
name = ogonek;
pos = (251,0);
},
{
name = top;
pos = (144,530);
}
);
layerId = m005;
shapes = (
{
closed = 1;
nodes = (
(251,0,l),
(251,530,l),
(37,530,l),
(37,0,l)
);
}
);
width = 288;
}
);
metricLeft = n;
metricRight = "=|n";
unicode = 305;
},
{
glyphname = j;
lastChange = "2022-06-08 11:55:37 +0000";
layers = (
{
layerId = m01;
shapes = (
{
ref = jdotless;
},
{
pos = (10,0);
ref = dotaccentcomb;
}
);
width = 233;
},
{
associatedMasterId = m01;
layerId = "082ED60C-F19E-4ABA-BF59-5C960A6AC704";
name = "23 Oct 21, 18:40";
shapes = (
{
closed = 1;
nodes = (
(76,-91,o),
(43,-137,o),
(-43,-171,c),
(76,-209,l),
(139,-165,o),
(170,-112,o),
(170,-10,cs),
(170,520,l),
(76,520,l),
(76,20,ls)
);
},
{
closed = 1;
nodes = (
(170,635,l),
(170,744,l),
(76,744,l),
(76,635,l)
);
}
);
width = 246;
},
{
layerId = m002;
shapes = (
{
ref = jdotless;
},
{
pos = (16,0);
ref = dotaccentcomb;
}
);
width = 253;
},
{
associatedMasterId = m002;
layerId = "9B565458-3C8C-4013-B00E-73A5B60C0C92";
name = "23 Oct 21, 18:40";
shapes = (
{
closed = 1;
nodes = (
(76,-91,o),
(43,-137,o),
(-43,-171,c),
(76,-209,l),
(139,-165,o),
(170,-112,o),
(170,-10,cs),
(170,520,l),
(76,520,l),
(76,20,ls)
);
},
{
closed = 1;
nodes = (
(170,635,l),
(170,744,l),
(76,744,l),
(76,635,l)
);
}
);
width = 246;
},
{
layerId = m003;
shapes = (
{
ref = jdotless;
},
{
pos = (47,0);
ref = dotaccentcomb;
}
);
width = 233;
},
{
associatedMasterId = m003;
layerId = "A64A11BC-17A0-4AA9-A590-99F74FAC2CF3";
name = "23 Oct 21, 18:40";
shapes = (
{
closed = 1;
nodes = (
(76,-91,o),
(43,-137,o),
(-43,-171,c),
(76,-209,l),
(139,-165,o),
(170,-112,o),
(170,-10,cs),
(170,520,l),
(76,520,l),
(76,20,ls)
);
},
{
closed = 1;
nodes = (
(170,635,l),
(170,744,l),
(76,744,l),
(76,635,l)
);
}
);
width = 246;
},
{
layerId = m004;
shapes = (
{
ref = jdotless;
},
{
pos = (157,0);
ref = dotaccentcomb;
}
);
width = 270;
},
{
associatedMasterId = m004;
layerId = "9603F827-20FB-4CE0-8EE5-97451C486619";
name = "23 Oct 21, 18:40";
shapes = (
{
closed = 1;
nodes = (
(76,-91,o),
(43,-137,o),
(-43,-171,c),
(76,-209,l),
(139,-165,o),
(170,-112,o),
(170,-10,cs),
(170,520,l),
(76,520,l),
(76,20,ls)
);
},
{
closed = 1;
nodes = (
(170,635,l),
(170,744,l),
(76,744,l),
(76,635,l)
);
}
);
width = 246;
},
{
layerId = m005;
shapes = (
{
ref = jdotless;
},
{
pos = (32,0);
ref = dotaccentcomb;
}
);
width = 288;
},
{
associatedMasterId = m005;
layerId = "25DCA1DF-5717-4E3D-8623-F5A4EFA98159";
name = "23 Oct 21, 18:40";
shapes = (
{
closed = 1;
nodes = (
(76,-91,o),
(43,-137,o),
(-43,-171,c),
(76,-209,l),
(139,-165,o),
(170,-112,o),
(170,-10,cs),
(170,520,l),
(76,520,l),
(76,20,ls)
);
},
{
closed = 1;
nodes = (
(170,635,l),
(170,744,l),
(76,744,l),
(76,635,l)
);
}
);
width = 246;
}
);
unicode = 106;
},
{
glyphname = jdotless;
lastChange = "2022-06-06 12:04:48 +0000";
layers = (
{
anchors = (
{
name = bottom;
pos = (117,-200);
},
{
name = top;
pos = (117,520);
}
);
layerId = m01;
metricRight = "=idotless";
shapes = (
{
closed = 1;
nodes = (
(129,-200,o),
(164,-156,o),
(164,-88,cs),
(164,520,l),
(70,520,l),
(70,-81,ls),
(70,-106,o),
(57,-116,o),
(31,-116,cs),
(16,-116,o),
(2,-115,o),
(-14,-111,c),
(-17,-194,l),
(2,-198,o),
(26,-200,o),
(49,-200,cs)
);
}
);
width = 233;
},
{
anchors = (
{
name = bottom;
pos = (126,-200);
},
{
name = top;
pos = (122,530);
}
);
background = {
shapes = (
{
ref = i;
}
);
};
layerId = m002;
metricRight = "=idotless";
shapes = (
{
closed = 1;
nodes = (
(172,-200,o),
(199,-169,o),
(199,-108,cs),
(199,530,l),
(45,530,l),
(45,-41,ls),
(45,-65,o),
(37,-76,o),
(13,-76,cs),
(0,-76,o),
(-9,-75,o),
(-18,-71,c),
(-18,-191,l),
(-1,-198,o),
(24,-200,o),
(72,-200,cs)
);
}
);
width = 253;
},
{
anchors = (
{
name = bottom;
pos = (-11,-200);
},
{
name = top;
pos = (189,520);
}
);
layerId = m003;
shapes = (
{
closed = 1;
nodes = (
(31,-200,o),
(107,-123,o),
(85,-17,c),
(239,520,l),
(143,520,l),
(0,18,l),
(14,-76,o),
(-14,-122,o),
(-57,-122,cs),
(-78,-122,o),
(-96,-113,o),
(-109,-90,c),
(-183,-139,l),
(-150,-182,o),
(-104,-200,o),
(-62,-200,cs)
);
}
);
width = 233;
},
{
anchors = (
{
name = bottom;
pos = (-2,-200);
},
{
name = top;
pos = (211,530);
}
);
background = {
shapes = (
{
ref = i;
}
);
};
layerId = m004;
metricRight = "=idotless";
shapes = (
{
closed = 1;
nodes = (
(54,-200,o),
(148,-135,o),
(139,-11,c),
(292,530,l),
(134,530,l),
(-20,-9,l),
(-23,-62,o),
(-47,-88,o),
(-58,-88,cs),
(-81,-88,o),
(-94,-81,o),
(-109,-65,c),
(-200,-165,l),
(-162,-190,o),
(-124,-200,o),
(-69,-200,cs)
);
}
);
width = 270;
},
{
anchors = (
{
name = bottom;
pos = (157,-200);
},
{
name = top;
pos = (144,530);
}
);
background = {
shapes = (
{
pos = (32,0);
ref = i;
}
);
};
layerId = m005;
metricRight = "=idotless";
shapes = (
{
closed = 1;
nodes = (
(227,-197,o),
(251,-164,o),
(251,-98,cs),
(251,530,l),
(37,530,l),
(37,-21,ls),
(37,-46,o),
(33,-56,o),
(17,-56,cs),
(9,-56,o),
(2,-55,o),
(-2,-51,c),
(-1,-191,l),
(24,-196,o),
(72,-197,o),
(125,-197,cs)
);
}
);
width = 288;
}
);
metricRight = idotless;
unicode = 567;
},
{
glyphname = k;
lastChange = "2022-06-07 12:49:32 +0000";
layers = (
{
anchors = (
{
name = bottom;
pos = (242,0);
},
{
name = top;
pos = (123,736);
}
);
layerId = m01;
shapes = (
{
closed = 1;
nodes = (
(464,520,l),
(342,520,l),
(117,244,l),
(130,138,l)
);
},
{
closed = 1;
nodes = (
(169,0,l),
(169,736,l),
(75,736,l),
(75,0,l)
);
},
{
closed = 1;
nodes = (
(481,0,l),
(265,373,l),
(200,302,l),
(367,0,l)
);
}
);
width = 483;
},
{
anchors = (
{
name = bottom;
pos = (239,0);
},
{
name = top;
pos = (117,736);
}
);
layerId = m002;
shapes = (
{
closed = 1;
nodes = (
(523,530,l),
(338,530,l),
(131,284,l),
(169,178,l)
);
},
{
closed = 1;
nodes = (
(208,0,l),
(208,736,l),
(56,736,l),
(56,0,l)
);
},
{
closed = 1;
nodes = (
(530,0,l),
(342,393,l),
(217,322,l),
(355,0,l)
);
}
);
width = 531;
},
{
anchors = (
{
name = bottom;
pos = (168,0);
},
{
name = top;
pos = (258,736);
}
);
layerId = m003;
shapes = (
{
closed = 1;
nodes = (
(547,520,l),
(417,520,l),
(113,244,l),
(104,138,l)
);
},
{
closed = 1;
nodes = (
(96,0,l),
(306,736,l),
(211,736,l),
(1,0,l)
);
},
{
closed = 1;
nodes = (
(408,0,l),
(298,373,l),
(222,302,l),
(303,0,l)
);
}
);
width = 485;
},
{
anchors = (
{
name = bottom;
pos = (189,0);
},
{
name = top;
pos = (268,736);
}
);
layerId = m004;
shapes = (
{
closed = 1;
nodes = (
(602,530,l),
(398,530,l),
(124,284,l),
(170,173,l)
);
},
{
closed = 1;
nodes = (
(143,0,l),
(347,736,l),
(188,736,l),
(-16,0,l)
);
},
{
closed = 1;
nodes = (
(442,0,l),
(385,393,l),
(244,322,l),
(274,0,l)
);
}
);
width = 521;
},
{
anchors = (
{
name = bottom;
pos = (293,0);
},
{
name = top;
pos = (137,710);
}
);
background = {
shapes = (
{
closed = 1;
nodes = (
(61,732,l),
(61,0,l),
(269,0,l),
(269,138,l),
(345,212,l),
(452,0,l),
(681,0,l),
(480,344,l),
(670,530,l),
(420,530,l),
(269,354,l),
(269,732,l)
);
}
);
};
layerId = m005;
shapes = (
{
closed = 1;
nodes = (
(583,530,l),
(343,530,l),
(160,244,l),
(185,85,l)
);
},
{
closed = 1;
nodes = (
(246,0,l),
(246,710,l),
(37,710,l),
(37,0,l)
);
},
{
closed = 1;
nodes = (
(599,0,l),
(419,393,l),
(240,322,l),
(365,0,l)
);
}
);
width = 598;
}
);
metricLeft = l;
unicode = 107;
},
{
glyphname = l;
lastChange = "2022-06-07 12:49:38 +0000";
layers = (
{
anchors = (
{
name = bottom;
pos = (122,0);
},
{
name = center;
pos = (122,368);
},
{
name = top;
pos = (122,736);
},
{
name = topright;
pos = (169,736);
}
);
layerId = m01;
shapes = (
{
closed = 1;
nodes = (
(169,0,l),
(169,736,l),
(75,736,l),
(75,0,l)
);
}
);
width = 244;
},
{
anchors = (
{
name = bottom;
pos = (146,0);
},
{
name = center;
pos = (146,368);
},
{
name = top;
pos = (146,736);
},
{
name = topright;
pos = (210,736);
}
);
layerId = m002;
shapes = (
{
closed = 1;
nodes = (
(210,0,l),
(210,736,l),
(56,736,l),
(56,0,l)
);
}
);
width = 266;
},
{
anchors = (
{
name = bottom;
pos = (47,0);
},
{
name = center;
pos = (153,368);
},
{
name = top;
pos = (259,736);
},
{
name = topright;
pos = (306,736);
}
);
layerId = m003;
shapes = (
{
closed = 1;
nodes = (
(94,0,l),
(306,736,l),
(212,736,l),
(0,0,l)
);
}
);
width = 245;
},
{
anchors = (
{
name = bottom;
pos = (55,0);
},
{
name = center;
pos = (161,368);
},
{
name = top;
pos = (267,736);
},
{
name = topright;
pos = (344,736);
}
);
layerId = m004;
shapes = (
{
closed = 1;
nodes = (
(132,0,l),
(344,736,l),
(190,736,l),
(-22,0,l)
);
}
);
width = 264;
},
{
anchors = (
{
name = bottom;
pos = (144,0);
},
{
name = center;
pos = (144,355);
},
{
name = top;
pos = (144,710);
},
{
name = topright;
pos = (251,710);
}
);
layerId = m005;
shapes = (
{
closed = 1;
nodes = (
(251,0,l),
(251,710,l),
(37,710,l),
(37,0,l)
);
}
);
width = 288;
}
);
metricLeft = n;
metricRight = "=|n";
unicode = 108;
},
{
glyphname = m;
lastChange = "2022-06-07 12:49:45 +0000";
layers = (
{
anchors = (
{
name = bottom;
pos = (403,0);
},
{
name = top;
pos = (403,520);
}
);
guides = (
{
pos = (79,221);
showMeasurement = 1;
}
);
layerId = m01;
shapes = (
{
closed = 1;
nodes = (
(734,0,l),
(734,367,ls),
(734,475,o),
(669,532,o),
(580,532,cs),
(501,532,o),
(448,477,o),
(432,356,c),
(449,311,l),
(460,411,o),
(508,450,o),
(558,450,cs),
(612,450,o),
(641,420,o),
(641,357,cs),
(641,0,l)
);
},
{
closed = 1;
nodes = (
(168,0,l),
(168,379,l),
(158,520,l),
(75,520,l),
(75,0,l)
);
},
{
closed = 1;
nodes = (
(451,0,l),
(451,367,ls),
(451,475,o),
(386,532,o),
(297,532,cs),
(217,532,o),
(165,477,o),
(149,356,c),
(166,311,l),
(177,411,o),
(225,450,o),
(275,450,cs),
(329,450,o),
(358,420,o),
(358,357,cs),
(358,0,l)
);
}
);
width = 805;
},
{
associatedMasterId = m01;
guides = (
{
pos = (-37,221);
showMeasurement = 1;
}
);
layerId = "B096897F-613E-46A2-8D9B-DC02D55B8440";
name = "8 Dec 21, 15:00";
shapes = (
{
closed = 1;
nodes = (
(556,0,l),
(556,345,ls),
(556,471,o),
(473,532,o),
(358,532,cs),
(256,532,o),
(188,476,o),
(160,352,c),
(170,307,l),
(197,406,o),
(263,444,o),
(341,444,cs),
(420,444,o),
(462,410,o),
(462,333,cs),
(462,0,l)
);
},
{
closed = 1;
nodes = (
(179,0,l),
(179,386,l),
(155,520,l),
(85,520,l),
(85,0,l)
);
},
{
closed = 1;
nodes = (
(933,0,l),
(933,345,ls),
(933,471,o),
(850,532,o),
(735,532,cs),
(633,532,o),
(565,476,o),
(537,352,c),
(547,307,l),
(574,406,o),
(640,444,o),
(718,444,cs),
(797,444,o),
(839,410,o),
(839,333,cs),
(839,0,l)
);
}
);
width = 1013;
},
{
anchors = (
{
name = bottom;
pos = (378,0);
},
{
name = top;
pos = (378,530);
}
);
guides = (
{
pos = (150,221);
showMeasurement = 1;
}
);
layerId = m002;
shapes = (
{
closed = 1;
nodes = (
(739,0,l),
(739,376,ls),
(739,484,o),
(679,542,o),
(602,542,cs),
(509,542,o),
(463,480,o),
(448,357,c),
(470,312,l),
(478,393,o),
(507,425,o),
(542,425,cs),
(575,425,o),
(591,398,o),
(591,345,cs),
(591,0,l)
);
},
{
closed = 1;
nodes = (
(204,0,l),
(204,389,l),
(197,530,l),
(56,530,l),
(56,0,l)
);
},
{
closed = 1;
nodes = (
(472,0,l),
(472,376,ls),
(472,484,o),
(412,542,o),
(335,542,cs),
(245,542,o),
(196,485,o),
(181,357,c),
(202,312,l),
(210,393,o),
(240,425,o),
(274,425,cs),
(308,425,o),
(323,397,o),
(323,345,cs),
(323,0,l)
);
}
);
width = 791;
},
{
associatedMasterId = m002;
guides = (
{
pos = (-37,221);
showMeasurement = 1;
}
);
layerId = "868C62CE-BF0E-42F0-8A7C-F9CFCC7E9826";
name = "8 Dec 21, 15:00";
shapes = (
{
closed = 1;
nodes = (
(556,0,l),
(556,345,ls),
(556,471,o),
(473,532,o),
(358,532,cs),
(256,532,o),
(188,476,o),
(160,352,c),
(170,307,l),
(197,406,o),
(263,444,o),
(341,444,cs),
(420,444,o),
(462,410,o),
(462,333,cs),
(462,0,l)
);
},
{
closed = 1;
nodes = (
(179,0,l),
(179,386,l),
(155,520,l),
(85,520,l),
(85,0,l)
);
},
{
closed = 1;
nodes = (
(933,0,l),
(933,345,ls),
(933,471,o),
(850,532,o),
(735,532,cs),
(633,532,o),
(565,476,o),
(537,352,c),
(547,307,l),
(574,406,o),
(640,444,o),
(718,444,cs),
(797,444,o),
(839,410,o),
(839,333,cs),
(839,0,l)
);
}
);
width = 1013;
},
{
anchors = (
{
name = bottom;
pos = (392,0);
},
{
name = top;
pos = (414,520);
}
);
guides = (
{
pos = (-21,221);
showMeasurement = 1;
}
);
layerId = m003;
shapes = (
{
closed = 1;
nodes = (
(654,0,l),
(757,363,ls),
(784,457,o),
(736,527,o),
(651,527,cs),
(564,527,o),
(492,460,o),
(433,298,c),
(442,245,l),
(493,394,o),
(557,448,o),
(615,448,cs),
(659,448,o),
(677,418,o),
(662,363,cs),
(561,0,l)
);
},
{
closed = 1;
nodes = (
(97,0,l),
(203,379,l),
(233,520,l),
(149,520,l),
(3,0,l)
);
},
{
closed = 1;
nodes = (
(375,0,l),
(478,363,ls),
(505,457,o),
(457,527,o),
(373,527,cs),
(288,527,o),
(215,459,o),
(159,292,c),
(163,245,l),
(214,394,o),
(279,448,o),
(337,448,cs),
(380,448,o),
(398,418,o),
(383,363,cs),
(282,0,l)
);
}
);
width = 800;
},
{
associatedMasterId = m003;
guides = (
{
pos = (-37,221);
showMeasurement = 1;
}
);
layerId = "16A5614A-E05C-487E-94BC-E5ACA80CD01A";
name = "8 Dec 21, 15:00";
shapes = (
{
closed = 1;
nodes = (
(556,0,l),
(556,345,ls),
(556,471,o),
(473,532,o),
(358,532,cs),
(256,532,o),
(188,476,o),
(160,352,c),
(170,307,l),
(197,406,o),
(263,444,o),
(341,444,cs),
(420,444,o),
(462,410,o),
(462,333,cs),
(462,0,l)
);
},
{
closed = 1;
nodes = (
(179,0,l),
(179,386,l),
(155,520,l),
(85,520,l),
(85,0,l)
);
},
{
closed = 1;
nodes = (
(933,0,l),
(933,345,ls),
(933,471,o),
(850,532,o),
(735,532,cs),
(633,532,o),
(565,476,o),
(537,352,c),
(547,307,l),
(574,406,o),
(640,444,o),
(718,444,cs),
(797,444,o),
(839,410,o),
(839,333,cs),
(839,0,l)
);
}
);
width = 1013;
},
{
anchors = (
{
name = bottom;
pos = (356,0);
},
{
name = top;
pos = (380,530);
}
);
background = {
shapes = (
{
closed = 1;
nodes = (
(765,0,l),
(871,376,ls),
(901,484,o),
(845,542,o),
(757,542,cs),
(659,542,o),
(588,485,o),
(535,357,c),
(544,312,l),
(576,393,o),
(623,425,o),
(667,425,cs),
(711,425,o),
(727,398,o),
(712,345,cs),
(615,0,l)
);
},
{
closed = 1;
nodes = (
(151,0,l),
(260,389,l),
(292,530,l),
(150,530,l),
(1,0,l)
);
},
{
closed = 1;
nodes = (
(458,0,l),
(564,376,ls),
(594,484,o),
(538,542,o),
(450,542,cs),
(352,542,o),
(280,485,o),
(228,357,c),
(237,312,l),
(269,393,o),
(317,425,o),
(360,425,cs),
(404,425,o),
(420,398,o),
(405,345,cs),
(308,0,l)
);
}
);
};
guides = (
{
pos = (152,221);
showMeasurement = 1;
}
);
layerId = m004;
shapes = (
{
closed = 1;
nodes = (
(616,0,l),
(714,352,ls),
(741,449,o),
(718,541,o),
(626,541,cs),
(549,541,o),
(496,482,o),
(435,313,c),
(446,263,l),
(486,394,o),
(508,432,o),
(536,432,cs),
(575,432,o),
(576,391,o),
(562,342,cs),
(465,0,l)
);
},
{
closed = 1;
nodes = (
(129,0,l),
(239,389,l),
(273,530,l),
(129,530,l),
(-19,0,l)
);
},
{
closed = 1;
nodes = (
(373,0,l),
(472,352,ls),
(499,449,o),
(476,541,o),
(384,541,cs),
(309,541,o),
(260,481,o),
(201,311,c),
(204,263,l),
(244,394,o),
(267,432,o),
(295,432,cs),
(333,432,o),
(333,389,o),
(320,342,cs),
(223,0,l)
);
}
);
width = 742;
},
{
associatedMasterId = m004;
guides = (
{
pos = (-37,221);
showMeasurement = 1;
}
);
layerId = "CE33F62A-42F5-418C-A600-A9D5C0B5BD12";
name = "8 Dec 21, 15:00";
shapes = (
{
closed = 1;
nodes = (
(556,0,l),
(556,345,ls),
(556,471,o),
(473,532,o),
(358,532,cs),
(256,532,o),
(188,476,o),
(160,352,c),
(170,307,l),
(197,406,o),
(263,444,o),
(341,444,cs),
(420,444,o),
(462,410,o),
(462,333,cs),
(462,0,l)
);
},
{
closed = 1;
nodes = (
(179,0,l),
(179,386,l),
(155,520,l),
(85,520,l),
(85,0,l)
);
},
{
closed = 1;
nodes = (
(933,0,l),
(933,345,ls),
(933,471,o),
(850,532,o),
(735,532,cs),
(633,532,o),
(565,476,o),
(537,352,c),
(547,307,l),
(574,406,o),
(640,444,o),
(718,444,cs),
(797,444,o),
(839,410,o),
(839,333,cs),
(839,0,l)
);
}
);
width = 1013;
},
{
anchors = (
{
name = bottom;
pos = (414,0);
},
{
name = top;
pos = (414,530);
}
);
guides = (
{
pos = (150,221);
showMeasurement = 1;
}
);
layerId = m005;
shapes = (
{
closed = 1;
nodes = (
(795,0,l),
(795,376,ls),
(795,484,o),
(739,542,o),
(660,542,cs),
(556,542,o),
(502,481,o),
(485,345,c),
(515,296,l),
(521,357,o),
(540,381,o),
(567,381,cs),
(588,381,o),
(593,360,o),
(593,321,cs),
(593,0,l)
);
},
{
closed = 1;
nodes = (
(239,0,l),
(239,389,l),
(234,530,l),
(37,530,l),
(37,0,l)
);
},
{
closed = 1;
nodes = (
(517,0,l),
(517,376,ls),
(517,483,o),
(462,542,o),
(382,542,cs),
(277,542,o),
(225,481,o),
(207,345,c),
(237,296,l),
(243,357,o),
(262,381,o),
(289,381,cs),
(310,381,o),
(315,360,o),
(315,321,cs),
(315,0,l)
);
}
);
width = 828;
},
{
associatedMasterId = m005;
guides = (
{
pos = (-37,221);
showMeasurement = 1;
}
);
layerId = "9C10F2B2-7510-4DBF-AA4F-40605703073B";
name = "8 Dec 21, 15:00";
shapes = (
{
closed = 1;
nodes = (
(556,0,l),
(556,345,ls),
(556,471,o),
(473,532,o),
(358,532,cs),
(256,532,o),
(188,476,o),
(160,352,c),
(170,307,l),
(197,406,o),
(263,444,o),
(341,444,cs),
(420,444,o),
(462,410,o),
(462,333,cs),
(462,0,l)
);
},
{
closed = 1;
nodes = (
(179,0,l),
(179,386,l),
(155,520,l),
(85,520,l),
(85,0,l)
);
},
{
closed = 1;
nodes = (
(933,0,l),
(933,345,ls),
(933,471,o),
(850,532,o),
(735,532,cs),
(633,532,o),
(565,476,o),
(537,352,c),
(547,307,l),
(574,406,o),
(640,444,o),
(718,444,cs),
(797,444,o),
(839,410,o),
(839,333,cs),
(839,0,l)
);
}
);
width = 1013;
}
);
metricLeft = n;
metricRight = n;
unicode = 109;
},
{
glyphname = n;
lastChange = "2022-06-04 06:29:16 +0000";
layers = (
{
anchors = (
{
name = bottom;
pos = (275,0);
},
{
name = top;
pos = (275,520);
}
);
layerId = m01;
shapes = (
{
closed = 1;
nodes = (
(478,0,l),
(478,366,ls),
(478,481,o),
(416,532,o),
(319,532,cs),
(228,532,o),
(168,474,o),
(149,345,c),
(167,300,l),
(180,408,o),
(235,450,o),
(295,450,cs),
(353,450,o),
(384,426,o),
(384,356,cs),
(384,0,l)
);
},
{
closed = 1;
nodes = (
(169,0,l),
(169,379,l),
(159,520,l),
(75,520,l),
(75,0,l)
);
}
);
width = 549;
},
{
anchors = (
{
name = bottom;
pos = (276,0);
},
{
name = top;
pos = (276,530);
}
);
layerId = m002;
shapes = (
{
closed = 1;
nodes = (
(497,0,l),
(497,366,ls),
(497,481,o),
(428,542,o),
(349,542,cs),
(257,542,o),
(202,481,o),
(187,345,c),
(208,296,l),
(217,386,o),
(250,421,o),
(288,421,cs),
(324,421,o),
(343,391,o),
(343,331,cs),
(343,0,l)
);
},
{
closed = 1;
nodes = (
(210,0,l),
(210,389,l),
(203,530,l),
(56,530,l),
(56,0,l)
);
}
);
width = 549;
},
{
anchors = (
{
name = bottom;
pos = (206,3);
},
{
name = top;
pos = (352,518);
}
);
layerId = m003;
shapes = (
{
closed = 1;
nodes = (
(410,0,l),
(509,350,ls),
(540,458,o),
(489,527,o),
(399,527,cs),
(299,527,o),
(219,456,o),
(156,282,c),
(160,235,l),
(217,389,o),
(297,445,o),
(360,445,cs),
(406,445,o),
(430,408,o),
(412,344,cs),
(315,0,l)
);
},
{
closed = 1;
nodes = (
(99,0,l),
(206,379,l),
(228,520,l),
(149,520,l),
(3,0,l)
);
}
);
width = 556;
},
{
anchors = (
{
name = bottom;
pos = (192,2);
},
{
name = top;
pos = (341,529);
}
);
layerId = m004;
shapes = (
{
closed = 1;
nodes = (
(400,0,l),
(498,344,ls),
(532,465,o),
(477,538,o),
(410,538,cs),
(339,538,o),
(277,465,o),
(207,308,c),
(211,258,l),
(264,380,o),
(289,424,o),
(321,424,cs),
(345,424,o),
(353,388,o),
(337,334,cs),
(241,0,l)
);
},
{
closed = 1;
nodes = (
(139,0,l),
(249,380,l),
(280,530,l),
(130,530,l),
(-20,0,l)
);
}
);
width = 528;
},
{
anchors = (
{
name = bottom;
pos = (292,0);
},
{
name = top;
pos = (292,530);
}
);
background = {
shapes = (
{
closed = 1;
nodes = (
(68,0,l),
(272,0,l),
(272,256,l),
(272,305,o),
(280,338,o),
(296,357,c),
(311,376,o),
(331,385,o),
(356,385,c),
(378,385,o),
(396,378,o),
(408,364,c),
(420,350,o),
(427,327,o),
(427,293,c),
(427,0,l),
(632,0,l),
(632,339,l),
(632,409,o),
(616,461,o),
(584,495,c),
(552,529,o),
(508,545,o),
(453,545,c),
(415,545,o),
(383,539,o),
(355,527,c),
(328,514,o),
(300,494,o),
(272,465,c),
(272,736,l),
(68,736,l)
);
}
);
};
layerId = m005;
shapes = (
{
closed = 1;
nodes = (
(539,0,l),
(539,376,ls),
(539,484,o),
(466,542,o),
(390,542,cs),
(292,542,o),
(235,481,o),
(219,345,c),
(249,296,l),
(254,354,o),
(274,381,o),
(298,381,cs),
(316,381,o),
(325,360,o),
(325,321,cs),
(325,0,l)
);
},
{
closed = 1;
nodes = (
(251,0,l),
(251,389,l),
(246,530,l),
(37,530,l),
(37,0,l)
);
}
);
width = 572;
}
);
unicode = 110;
},
{
glyphname = eng;
lastChange = "2022-06-07 06:55:27 +0000";
layers = (
{
anchors = (
{
name = bottom;
pos = (275,0);
},
{
name = top;
pos = (275,520);
}
);
layerId = m01;
shapes = (
{
closed = 1;
nodes = (
(444,-200,o),
(478,-156,o),
(478,-88,cs),
(478,366,ls),
(478,481,o),
(416,532,o),
(319,532,cs),
(228,532,o),
(168,474,o),
(149,345,c),
(167,300,l),
(180,408,o),
(235,450,o),
(295,450,cs),
(353,450,o),
(384,426,o),
(384,356,cs),
(384,-81,ls),
(384,-106,o),
(372,-116,o),
(345,-116,cs),
(330,-116,o),
(317,-115,o),
(301,-111,c),
(298,-194,l),
(317,-198,o),
(340,-200,o),
(363,-200,cs)
);
},
{
closed = 1;
nodes = (
(169,0,l),
(169,379,l),
(159,520,l),
(75,520,l),
(75,0,l)
);
}
);
width = 549;
},
{
anchors = (
{
name = bottom;
pos = (274,0);
},
{
name = top;
pos = (274,530);
}
);
layerId = m002;
shapes = (
{
closed = 1;
nodes = (
(470,-200,o),
(497,-169,o),
(497,-108,cs),
(497,366,ls),
(497,481,o),
(428,542,o),
(349,542,cs),
(257,542,o),
(202,481,o),
(187,345,c),
(208,296,l),
(217,386,o),
(250,421,o),
(288,421,cs),
(324,421,o),
(343,391,o),
(343,331,cs),
(343,-41,ls),
(343,-66,o),
(335,-76,o),
(311,-76,cs),
(298,-76,o),
(289,-75,o),
(280,-71,c),
(280,-191,l),
(299,-199,o),
(332,-200,o),
(371,-200,cs)
);
},
{
closed = 1;
nodes = (
(210,0,l),
(210,389,l),
(203,530,l),
(56,530,l),
(56,0,l)
);
}
);
width = 549;
},
{
anchors = (
{
name = bottom;
pos = (202,0);
},
{
name = top;
pos = (351,520);
}
);
layerId = m003;
metricRight = "=j";
shapes = (
{
closed = 1;
nodes = (
(355,-200,o),
(427,-119,o),
(405,-17,c),
(509,350,ls),
(540,458,o),
(489,527,o),
(399,527,cs),
(299,527,o),
(219,456,o),
(156,282,c),
(160,235,l),
(217,389,o),
(297,445,o),
(360,445,cs),
(406,445,o),
(430,408,o),
(412,344,cs),
(320,18,l),
(335,-76,o),
(306,-122,o),
(264,-122,cs),
(241,-122,o),
(224,-112,o),
(212,-90,c),
(137,-139,l),
(171,-182,o),
(215,-200,o),
(259,-200,cs)
);
},
{
closed = 1;
nodes = (
(99,0,l),
(206,379,l),
(228,520,l),
(149,520,l),
(3,0,l)
);
}
);
width = 553;
},
{
anchors = (
{
name = bottom;
pos = (189,0);
},
{
name = top;
pos = (340,530);
}
);
layerId = m004;
metricRight = "=j";
shapes = (
{
closed = 1;
nodes = (
(313,-200,o),
(407,-135,o),
(398,-11,c),
(498,344,ls),
(532,465,o),
(478,538,o),
(410,538,cs),
(339,538,o),
(277,465,o),
(207,308,c),
(211,258,l),
(264,380,o),
(289,424,o),
(321,424,cs),
(345,424,o),
(352,388,o),
(337,334,cs),
(240,-8,l),
(237,-61,o),
(212,-88,o),
(201,-88,cs),
(182,-88,o),
(166,-83,o),
(150,-65,c),
(59,-165,l),
(97,-190,o),
(135,-200,o),
(190,-200,cs)
);
},
{
closed = 1;
nodes = (
(139,0,l),
(249,380,l),
(280,530,l),
(130,530,l),
(-20,0,l)
);
}
);
width = 529;
},
{
anchors = (
{
name = bottom;
pos = (286,0);
},
{
name = top;
pos = (286,530);
}
);
layerId = m005;
shapes = (
{
closed = 1;
nodes = (
(515,-197,o),
(539,-164,o),
(539,-98,cs),
(539,376,ls),
(539,484,o),
(466,542,o),
(390,542,cs),
(292,542,o),
(235,481,o),
(219,345,c),
(249,296,l),
(254,354,o),
(274,381,o),
(298,381,cs),
(316,381,o),
(325,360,o),
(325,321,cs),
(325,-21,ls),
(325,-45,o),
(321,-56,o),
(304,-56,cs),
(296,-56,o),
(286,-55,o),
(281,-52,c),
(282,-191,l),
(309,-196,o),
(356,-197,o),
(413,-197,cs)
);
},
{
closed = 1;
nodes = (
(251,0,l),
(251,389,l),
(246,530,l),
(37,530,l),
(37,0,l)
);
}
);
width = 572;
}
);
metricLeft = n;
metricRight = n;
unicode = 331;
},
{
glyphname = o;
lastChange = "2022-06-06 11:42:55 +0000";
layers = (
{
anchors = (
{
name = bottom;
pos = (268,0);
},
{
name = center;
pos = (268,260);
},
{
name = ogonek;
pos = (422,55);
},
{
name = top;
pos = (268,520);
},
{
name = topright;
pos = (386,520);
}
);
layerId = m01;
shapes = (
{
closed = 1;
nodes = (
(408,-12,o),
(489,89,o),
(489,258,cs),
(489,429,o),
(408,532,o),
(268,532,cs),
(128,532,o),
(47,428,o),
(47,258,cs),
(47,90,o),
(128,-12,o),
(268,-12,cs)
);
},
{
closed = 1;
nodes = (
(191,68,o),
(143,116,o),
(143,258,cs),
(143,400,o),
(191,452,o),
(268,452,cs),
(344,452,o),
(393,400,o),
(393,258,cs),
(393,116,o),
(344,68,o),
(268,68,cs)
);
}
);
width = 536;
},
{
anchors = (
{
name = bottom;
pos = (275,0);
},
{
name = center;
pos = (275,265);
},
{
name = ogonek;
pos = (434,57);
},
{
name = top;
pos = (275,530);
},
{
name = topright;
pos = (397,530);
}
);
layerId = m002;
shapes = (
{
closed = 1;
nodes = (
(417,-12,o),
(517,95,o),
(517,263,cs),
(517,433,o),
(417,542,o),
(275,542,cs),
(134,542,o),
(34,434,o),
(34,263,cs),
(34,94,o),
(134,-12,o),
(275,-12,cs)
);
},
{
closed = 1;
nodes = (
(228,101,o),
(191,144,o),
(191,263,cs),
(191,384,o),
(228,427,o),
(275,427,cs),
(323,427,o),
(360,384,o),
(360,263,cs),
(360,144,o),
(323,101,o),
(275,101,cs)
);
}
);
width = 551;
},
{
anchors = (
{
name = bottom;
pos = (194,0);
},
{
name = center;
pos = (268,260);
},
{
name = ogonek;
pos = (374,52);
},
{
name = top;
pos = (337,520);
},
{
name = topright;
pos = (474,520);
}
);
layerId = m003;
shapes = (
{
closed = 1;
nodes = (
(391,-12,o),
(499,184,o),
(499,339,cs),
(499,464,o),
(418,532,o),
(315,532,cs),
(147,532,o),
(37,334,o),
(37,179,cs),
(37,54,o),
(120,-12,o),
(222,-12,cs)
);
},
{
closed = 1;
nodes = (
(172,67,o),
(131,104,o),
(131,178,cs),
(131,276,o),
(192,451,o),
(307,451,cs),
(365,451,o),
(405,413,o),
(405,340,cs),
(405,243,o),
(345,67,o),
(230,67,cs)
);
}
);
width = 537;
},
{
anchors = (
{
name = bottom;
pos = (191,1);
},
{
name = center;
pos = (264,265);
},
{
name = ogonek;
pos = (358,38);
},
{
name = top;
pos = (342,529);
},
{
name = topright;
pos = (451,513);
}
);
layerId = m004;
shapes = (
{
closed = 1;
nodes = (
(394,-12,o),
(510,179,o),
(510,340,cs),
(510,473,o),
(425,542,o),
(312,542,cs),
(131,542,o),
(19,343,o),
(19,188,cs),
(19,55,o),
(104,-12,o),
(217,-12,cs)
);
},
{
closed = 1;
nodes = (
(195,101,o),
(174,124,o),
(174,178,cs),
(174,263,o),
(222,427,o),
(299,427,cs),
(333,427,o),
(355,404,o),
(355,349,cs),
(355,268,o),
(306,101,o),
(228,101,cs)
);
}
);
width = 532;
},
{
anchors = (
{
name = bottom;
pos = (293,0);
},
{
name = center;
pos = (293,265);
},
{
name = ogonek;
pos = (449,57);
},
{
name = top;
pos = (293,530);
},
{
name = topright;
pos = (412,530);
}
);
background = {
shapes = (
{
closed = 1;
nodes = (
(190,10,o),
(258,-11,o),
(344,-11,c),
(439,-11,o),
(514,14,o),
(568,66,c),
(622,118,o),
(649,185,o),
(649,266,c),
(649,339,o),
(627,400,o),
(583,449,c),
(529,510,o),
(449,541,o),
(343,541,c),
(250,541,o),
(177,515,o),
(123,463,c),
(69,410,o),
(41,344,o),
(41,263,c),
(41,176,o),
(74,107,o),
(138,53,c)
);
},
{
closed = 1;
nodes = (
(292,391,o),
(317,402,o),
(346,402,c),
(374,402,o),
(397,391,o),
(417,368,c),
(435,346,o),
(445,312,o),
(445,266,c),
(445,217,o),
(435,182,o),
(417,159,c),
(398,137,o),
(374,125,o),
(345,125,c),
(316,125,o),
(292,137,o),
(273,159,c),
(253,182,o),
(244,217,o),
(244,264,c),
(244,310,o),
(253,345,o),
(273,367,c)
);
}
);
};
layerId = m005;
shapes = (
{
closed = 1;
nodes = (
(448,-12,o),
(559,94,o),
(559,263,cs),
(559,434,o),
(448,542,o),
(293,542,cs),
(139,542,o),
(28,434,o),
(28,263,cs),
(28,94,o),
(139,-12,o),
(293,-12,cs)
);
},
{
closed = 1;
nodes = (
(265,133,o),
(244,152,o),
(244,263,cs),
(244,374,o),
(265,395,o),
(293,395,cs),
(321,395,o),
(343,374,o),
(343,263,cs),
(343,152,o),
(321,133,o),
(293,133,cs)
);
}
);
width = 587;
}
);
unicode = 111;
},
{
glyphname = p;
lastChange = "2022-06-07 12:49:52 +0000";
layers = (
{
anchors = (
{
name = bottom;
pos = (276,0);
},
{
name = top;
pos = (276,520);
}
);
layerId = m01;
shapes = (
{
closed = 1;
nodes = (
(422,-2,o),
(505,97,o),
(505,264,cs),
(505,431,o),
(422,532,o),
(312,532,cs),
(203,532,o),
(140,429,o),
(140,265,cs),
(140,101,o),
(203,-2,o),
(312,-2,cs)
);
},
{
closed = 1;
nodes = (
(169,-200,l),
(169,387,l),
(159,520,l),
(75,520,l),
(75,-200,l)
);
},
{
closed = 1;
nodes = (
(221,74,o),
(169,135,o),
(169,264,cs),
(169,393,o),
(221,450,o),
(289,450,cs),
(358,450,o),
(410,393,o),
(410,264,cs),
(410,135,o),
(358,74,o),
(289,74,cs)
);
}
);
width = 552;
},
{
anchors = (
{
name = bottom;
pos = (265,0);
},
{
name = top;
pos = (265,530);
}
);
layerId = m002;
shapes = (
{
closed = 1;
nodes = (
(427,-2,o),
(503,102,o),
(503,269,cs),
(503,436,o),
(427,542,o),
(320,542,cs),
(221,542,o),
(180,436,o),
(180,269,cs),
(180,102,o),
(221,-2,o),
(320,-2,cs)
);
},
{
closed = 1;
nodes = (
(208,-200,l),
(208,389,l),
(204,530,l),
(54,530,l),
(54,-200,l)
);
},
{
closed = 1;
nodes = (
(237,108,o),
(208,149,o),
(208,269,cs),
(208,389,o),
(237,426,o),
(276,426,cs),
(315,426,o),
(344,387,o),
(344,269,cs),
(344,151,o),
(315,108,o),
(276,108,cs)
);
}
);
width = 530;
},
{
anchors = (
{
name = bottom;
pos = (221,0);
},
{
name = top;
pos = (335,520);
}
);
layerId = m003;
shapes = (
{
closed = 1;
nodes = (
(332,-2,o),
(524,244,o),
(524,392,cs),
(524,484,o),
(473,532,o),
(418,532,cs),
(305,532,o),
(119,279,o),
(119,126,cs),
(119,45,o),
(154,-2,o),
(217,-2,cs)
);
},
{
closed = 1;
nodes = (
(38,-200,l),
(205,387,l),
(227,520,l),
(149,520,l),
(-57,-200,l)
);
},
{
closed = 1;
nodes = (
(184,76,o),
(156,115,o),
(156,186,cs),
(156,286,o),
(250,453,o),
(346,453,cs),
(395,453,o),
(428,418,o),
(428,344,cs),
(428,249,o),
(326,76,o),
(237,76,cs)
);
}
);
width = 553;
},
{
anchors = (
{
name = bottom;
pos = (293,0);
},
{
name = top;
pos = (252,530);
}
);
layerId = m004;
shapes = (
{
closed = 1;
nodes = (
(120,-1,o),
(179,-1,cs),
(394,-1,o),
(595,202,o),
(595,421,cs),
(595,503,o),
(553,542,o),
(470,542,cs),
(286,542,o),
(97,300,o),
(97,65,cs),
(97,22,o)
);
},
{
closed = 1;
nodes = (
(79,-200,l),
(244,389,l),
(284,530,l),
(130,530,l),
(-75,-200,l)
);
},
{
closed = 1;
nodes = (
(184,128,o),
(184,156,cs),
(184,277,o),
(260,432,o),
(368,432,cs),
(373,432,o),
(385,421,o),
(385,394,cs),
(385,279,o),
(304,115,o),
(199,115,cs),
(195,115,o)
);
}
);
width = 540;
},
{
anchors = (
{
name = bottom;
pos = (284,0);
},
{
name = top;
pos = (284,530);
}
);
background = {
shapes = (
{
closed = 1;
nodes = (
(241,-187,l),
(241,61,l),
(260,40,o),
(283,26,o),
(309,15,c),
(333,4,o),
(362,-1,o),
(393,-1,c),
(455,-1,o),
(508,22,o),
(550,68,c),
(590,112,o),
(612,178,o),
(612,265,c),
(612,343,o),
(593,408,o),
(555,462,c),
(516,515,o),
(463,542,o),
(393,542,c),
(358,542,o),
(327,534,o),
(297,519,c),
(275,507,o),
(252,485,o),
(227,453,c),
(227,530,l),
(40,530,l),
(40,-187,l)
);
},
{
closed = 1;
nodes = (
(282,385,o),
(304,396,o),
(328,396,c),
(352,396,o),
(371,385,o),
(388,366,c),
(404,346,o),
(412,315,o),
(412,273,c),
(412,227,o),
(405,196,o),
(389,176,c),
(374,157,o),
(354,147,o),
(331,147,c),
(305,147,o),
(282,158,o),
(266,177,c),
(248,197,o),
(240,228,o),
(240,269,c),
(240,314,o),
(248,346,o),
(264,366,c)
);
}
);
};
layerId = m005;
shapes = (
{
closed = 1;
nodes = (
(455,0,o),
(539,105,o),
(539,270,cs),
(539,439,o),
(455,542,o),
(345,542,cs),
(230,542,o),
(176,437,o),
(176,270,cs),
(176,105,o),
(230,0,o),
(345,0,cs)
);
},
{
closed = 1;
nodes = (
(243,-185,l),
(243,397,l),
(209,407,l),
(189,530,l),
(37,530,l),
(37,-185,l)
);
},
{
closed = 1;
nodes = (
(258,143,o),
(243,169,o),
(243,267,cs),
(243,365,o),
(258,393,o),
(287,393,cs),
(316,393,o),
(331,365,o),
(331,267,cs),
(331,169,o),
(316,143,o),
(287,143,cs)
);
}
);
width = 567;
}
);
metricLeft = n;
metricRight = o;
unicode = 112;
},
{
glyphname = q;
lastChange = "2022-06-06 11:50:12 +0000";
layers = (
{
anchors = (
{
name = bottom;
pos = (276,0);
},
{
name = top;
pos = (276,520);
}
);
layerId = m01;
shapes = (
{
closed = 1;
nodes = (
(348,-2,o),
(412,100,o),
(412,265,cs),
(412,430,o),
(348,532,o),
(240,532,cs),
(130,532,o),
(47,432,o),
(47,264,cs),
(47,100,o),
(130,-2,o),
(240,-2,cs)
);
},
{
closed = 1;
nodes = (
(194,78,o),
(142,136,o),
(142,264,cs),
(142,396,o),
(194,454,o),
(262,454,cs),
(331,454,o),
(383,395,o),
(383,264,cs),
(383,137,o),
(331,78,o),
(262,78,cs)
);
},
{
closed = 1;
nodes = (
(477,-200,l),
(477,520,l),
(393,520,l),
(383,387,l),
(383,-200,l)
);
}
);
width = 552;
},
{
anchors = (
{
name = bottom;
pos = (266,0);
},
{
name = top;
pos = (266,530);
}
);
layerId = m002;
shapes = (
{
closed = 1;
nodes = (
(309,-12,o),
(350,95,o),
(350,264,cs),
(350,435,o),
(309,542,o),
(209,542,cs),
(103,542,o),
(27,437,o),
(27,264,cs),
(27,95,o),
(103,-12,o),
(209,-12,cs)
);
},
{
closed = 1;
nodes = (
(215,104,o),
(186,150,o),
(186,270,cs),
(186,388,o),
(215,432,o),
(254,432,cs),
(293,432,o),
(322,388,o),
(322,270,cs),
(322,149,o),
(293,104,o),
(254,104,cs)
);
},
{
closed = 1;
nodes = (
(476,-200,l),
(476,530,l),
(326,530,l),
(322,397,l),
(322,-200,l)
);
}
);
width = 530;
},
{
anchors = (
{
name = bottom;
pos = (276,0);
},
{
name = top;
pos = (426,520);
}
);
layerId = m003;
metricRight = "=u-5";
shapes = (
{
closed = 1;
nodes = (
(419,-2,o),
(510,220,o),
(510,355,cs),
(510,466,o),
(456,532,o),
(351,532,cs),
(164,532,o),
(53,345,o),
(53,196,cs),
(53,75,o),
(137,-2,o),
(239,-2,cs)
);
},
{
closed = 1;
nodes = (
(201,76,o),
(147,119,o),
(147,205,cs),
(147,297,o),
(217,453,o),
(353,453,cs),
(418,453,o),
(472,416,o),
(472,326,cs),
(472,228,o),
(406,76,o),
(268,76,cs)
);
},
{
closed = 1;
nodes = (
(467,-200,l),
(456,-128,o),
(468,-58,o),
(538,185,cs),
(635,520,l),
(554,520,l),
(501,387,l),
(447,199,ls),
(372,-61,o),
(364,-135,o),
(365,-200,c)
);
}
);
width = 645;
},
{
anchors = (
{
name = bottom;
pos = (255,0);
},
{
name = top;
pos = (281,530);
}
);
layerId = m004;
shapes = (
{
closed = 1;
nodes = (
(82,-11,o),
(145,-11,cs),
(286,-11,o),
(381,274,o),
(381,401,cs),
(381,492,o),
(340,542,o),
(267,542,cs),
(116,542,o),
(15,320,o),
(15,170,cs),
(15,46,o)
);
},
{
closed = 1;
nodes = (
(195,99,o),
(176,123,o),
(176,180,cs),
(176,264,o),
(217,426,o),
(289,426,cs),
(319,426,o),
(336,397,o),
(336,344,cs),
(336,265,o),
(296,99,o),
(224,99,cs)
);
},
{
closed = 1;
nodes = (
(350,-200,l),
(556,530,l),
(406,530,l),
(364,397,l),
(196,-200,l)
);
}
);
width = 537;
},
{
anchors = (
{
name = bottom;
pos = (313,0);
},
{
name = top;
pos = (313,530);
}
);
layerId = m005;
shapes = (
{
closed = 1;
nodes = (
(337,0,o),
(391,105,o),
(391,270,cs),
(391,437,o),
(337,542,o),
(222,542,cs),
(112,542,o),
(28,439,o),
(28,270,cs),
(28,105,o),
(112,0,o),
(222,0,cs)
);
},
{
closed = 1;
nodes = (
(251,143,o),
(236,169,o),
(236,267,cs),
(236,365,o),
(251,393,o),
(280,393,cs),
(309,393,o),
(324,365,o),
(324,267,cs),
(324,169,o),
(309,143,o),
(280,143,cs)
);
},
{
closed = 1;
nodes = (
(530,-185,l),
(530,530,l),
(378,530,l),
(358,407,l),
(324,397,l),
(324,-185,l)
);
}
);
width = 567;
}
);
metricLeft = o;
metricRight = "=|p";
unicode = 113;
},
{
glyphname = r;
kernRight = r;
lastChange = "2022-06-07 12:50:00 +0000";
layers = (
{
anchors = (
{
name = bottom;
pos = (136,0);
},
{
name = top;
pos = (173,520);
}
);
background = {
shapes = (
{
ref = n;
}
);
};
layerId = m01;
shapes = (
{
closed = 1;
nodes = (
(169,0,l),
(169,382,l),
(159,520,l),
(75,520,l),
(75,0,l)
);
},
{
closed = 1;
nodes = (
(180,409,o),
(225,440,o),
(271,440,cs),
(289,440,o),
(303,437,o),
(315,430,c),
(337,525,l),
(321,530,o),
(304,532,o),
(288,532,cs),
(213,532,o),
(169,475,o),
(156,320,c),
(167,270,l)
);
}
);
width = 347;
},
{
anchors = (
{
name = bottom;
pos = (155,0);
},
{
name = top;
pos = (191,530);
}
);
background = {
shapes = (
{
ref = n;
}
);
};
layerId = m002;
shapes = (
{
closed = 1;
nodes = (
(210,0,l),
(210,389,l),
(203,530,l),
(56,530,l),
(56,0,l)
);
},
{
closed = 1;
nodes = (
(220,364,o),
(260,391,o),
(309,391,cs),
(331,391,o),
(347,386,o),
(358,378,c),
(374,532,l),
(356,538,o),
(337,542,o),
(321,542,cs),
(258,542,o),
(215,488,o),
(197,325,c),
(207,266,l)
);
}
);
width = 380;
},
{
associatedMasterId = m01;
background = {
shapes = (
{
ref = n;
}
);
};
layerId = "BBD50CB5-9443-4566-8326-5162E3EFD3A2";
name = "10 Dec 21, 16:19";
shapes = (
{
closed = 1;
nodes = (
(179,0,l),
(179,382,l),
(165,520,l),
(85,520,l),
(85,0,l)
);
},
{
closed = 1;
nodes = (
(190,412,o),
(241,445,o),
(308,445,cs),
(331,445,o),
(356,442,o),
(380,432,c),
(387,519,l),
(362,529,o),
(340,532,o),
(313,532,cs),
(234,532,o),
(181,477,o),
(167,348,c),
(177,290,l)
);
}
);
width = 390;
},
{
associatedMasterId = m01;
background = {
shapes = (
{
ref = n;
}
);
};
layerId = "C68017F5-955C-4C51-8825-C5B78CCB273B";
name = "17 Dec 21, 17:26";
shapes = (
{
closed = 1;
nodes = (
(179,0,l),
(179,382,l),
(165,520,l),
(85,520,l),
(85,0,l)
);
},
{
closed = 1;
nodes = (
(191,414,o),
(238,445,o),
(297,445,cs),
(312,445,o),
(328,444,o),
(347,438,c),
(352,529,l),
(338,531,o),
(322,532,o),
(308,532,cs),
(232,532,o),
(180,477,o),
(167,348,c),
(177,290,l)
);
}
);
width = 367;
},
{
associatedMasterId = m002;
background = {
shapes = (
{
ref = n;
}
);
};
layerId = "6B64E3AE-88D9-4D55-A2B4-693F9BD3A496";
name = "17 Dec 21, 18:25";
shapes = (
{
closed = 1;
nodes = (
(219,0,l),
(219,389,l),
(211,530,l),
(65,530,l),
(65,0,l)
);
},
{
closed = 1;
nodes = (
(229,364,o),
(275,391,o),
(328,391,cs),
(354,391,o),
(376,387,o),
(392,380,c),
(400,537,l),
(384,541,o),
(367,542,o),
(351,542,cs),
(272,542,o),
(222,488,o),
(206,335,c),
(217,296,l)
);
}
);
width = 408;
},
{
anchors = (
{
name = bottom;
pos = (54,0);
},
{
name = top;
pos = (253,524);
}
);
background = {
shapes = (
{
pos = (6,0);
ref = n;
}
);
};
layerId = m003;
shapes = (
{
closed = 1;
nodes = (
(99,0,l),
(187,312,l),
(226,520,l),
(149,520,l),
(3,0,l)
);
},
{
closed = 1;
nodes = (
(227,406,o),
(276,439,o),
(322,439,cs),
(344,439,o),
(363,424,o),
(370,393,c),
(441,484,l),
(421,514,o),
(391,529,o),
(359,529,cs),
(286,529,o),
(227,462,o),
(146,216,c),
(144,165,l)
);
}
);
width = 387;
},
{
associatedMasterId = m003;
background = {
shapes = (
{
ref = n;
}
);
};
layerId = "63E2E481-7FAD-47F8-95BB-ACA0C6B2E73D";
name = "10 Dec 21, 16:19";
shapes = (
{
closed = 1;
nodes = (
(179,0,l),
(179,382,l),
(165,520,l),
(85,520,l),
(85,0,l)
);
},
{
closed = 1;
nodes = (
(190,412,o),
(241,445,o),
(308,445,cs),
(331,445,o),
(356,442,o),
(380,432,c),
(387,519,l),
(362,529,o),
(340,532,o),
(313,532,cs),
(234,532,o),
(181,477,o),
(167,348,c),
(177,290,l)
);
}
);
width = 390;
},
{
associatedMasterId = m003;
background = {
shapes = (
{
ref = n;
}
);
};
layerId = "87E94358-BBC0-400C-A515-2E15BC689C7D";
name = "17 Dec 21, 17:26";
shapes = (
{
closed = 1;
nodes = (
(179,0,l),
(179,382,l),
(165,520,l),
(85,520,l),
(85,0,l)
);
},
{
closed = 1;
nodes = (
(191,414,o),
(238,445,o),
(297,445,cs),
(312,445,o),
(328,444,o),
(347,438,c),
(352,529,l),
(338,531,o),
(322,532,o),
(308,532,cs),
(232,532,o),
(180,477,o),
(167,348,c),
(177,290,l)
);
}
);
width = 367;
},
{
anchors = (
{
name = bottom;
pos = (74,0);
},
{
name = top;
pos = (287,530);
}
);
background = {
shapes = (
{
pos = (6,0);
ref = n;
},
{
closed = 1;
nodes = (
(159,0,l),
(268,389,l),
(300,530,l),
(154,530,l),
(5,0,l)
);
},
{
closed = 1;
nodes = (
(273,364,o),
(326,391,o),
(384,391,cs),
(407,391,o),
(426,387,o),
(438,378,c),
(509,532,l),
(485,538,o),
(466,542,o),
(445,542,cs),
(367,542,o),
(300,488,o),
(237,325,c),
(232,266,l)
);
}
);
};
layerId = m004;
shapes = (
{
closed = 1;
nodes = (
(140,0,l),
(229,318,l),
(274,530,l),
(129,530,l),
(-19,0,l)
);
},
{
closed = 1;
nodes = (
(230,351,o),
(265,395,o),
(312,395,cs),
(326,395,o),
(354,385,o),
(363,351,c),
(464,504,l),
(444,533,o),
(417,542,o),
(398,542,cs),
(325,542,o),
(264,458,o),
(178,191,c),
(175,128,l)
);
}
);
width = 400;
},
{
associatedMasterId = m004;
background = {
shapes = (
{
ref = n;
}
);
};
layerId = "A6A1F429-FF14-4104-818E-861F69DF749D";
name = "17 Dec 21, 18:25";
shapes = (
{
closed = 1;
nodes = (
(219,0,l),
(219,389,l),
(211,530,l),
(65,530,l),
(65,0,l)
);
},
{
closed = 1;
nodes = (
(229,364,o),
(275,391,o),
(328,391,cs),
(354,391,o),
(376,387,o),
(392,380,c),
(400,537,l),
(384,541,o),
(367,542,o),
(351,542,cs),
(272,542,o),
(222,488,o),
(206,335,c),
(217,296,l)
);
}
);
width = 408;
},
{
anchors = (
{
name = bottom;
pos = (198,0);
},
{
name = top;
pos = (198,520);
}
);
associatedMasterId = m01;
background = {
shapes = (
{
ref = n;
}
);
};
layerId = "F4C28F33-B0BE-4450-AC95-AE22FEB547D5";
name = "16 Feb 22, 11:51";
shapes = (
{
closed = 1;
nodes = (
(187,0,l),
(187,382,l),
(173,520,l),
(93,520,l),
(93,0,l)
);
},
{
closed = 1;
nodes = (
(200,412,o),
(249,444,o),
(299,444,cs),
(319,444,o),
(334,438,o),
(347,422,c),
(397,519,l),
(376,528,o),
(354,532,o),
(329,532,cs),
(238,532,o),
(185,475,o),
(171,320,c),
(185,270,l)
);
}
);
width = 389;
},
{
anchors = (
{
name = bottom;
pos = (143,0);
},
{
name = top;
pos = (212,530);
}
);
background = {
shapes = (
{
pos = (-15,0);
ref = n;
}
);
};
layerId = m005;
shapes = (
{
closed = 1;
nodes = (
(251,0,l),
(251,371,l),
(241,530,l),
(37,530,l),
(37,0,l)
);
},
{
closed = 1;
nodes = (
(263,291,o),
(315,318,o),
(357,318,cs),
(374,318,o),
(389,317,o),
(401,309,c),
(400,531,l),
(389,535,o),
(373,537,o),
(362,537,cs),
(305,537,o),
(259,481,o),
(236,320,c),
(244,204,l)
);
}
);
width = 416;
},
{
associatedMasterId = m005;
background = {
shapes = (
{
ref = n;
}
);
};
layerId = "C6DCF3AA-B2B8-4043-9FEE-811E87839BDC";
name = "17 Dec 21, 18:25";
shapes = (
{
closed = 1;
nodes = (
(219,0,l),
(219,389,l),
(211,530,l),
(65,530,l),
(65,0,l)
);
},
{
closed = 1;
nodes = (
(229,364,o),
(275,391,o),
(328,391,cs),
(354,391,o),
(376,387,o),
(392,380,c),
(400,537,l),
(384,541,o),
(367,542,o),
(351,542,cs),
(272,542,o),
(222,488,o),
(206,335,c),
(217,296,l)
);
}
);
width = 408;
}
);
metricLeft = n;
unicode = 114;
},
{
glyphname = s;
kernLeft = s;
kernRight = s;
lastChange = "2022-06-07 12:50:04 +0000";
layers = (
{
anchors = (
{
name = bottom;
pos = (223,0);
},
{
name = top;
pos = (223,520);
}
);
layerId = m01;
shapes = (
{
closed = 1;
nodes = (
(332,-12,o),
(414,53,o),
(414,165,cs),
(414,252,o),
(353,287,o),
(275,307,cs),
(205,325,ls),
(162,337,o),
(138,350,o),
(138,390,cs),
(138,431,o),
(166,456,o),
(221,456,cs),
(264,456,o),
(298,440,o),
(308,387,c),
(402,407,l),
(382,494,o),
(318,532,o),
(222,532,cs),
(104,532,o),
(47,463,o),
(47,381,cs),
(47,312,o),
(94,268,o),
(180,246,cs),
(254,227,ls),
(304,214,o),
(322,197,o),
(322,154,cs),
(322,100,o),
(285,66,o),
(228,66,cs),
(166,66,o),
(131,96,o),
(121,165,c),
(25,143,l),
(47,31,o),
(116,-12,o),
(226,-12,cs)
);
}
);
width = 446;
},
{
associatedMasterId = m01;
layerId = "CF837E61-9E3D-43CB-A070-F248A7D1189B";
name = "22 Oct 21, 17:25";
shapes = (
{
closed = 1;
nodes = (
(411,-12,o),
(506,49,o),
(506,152,cs),
(506,361,o),
(163,287,o),
(163,401,cs),
(163,435,o),
(200,457,o),
(276,457,cs),
(341,457,o),
(394,438,o),
(437,378,c),
(499,462,l),
(429,509,o),
(372,532,o),
(283,532,cs),
(136,532,o),
(69,468,o),
(69,387,cs),
(69,206,o),
(411,276,o),
(411,142,cs),
(411,99,o),
(363,70,o),
(289,70,cs),
(219,70,o),
(149,100,o),
(111,180,c),
(40,110,l),
(94,26,o),
(178,-12,o),
(285,-12,cs)
);
}
);
width = 560;
},
{
associatedMasterId = m01;
layerId = "DC3DF386-2003-4BD5-8B50-46029A507FA4";
name = "22 Oct 21, 20:19";
shapes = (
{
closed = 1;
nodes = (
(406,-12,o),
(501,52,o),
(501,161,cs),
(501,252,o),
(426,292,o),
(330,310,cs),
(251,325,ls),
(190,337,o),
(156,354,o),
(156,392,cs),
(156,431,o),
(194,456,o),
(271,456,cs),
(336,456,o),
(389,437,o),
(432,378,c),
(494,462,l),
(424,509,o),
(367,532,o),
(278,532,cs),
(131,532,o),
(64,464,o),
(64,384,cs),
(64,315,o),
(119,266,o),
(222,246,cs),
(309,229,ls),
(376,216,o),
(407,197,o),
(407,151,cs),
(407,99,o),
(359,66,o),
(284,66,cs),
(214,66,o),
(144,97,o),
(106,180,c),
(35,110,l),
(89,26,o),
(173,-12,o),
(280,-12,cs)
);
}
);
width = 546;
},
{
associatedMasterId = m01;
layerId = "B506B9BC-2AC5-43E6-BCC9-0DFF46C67D52";
name = "8 Dec 21, 18:17";
shapes = (
{
closed = 1;
nodes = (
(411,-12,o),
(508,53,o),
(508,165,cs),
(508,252,o),
(436,292,o),
(341,307,cs),
(240,323,ls),
(179,333,o),
(151,351,o),
(151,389,cs),
(151,430,o),
(191,456,o),
(265,456,cs),
(328,456,o),
(376,440,o),
(395,383,c),
(493,407,l),
(465,494,o),
(377,532,o),
(267,532,cs),
(127,532,o),
(59,463,o),
(59,381,cs),
(59,313,o),
(113,263,o),
(216,246,cs),
(322,229,ls),
(387,218,o),
(416,200,o),
(416,155,cs),
(416,101,o),
(365,66,o),
(289,66,cs),
(204,66,o),
(149,95,o),
(132,168,c),
(30,143,l),
(61,31,o),
(169,-12,o),
(286,-12,cs)
);
}
);
width = 548;
},
{
anchors = (
{
name = bottom;
pos = (238,0);
},
{
name = top;
pos = (238,530);
}
);
layerId = m002;
shapes = (
{
closed = 1;
nodes = (
(377,-12,o),
(462,59,o),
(462,179,cs),
(462,277,o),
(397,315,o),
(305,339,cs),
(243,355,ls),
(209,364,o),
(188,372,o),
(188,400,cs),
(188,425,o),
(205,440,o),
(244,440,cs),
(283,440,o),
(308,425,o),
(317,379,c),
(451,414,l),
(427,498,o),
(358,542,o),
(248,542,cs),
(112,542,o),
(43,466,o),
(43,378,cs),
(43,298,o),
(86,253,o),
(192,225,cs),
(260,207,ls),
(303,196,o),
(316,182,o),
(316,152,cs),
(316,120,o),
(291,99,o),
(253,99,cs),
(206,99,o),
(180,122,o),
(174,173,c),
(26,144,l),
(48,46,o),
(107,-12,o),
(251,-12,cs)
);
}
);
width = 487;
},
{
associatedMasterId = m002;
layerId = "BA3C00F3-4DD9-4C80-A7EF-685E1DB07AC8";
name = "22 Oct 21, 17:25";
shapes = (
{
closed = 1;
nodes = (
(411,-12,o),
(506,49,o),
(506,152,cs),
(506,361,o),
(163,287,o),
(163,401,cs),
(163,435,o),
(200,457,o),
(276,457,cs),
(341,457,o),
(394,438,o),
(437,378,c),
(499,462,l),
(429,509,o),
(372,532,o),
(283,532,cs),
(136,532,o),
(69,468,o),
(69,387,cs),
(69,206,o),
(411,276,o),
(411,142,cs),
(411,99,o),
(363,70,o),
(289,70,cs),
(219,70,o),
(149,100,o),
(111,180,c),
(40,110,l),
(94,26,o),
(178,-12,o),
(285,-12,cs)
);
}
);
width = 560;
},
{
associatedMasterId = m002;
layerId = "E2DB75F4-A86E-46C0-B97C-D259ACB20D7B";
name = "22 Oct 21, 20:19";
shapes = (
{
closed = 1;
nodes = (
(406,-12,o),
(501,52,o),
(501,161,cs),
(501,252,o),
(426,292,o),
(330,310,cs),
(251,325,ls),
(190,337,o),
(156,354,o),
(156,392,cs),
(156,431,o),
(194,456,o),
(271,456,cs),
(336,456,o),
(389,437,o),
(432,378,c),
(494,462,l),
(424,509,o),
(367,532,o),
(278,532,cs),
(131,532,o),
(64,464,o),
(64,384,cs),
(64,315,o),
(119,266,o),
(222,246,cs),
(309,229,ls),
(376,216,o),
(407,197,o),
(407,151,cs),
(407,99,o),
(359,66,o),
(284,66,cs),
(214,66,o),
(144,97,o),
(106,180,c),
(35,110,l),
(89,26,o),
(173,-12,o),
(280,-12,cs)
);
}
);
width = 546;
},
{
associatedMasterId = m002;
layerId = "FF70185D-E78E-49BC-B691-4B1418E13473";
name = "8 Dec 21, 18:17";
shapes = (
{
closed = 1;
nodes = (
(411,-12,o),
(508,53,o),
(508,165,cs),
(508,252,o),
(436,292,o),
(341,307,cs),
(240,323,ls),
(179,333,o),
(151,351,o),
(151,389,cs),
(151,430,o),
(191,456,o),
(265,456,cs),
(328,456,o),
(376,440,o),
(395,383,c),
(493,407,l),
(465,494,o),
(377,532,o),
(267,532,cs),
(127,532,o),
(59,463,o),
(59,381,cs),
(59,313,o),
(113,263,o),
(216,246,cs),
(322,229,ls),
(387,218,o),
(416,200,o),
(416,155,cs),
(416,101,o),
(365,66,o),
(289,66,cs),
(204,66,o),
(149,95,o),
(132,168,c),
(30,143,l),
(61,31,o),
(169,-12,o),
(286,-12,cs)
);
}
);
width = 548;
},
{
anchors = (
{
name = bottom;
pos = (174,0);
},
{
name = top;
pos = (268,520);
}
);
layerId = m003;
shapes = (
{
closed = 1;
nodes = (
(294,-12,o),
(380,69,o),
(380,178,cs),
(380,237,o),
(338,275,o),
(280,299,cs),
(217,325,ls),
(180,340,o),
(168,360,o),
(168,381,cs),
(168,423,o),
(204,456,o),
(247,456,cs),
(290,456,o),
(330,441,o),
(337,387,c),
(427,421,l),
(405,506,o),
(330,532,o),
(256,532,cs),
(157,532,o),
(75,458,o),
(75,370,cs),
(75,320,o),
(107,278,o),
(171,251,cs),
(238,223,ls),
(271,209,o),
(286,192,o),
(286,166,cs),
(286,113,o),
(240,67,o),
(186,67,cs),
(130,67,o),
(91,100,o),
(89,161,c),
(-7,141,l),
(-2,44,o),
(84,-12,o),
(178,-12,cs)
);
}
);
width = 434;
},
{
associatedMasterId = m003;
layerId = "68F9E48A-EC44-4D8D-83C2-4C50B5489E34";
name = "22 Oct 21, 17:25";
shapes = (
{
closed = 1;
nodes = (
(411,-12,o),
(506,49,o),
(506,152,cs),
(506,361,o),
(163,287,o),
(163,401,cs),
(163,435,o),
(200,457,o),
(276,457,cs),
(341,457,o),
(394,438,o),
(437,378,c),
(499,462,l),
(429,509,o),
(372,532,o),
(283,532,cs),
(136,532,o),
(69,468,o),
(69,387,cs),
(69,206,o),
(411,276,o),
(411,142,cs),
(411,99,o),
(363,70,o),
(289,70,cs),
(219,70,o),
(149,100,o),
(111,180,c),
(40,110,l),
(94,26,o),
(178,-12,o),
(285,-12,cs)
);
}
);
width = 560;
},
{
associatedMasterId = m003;
layerId = "3BDA9AE0-9B98-4557-896C-40B855CBFA69";
name = "22 Oct 21, 20:19";
shapes = (
{
closed = 1;
nodes = (
(406,-12,o),
(501,52,o),
(501,161,cs),
(501,252,o),
(426,292,o),
(330,310,cs),
(251,325,ls),
(190,337,o),
(156,354,o),
(156,392,cs),
(156,431,o),
(194,456,o),
(271,456,cs),
(336,456,o),
(389,437,o),
(432,378,c),
(494,462,l),
(424,509,o),
(367,532,o),
(278,532,cs),
(131,532,o),
(64,464,o),
(64,384,cs),
(64,315,o),
(119,266,o),
(222,246,cs),
(309,229,ls),
(376,216,o),
(407,197,o),
(407,151,cs),
(407,99,o),
(359,66,o),
(284,66,cs),
(214,66,o),
(144,97,o),
(106,180,c),
(35,110,l),
(89,26,o),
(173,-12,o),
(280,-12,cs)
);
}
);
width = 546;
},
{
associatedMasterId = m003;
layerId = "0E751B05-9AB8-43C9-BDB7-535C3E214F8E";
name = "8 Dec 21, 18:17";
shapes = (
{
closed = 1;
nodes = (
(411,-12,o),
(508,53,o),
(508,165,cs),
(508,252,o),
(436,292,o),
(341,307,cs),
(240,323,ls),
(179,333,o),
(151,351,o),
(151,389,cs),
(151,430,o),
(191,456,o),
(265,456,cs),
(328,456,o),
(376,440,o),
(395,383,c),
(493,407,l),
(465,494,o),
(377,532,o),
(267,532,cs),
(127,532,o),
(59,463,o),
(59,381,cs),
(59,313,o),
(113,263,o),
(216,246,cs),
(322,229,ls),
(387,218,o),
(416,200,o),
(416,155,cs),
(416,101,o),
(365,66,o),
(289,66,cs),
(204,66,o),
(149,95,o),
(132,168,c),
(30,143,l),
(61,31,o),
(169,-12,o),
(286,-12,cs)
);
}
);
width = 548;
},
{
anchors = (
{
name = bottom;
pos = (249,0);
},
{
name = top;
pos = (222,530);
}
);
layerId = m004;
shapes = (
{
closed = 1;
nodes = (
(342,-12,o),
(418,72,o),
(418,186,cs),
(418,262,o),
(371,300,o),
(309,330,cs),
(255,356,ls),
(236,367,o),
(225,378,o),
(225,394,cs),
(225,419,o),
(242,439,o),
(262,439,cs),
(304,439,o),
(333,423,o),
(337,379,c),
(468,419,l),
(456,516,o),
(348,542,o),
(279,542,cs),
(162,542,o),
(73,466,o),
(73,368,cs),
(73,308,o),
(109,268,o),
(174,236,cs),
(233,207,ls),
(254,195,o),
(263,180,o),
(263,161,cs),
(263,127,o),
(239,99,o),
(210,99,cs),
(176,99,o),
(152,117,o),
(145,178,c),
(7,141,l),
(9,25,o),
(121,-12,o),
(205,-12,cs)
);
}
);
width = 467;
},
{
associatedMasterId = m004;
layerId = "3653F5E2-81B3-4226-8DB7-2295443E26F8";
name = "22 Oct 21, 17:25";
shapes = (
{
closed = 1;
nodes = (
(411,-12,o),
(506,49,o),
(506,152,cs),
(506,361,o),
(163,287,o),
(163,401,cs),
(163,435,o),
(200,457,o),
(276,457,cs),
(341,457,o),
(394,438,o),
(437,378,c),
(499,462,l),
(429,509,o),
(372,532,o),
(283,532,cs),
(136,532,o),
(69,468,o),
(69,387,cs),
(69,206,o),
(411,276,o),
(411,142,cs),
(411,99,o),
(363,70,o),
(289,70,cs),
(219,70,o),
(149,100,o),
(111,180,c),
(40,110,l),
(94,26,o),
(178,-12,o),
(285,-12,cs)
);
}
);
width = 560;
},
{
associatedMasterId = m004;
layerId = "6C28ABA4-FF64-427B-B940-9A910DDD3DAF";
name = "22 Oct 21, 20:19";
shapes = (
{
closed = 1;
nodes = (
(406,-12,o),
(501,52,o),
(501,161,cs),
(501,252,o),
(426,292,o),
(330,310,cs),
(251,325,ls),
(190,337,o),
(156,354,o),
(156,392,cs),
(156,431,o),
(194,456,o),
(271,456,cs),
(336,456,o),
(389,437,o),
(432,378,c),
(494,462,l),
(424,509,o),
(367,532,o),
(278,532,cs),
(131,532,o),
(64,464,o),
(64,384,cs),
(64,315,o),
(119,266,o),
(222,246,cs),
(309,229,ls),
(376,216,o),
(407,197,o),
(407,151,cs),
(407,99,o),
(359,66,o),
(284,66,cs),
(214,66,o),
(144,97,o),
(106,180,c),
(35,110,l),
(89,26,o),
(173,-12,o),
(280,-12,cs)
);
}
);
width = 546;
},
{
associatedMasterId = m004;
layerId = "CF912DB1-09AA-40F4-9ECB-A108B388A5B0";
name = "8 Dec 21, 18:17";
shapes = (
{
closed = 1;
nodes = (
(411,-12,o),
(508,53,o),
(508,165,cs),
(508,252,o),
(436,292,o),
(341,307,cs),
(240,323,ls),
(179,333,o),
(151,351,o),
(151,389,cs),
(151,430,o),
(191,456,o),
(265,456,cs),
(328,456,o),
(376,440,o),
(395,383,c),
(493,407,l),
(465,494,o),
(377,532,o),
(267,532,cs),
(127,532,o),
(59,463,o),
(59,381,cs),
(59,313,o),
(113,263,o),
(216,246,cs),
(322,229,ls),
(387,218,o),
(416,200,o),
(416,155,cs),
(416,101,o),
(365,66,o),
(289,66,cs),
(204,66,o),
(149,95,o),
(132,168,c),
(30,143,l),
(61,31,o),
(169,-12,o),
(286,-12,cs)
);
}
);
width = 548;
},
{
anchors = (
{
name = bottom;
pos = (271,0);
},
{
name = top;
pos = (265,530);
}
);
background = {
shapes = (
{
closed = 1;
nodes = (
(135,0,o),
(204,-14,o),
(301,-14,c),
(370,-14,o),
(425,-5,o),
(465,12,c),
(505,29,o),
(534,52,o),
(552,81,c),
(571,110,o),
(580,140,o),
(580,171,c),
(580,201,o),
(571,229,o),
(554,255,c),
(536,280,o),
(511,299,o),
(478,313,c),
(445,327,o),
(394,338,o),
(326,345,c),
(282,351,o),
(253,357,o),
(239,363,c),
(226,370,o),
(219,380,o),
(219,393,c),
(219,404,o),
(224,414,o),
(235,423,c),
(245,431,o),
(262,435,o),
(285,435,c),
(308,435,o),
(327,429,o),
(343,419,c),
(355,411,o),
(364,398,o),
(369,381,c),
(562,400,l),
(549,435,o),
(532,463,o),
(512,483,c),
(491,503,o),
(466,518,o),
(436,528,c),
(406,538,o),
(359,543,o),
(295,543,c),
(235,543,o),
(187,536,o),
(151,524,c),
(116,511,o),
(88,492,o),
(67,467,c),
(47,442,o),
(37,411,o),
(37,376,c),
(37,344,o),
(46,316,o),
(65,291,c),
(84,266,o),
(107,248,o),
(135,237,c),
(162,227,o),
(211,215,o),
(282,203,c),
(330,195,o),
(359,188,o),
(370,182,c),
(385,174,o),
(393,163,o),
(393,148,c),
(393,135,o),
(387,124,o),
(376,115,c),
(361,104,o),
(339,98,o),
(312,98,c),
(287,98,o),
(267,103,o),
(252,113,c),
(237,124,o),
(225,141,o),
(217,165,c),
(14,146,l),
(26,95,o),
(52,55,o),
(93,28,c)
);
}
);
};
layerId = m005;
shapes = (
{
closed = 1;
nodes = (
(428,-12,o),
(509,59,o),
(509,179,cs),
(509,277,o),
(446,319,o),
(339,345,cs),
(298,355,ls),
(254,366,o),
(238,379,o),
(238,402,cs),
(238,420,o),
(248,435,o),
(276,435,cs),
(303,435,o),
(317,419,o),
(321,388,c),
(497,423,l),
(469,505,o),
(396,542,o),
(278,542,cs),
(121,542,o),
(42,477,o),
(42,369,cs),
(42,299,o),
(75,249,o),
(204,212,cs),
(256,197,ls),
(294,186,o),
(310,173,o),
(310,150,cs),
(310,123,o),
(295,105,o),
(270,105,cs),
(244,105,o),
(226,128,o),
(224,161,c),
(26,134,l),
(51,33,o),
(130,-12,o),
(271,-12,cs)
);
}
);
width = 535;
},
{
associatedMasterId = m005;
layerId = "B65DD71E-984B-4B4B-8949-4C25451F9815";
name = "22 Oct 21, 17:25";
shapes = (
{
closed = 1;
nodes = (
(411,-12,o),
(506,49,o),
(506,152,cs),
(506,361,o),
(163,287,o),
(163,401,cs),
(163,435,o),
(200,457,o),
(276,457,cs),
(341,457,o),
(394,438,o),
(437,378,c),
(499,462,l),
(429,509,o),
(372,532,o),
(283,532,cs),
(136,532,o),
(69,468,o),
(69,387,cs),
(69,206,o),
(411,276,o),
(411,142,cs),
(411,99,o),
(363,70,o),
(289,70,cs),
(219,70,o),
(149,100,o),
(111,180,c),
(40,110,l),
(94,26,o),
(178,-12,o),
(285,-12,cs)
);
}
);
width = 560;
},
{
associatedMasterId = m005;
layerId = "F48D4DE7-8F5C-4847-BA94-3FAAC0F0DCB7";
name = "22 Oct 21, 20:19";
shapes = (
{
closed = 1;
nodes = (
(406,-12,o),
(501,52,o),
(501,161,cs),
(501,252,o),
(426,292,o),
(330,310,cs),
(251,325,ls),
(190,337,o),
(156,354,o),
(156,392,cs),
(156,431,o),
(194,456,o),
(271,456,cs),
(336,456,o),
(389,437,o),
(432,378,c),
(494,462,l),
(424,509,o),
(367,532,o),
(278,532,cs),
(131,532,o),
(64,464,o),
(64,384,cs),
(64,315,o),
(119,266,o),
(222,246,cs),
(309,229,ls),
(376,216,o),
(407,197,o),
(407,151,cs),
(407,99,o),
(359,66,o),
(284,66,cs),
(214,66,o),
(144,97,o),
(106,180,c),
(35,110,l),
(89,26,o),
(173,-12,o),
(280,-12,cs)
);
}
);
width = 546;
},
{
associatedMasterId = m005;
layerId = "30E33B24-4CC6-4FC9-8B91-AAB43E87B618";
name = "8 Dec 21, 18:17";
shapes = (
{
closed = 1;
nodes = (
(411,-12,o),
(508,53,o),
(508,165,cs),
(508,252,o),
(436,292,o),
(341,307,cs),
(240,323,ls),
(179,333,o),
(151,351,o),
(151,389,cs),
(151,430,o),
(191,456,o),
(265,456,cs),
(328,456,o),
(376,440,o),
(395,383,c),
(493,407,l),
(465,494,o),
(377,532,o),
(267,532,cs),
(127,532,o),
(59,463,o),
(59,381,cs),
(59,313,o),
(113,263,o),
(216,246,cs),
(322,229,ls),
(387,218,o),
(416,200,o),
(416,155,cs),
(416,101,o),
(365,66,o),
(289,66,cs),
(204,66,o),
(149,95,o),
(132,168,c),
(30,143,l),
(61,31,o),
(169,-12,o),
(286,-12,cs)
);
}
);
width = 548;
}
);
unicode = 115;
},
{
glyphname = germandbls;
lastChange = "2022-06-07 12:53:01 +0000";
layers = (
{
background = {
shapes = (
{
pos = (129,0);
ref = s;
}
);
};
layerId = m01;
shapes = (
{
closed = 1;
nodes = (
(458,-12,o),
(532,57,o),
(532,168,cs),
(532,244,o),
(497,287,o),
(424,318,cs),
(382,336,ls),
(355,349,o),
(342,361,o),
(342,392,cs),
(342,413,o),
(352,429,o),
(372,445,cs),
(389,459,ls),
(442,502,o),
(469,538,o),
(469,592,cs),
(469,679,o),
(402,748,o),
(270,748,cs),
(142,748,o),
(75,668,o),
(75,576,cs),
(75,-3,l),
(169,-3,l),
(169,566,ls),
(169,626,o),
(196,666,o),
(270,666,cs),
(342,666,o),
(377,638,o),
(377,593,cs),
(377,560,o),
(361,535,o),
(335,516,cs),
(317,503,ls),
(276,472,o),
(250,436,o),
(250,388,cs),
(250,331,o),
(271,288,o),
(339,260,cs),
(385,241,ls),
(421,225,o),
(437,196,o),
(437,156,cs),
(437,100,o),
(406,65,o),
(362,65,cs),
(327,65,o),
(298,82,o),
(283,127,c),
(206,86,l),
(228,19,o),
(287,-12,o),
(361,-12,cs)
);
}
);
width = 570;
},
{
background = {
shapes = (
{
pos = (245,0);
ref = s;
}
);
};
layerId = m002;
shapes = (
{
closed = 1;
nodes = (
(559,-12,o),
(638,61,o),
(638,182,cs),
(638,270,o),
(592,303,o),
(512,334,cs),
(471,350,ls),
(451,358,o),
(441,366,o),
(441,386,cs),
(441,404,o),
(447,424,o),
(465,439,cs),
(487,458,ls),
(526,489,o),
(559,526,o),
(559,584,cs),
(559,676,o),
(486,748,o),
(312,748,cs),
(158,748,o),
(56,680,o),
(56,546,cs),
(56,-3,l),
(210,-3,l),
(210,536,ls),
(210,603,o),
(235,633,o),
(310,633,cs),
(362,633,o),
(388,608,o),
(388,568,cs),
(388,540,o),
(378,516,o),
(355,497,cs),
(331,477,ls),
(297,447,o),
(274,410,o),
(274,353,cs),
(274,301,o),
(310,273,o),
(404,233,cs),
(446,215,ls),
(480,201,o),
(494,184,o),
(494,160,cs),
(494,125,o),
(473,99,o),
(435,99,cs),
(402,99,o),
(379,116,o),
(369,146,c),
(243,66,l),
(266,14,o),
(322,-12,o),
(430,-12,cs)
);
}
);
width = 663;
},
{
layerId = m003;
shapes = (
{
closed = 1;
nodes = (
(428,-11,o),
(508,91,o),
(508,193,cs),
(508,243,o),
(485,278,o),
(439,311,cs),
(404,336,ls),
(385,350,o),
(378,363,o),
(378,382,cs),
(378,412,o),
(391,431,o),
(424,445,cs),
(450,456,ls),
(529,491,o),
(564,544,o),
(564,608,cs),
(564,712,o),
(464,748,o),
(386,748,cs),
(278,748,o),
(198,688,o),
(154,535,cs),
(1,0,l),
(97,0,l),
(244,520,ls),
(276,633,o),
(321,666,o),
(380,666,cs),
(420,666,o),
(472,648,o),
(472,601,cs),
(472,567,o),
(449,536,o),
(405,519,cs),
(382,510,ls),
(318,485,o),
(284,428,o),
(284,365,cs),
(284,327,o),
(300,294,o),
(341,266,cs),
(379,240,ls),
(398,226,o),
(410,206,o),
(410,178,cs),
(410,125,o),
(370,67,o),
(322,67,cs),
(286,67,o),
(250,84,o),
(248,142,c),
(165,115,l),
(169,28,o),
(253,-11,o),
(316,-11,cs)
);
}
);
width = 574;
},
{
layerId = m004;
shapes = (
{
closed = 1;
nodes = (
(516,-12,o),
(598,94,o),
(598,202,cs),
(598,251,o),
(576,283,o),
(542,310,cs),
(509,336,ls),
(499,345,o),
(495,353,o),
(495,363,cs),
(495,391,o),
(512,410,o),
(528,426,cs),
(545,443,ls),
(582,480,o),
(606,540,o),
(606,583,cs),
(606,701,o),
(491,748,o),
(413,748,cs),
(289,748,o),
(176,695,o),
(131,536,cs),
(-19,0,l),
(139,0,l),
(282,505,ls),
(308,598,o),
(337,631,o),
(400,631,cs),
(422,631,o),
(450,618,o),
(450,580,cs),
(450,553,o),
(439,521,o),
(413,498,cs),
(396,483,ls),
(351,444,o),
(317,390,o),
(317,343,cs),
(317,302,o),
(336,275,o),
(380,244,cs),
(423,214,ls),
(433,205,o),
(439,193,o),
(439,177,cs),
(439,129,o),
(402,100,o),
(376,100,cs),
(331,100,o),
(315,122,o),
(307,160,c),
(197,95,l),
(209,8,o),
(331,-12,o),
(374,-12,cs)
);
}
);
width = 642;
},
{
anchors = (
{
name = bottom;
pos = (336,0);
},
{
name = top;
pos = (336,710);
}
);
layerId = m005;
shapes = (
{
closed = 1;
nodes = (
(556,-12,o),
(651,71,o),
(651,188,cs),
(651,322,o),
(495,352,o),
(495,394,cs),
(495,439,o),
(606,483,o),
(606,562,cs),
(606,653,o),
(529,722,o),
(344,722,cs),
(159,722,o),
(37,656,o),
(37,526,cs),
(37,0,l),
(251,0,l),
(251,493,ls),
(251,552,o),
(267,579,o),
(319,579,cs),
(362,579,o),
(383,562,o),
(383,534,cs),
(383,481,o),
(282,450,o),
(282,370,cs),
(282,295,o),
(428,253,o),
(428,197,cs),
(428,172,o),
(394,154,o),
(342,154,cs),
(325,154,o),
(310,158,o),
(297,166,c),
(292,0,l),
(323,-7,o),
(364,-12,o),
(414,-12,cs)
);
}
);
width = 671;
}
);
metricLeft = l;
unicode = 223;
},
{
glyphname = t;
kernLeft = t;
lastChange = "2022-06-08 12:48:34 +0000";
layers = (
{
anchors = (
{
name = bottom;
pos = (167,0);
},
{
name = center;
pos = (141,260);
},
{
name = top;
pos = (150,520);
},
{
name = topright;
pos = (202,776);
}
);
layerId = m01;
shapes = (
{
closed = 1;
nodes = (
(213,-7,o),
(238,-6,o),
(266,1,c),
(265,85,l),
(250,78,o),
(237,77,o),
(220,77,cs),
(192,77,o),
(181,85,o),
(181,112,cs),
(181,746,l),
(100,666,l),
(89,520,l),
(87,493,l),
(87,86,ls),
(87,24,o),
(109,-7,o),
(190,-7,cs)
);
},
{
closed = 1;
nodes = (
(265,442,l),
(265,520,l),
(10,520,l),
(10,442,l)
);
}
);
width = 302;
},
{
anchors = (
{
name = bottom;
pos = (180,0);
},
{
name = center;
pos = (156,265);
},
{
name = top;
pos = (164,530);
},
{
name = topright;
pos = (256,776);
}
);
layerId = m002;
shapes = (
{
closed = 1;
nodes = (
(245,-6,o),
(270,-5,o),
(317,0,c),
(313,120,l),
(302,118,o),
(292,117,o),
(280,117,cs),
(249,117,o),
(236,125,o),
(236,156,cs),
(236,746,l),
(97,662,l),
(82,530,l),
(82,494,l),
(82,124,ls),
(82,31,o),
(116,-6,o),
(213,-6,cs)
);
},
{
closed = 1;
nodes = (
(314,422,l),
(314,530,l),
(16,530,l),
(16,422,l)
);
}
);
width = 347;
},
{
anchors = (
{
name = bottom;
pos = (108,0);
},
{
name = center;
pos = (136,260);
},
{
name = top;
pos = (222,517);
},
{
name = topright;
pos = (348,767);
}
);
layerId = m003;
shapes = (
{
closed = 1;
nodes = (
(169,-7,o),
(196,-1,o),
(231,14,c),
(210,97,l),
(189,82,o),
(176,77,o),
(161,77,cs),
(139,77,o),
(127,94,o),
(138,133,cs),
(310,736,l),
(216,711,l),
(159,504,l),
(145,493,l),
(47,148,ls),
(21,56,o),
(55,-7,o),
(138,-7,cs)
);
},
{
closed = 1;
nodes = (
(323,442,l),
(345,520,l),
(82,510,l),
(60,432,l)
);
}
);
width = 304;
},
{
anchors = (
{
name = bottom;
pos = (92,0);
},
{
name = center;
pos = (155,265);
},
{
name = top;
pos = (235,530);
},
{
name = topright;
pos = (401,776);
}
);
layerId = m004;
shapes = (
{
closed = 1;
nodes = (
(204,-6,o),
(244,1,o),
(287,21,c),
(245,124,l),
(243,120,o),
(239,117,o),
(229,117,cs),
(216,117,o),
(207,127,o),
(221,176,cs),
(380,746,l),
(221,711,l),
(165,503,l),
(150,494,l),
(62,175,ls),
(24,37,o),
(68,-6,o),
(165,-6,cs)
);
},
{
closed = 1;
nodes = (
(338,422,l),
(368,530,l),
(93,515,l),
(63,407,l)
);
}
);
width = 359;
},
{
anchors = (
{
name = bottom;
pos = (227,0);
},
{
name = center;
pos = (185,265);
},
{
name = top;
pos = (201,530);
},
{
name = topright;
pos = (285,816);
}
);
background = {
shapes = (
{
closed = 1;
nodes = (
(96,627,l),
(96,530,l),
(22,530,l),
(22,381,l),
(96,381,l),
(96,196,l),
(96,137,o),
(102,95,o),
(113,68,c),
(125,42,o),
(143,23,o),
(166,9,c),
(190,-4,o),
(227,-10,o),
(277,-10,c),
(321,-10,o),
(368,-5,o),
(418,6,c),
(403,146,l),
(376,138,o),
(355,133,o),
(341,133,c),
(323,133,o),
(312,139,o),
(306,150,c),
(301,157,o),
(299,172,o),
(299,195,c),
(299,381,l),
(411,381,l),
(411,530,l),
(299,530,l),
(299,731,l)
);
}
);
};
layerId = m005;
shapes = (
{
closed = 1;
nodes = (
(288,-6,o),
(314,-4,o),
(387,5,c),
(383,160,l),
(369,153,o),
(354,149,o),
(338,149,cs),
(304,149,o),
(294,157,o),
(294,196,cs),
(294,720,l),
(104,696,l),
(79,530,l),
(80,494,l),
(80,122,ls),
(80,37,o),
(124,-6,o),
(247,-6,cs)
);
},
{
closed = 1;
nodes = (
(384,382,l),
(384,530,l),
(15,530,l),
(15,382,l)
);
}
);
width = 418;
}
);
unicode = 116;
},
